font.ufo
<glyph name="exclam" format="1">
  <advance width="246"/>
  <unicode hex="0021"/>
  <outline>
    <contour>
      <point x="167" y="229" type="line"/>
      <point x="174" y="722" type="line"/>
      <point x="73" y="722" type="line"/>
      <point x="80" y="229" type="line"/>
    </contour>
    <contour>
      <point x="171" y="39" type="curve"/>
      <point x="171" y="69"/>
      <point x="151" y="85"/>
      <point x="123" y="85" type="curve"/>
      <point x="94" y="85"/>
      <point x="76" y="68"/>
      <point x="76" y="39" type="curve"/>
      <point x="171" y="39"/>
      <point x="76" y="39"/>
      <point x="171" y="39" type="curve"/>
      <point x="171" y="7"/>
      <point x="151" y="-7"/>
      <point x="123" y="-7" type="curve"/>
      <point x="94" y="-7"/>
      <point x="76" y="8"/>
      <point x="76" y="39" type="curve"/>
      <point x="171" y="39"/>
      <point x="76" y="39"/>
    </contour>
  </outline>
</glyph>
<glyph name="quotedbl" format="1">
  <advance width="389"/>
  <unicode hex="0022"/>
  <outline>
    <contour>
      <point x="153" y="584" type="line"/>
      <point x="159" y="788" type="line"/>
      <point x="69" y="788" type="line"/>
      <point x="76" y="584" type="line"/>
    </contour>
    <contour>
      <point x="313" y="584" type="line"/>
      <point x="320" y="788" type="line"/>
      <point x="230" y="788" type="line"/>
      <point x="237" y="584" type="line"/>
    </contour>
  </outline>
</glyph>
<glyph name="quotesingle" format="1">
  <advance width="228"/>
  <unicode hex="0027"/>
  <outline>
    <contour>
      <point x="153" y="584" type="line"/>
      <point x="159" y="788" type="line"/>
      <point x="69" y="788" type="line"/>
      <point x="76" y="584" type="line"/>
    </contour>
  </outline>
</glyph>
<glyph name="parenleft" format="1">
  <advance width="302"/>
  <unicode hex="0028"/>
  <outline>
    <contour>
      <point x="294" y="-219" type="curve"/>
      <point x="165" y="-45"/>
      <point x="132" y="110"/>
      <point x="132" y="326" type="curve"/>
      <point x="132" y="542"/>
      <point x="166" y="697"/>
      <point x="293" y="874" type="curve"/>
      <point x="240" y="918"/>
      <point x="293" y="874"/>
      <point x="240" y="918" type="curve"/>
      <point x="99" y="728"/>
      <point x="47" y="564"/>
      <point x="47" y="326" type="curve"/>
      <point x="47" y="88"/>
      <point x="100" y="-76"/>
      <point x="241" y="-267" type="curve"/>
      <point x="294" y="-219"/>
      <point x="241" y="-267"/>
    </contour>
  </outline>
</glyph>
<glyph name="asterisk" format="1">
  <advance width="532"/>
  <unicode hex="002A"/>
  <outline>
    <contour>
      <point x="295" y="535" type="line"/>
      <point x="300" y="739" type="line"/>
      <point x="233" y="739" type="line"/>
      <point x="238" y="535" type="line"/>
    </contour>
    <contour>
      <point x="276" y="508" type="line"/>
      <point x="470" y="570" type="line"/>
      <point x="447" y="633" type="line"/>
      <point x="256" y="561" type="line"/>
    </contour>
    <contour>
      <point x="244" y="517" type="line"/>
      <point x="367" y="353" type="line"/>
      <point x="419" y="396" type="line"/>
      <point x="289" y="553" type="line"/>
    </contour>
    <contour>
      <point x="244" y="553" type="line"/>
      <point x="114" y="396" type="line"/>
      <point x="166" y="354" type="line"/>
      <point x="288" y="517" type="line"/>
    </contour>
    <contour>
      <point x="276" y="561" type="line"/>
      <point x="85" y="633" type="line"/>
      <point x="62" y="570" type="line"/>
      <point x="257" y="508" type="line"/>
    </contour>
  </outline>
</glyph>
<glyph name="plus" format="1">
  <advance width="595"/>
  <unicode hex="002B"/>
  <outline>
    <contour>
      <point x="46" y="275" type="curve"/>
      <point x="549" y="275" type="line"/>
      <point x="549" y="350"/>
      <point x="549" y="275"/>
      <point x="549" y="350" type="curve"/>
      <point x="46" y="350" type="line"/>
      <point x="46" y="275"/>
      <point x="46" y="350"/>
    </contour>
    <contour>
      <point x="338" y="39" type="curve"/>
      <point x="338" y="583" type="line"/>
      <point x="251" y="583"/>
      <point x="344" y="583"/>
      <point x="256" y="583" type="curve"/>
      <point x="256" y="39" type="line"/>
      <point x="344" y="39"/>
      <point x="251" y="39"/>
    </contour>
  </outline>
</glyph>
<glyph name="hyphen" format="1">
  <advance width="358"/>
  <unicode hex="002D"/>
  <outline>
    <contour>
      <point x="74" y="240" type="curve"/>
      <point x="144" y="240"/>
      <point x="215" y="240"/>
      <point x="285" y="240" type="curve"/>
      <point x="285" y="316"/>
      <point x="285" y="240"/>
      <point x="285" y="316" type="curve"/>
      <point x="215" y="316"/>
      <point x="144" y="316"/>
      <point x="74" y="316" type="curve"/>
      <point x="74" y="240"/>
      <point x="74" y="316"/>
    </contour>
  </outline>
</glyph>
<glyph name="period" format="1">
  <advance width="233"/>
  <unicode hex="002E"/>
  <outline>
    <contour>
      <point x="164" y="39" type="curve"/>
      <point x="164" y="69"/>
      <point x="144" y="85"/>
      <point x="116" y="85" type="curve"/>
      <point x="87" y="85"/>
      <point x="69" y="68"/>
      <point x="69" y="39" type="curve"/>
      <point x="164" y="39"/>
      <point x="69" y="39"/>
      <point x="164" y="39" type="curve"/>
      <point x="164" y="7"/>
      <point x="144" y="-7"/>
      <point x="116" y="-7" type="curve"/>
      <point x="87" y="-7"/>
      <point x="69" y="8"/>
      <point x="69" y="39" type="curve"/>
      <point x="164" y="39"/>
      <point x="69" y="39"/>
    </contour>
  </outline>
</glyph>
<glyph name="six" format="1">
  <advance width="492"/>
  <unicode hex="0036"/>
  <outline>
    <contour>
      <point x="125" y="219" type="curve"/>
      <point x="140" y="290"/>
      <point x="179" y="359"/>
      <point x="252" y="359" type="curve"/>
      <point x="326" y="359"/>
      <point x="350" y="297"/>
      <point x="350" y="215" type="curve"/>
      <point x="350" y="141"/>
      <point x="324" y="72"/>
      <point x="255" y="72" type="curve"/>
      <point x="168" y="72"/>
      <point x="138" y="151"/>
      <point x="138" y="252" type="curve"/>
      <point x="138" y="454"/>
      <point x="233" y="595"/>
      <point x="424" y="667" type="curve"/>
      <point x="399" y="731"/>
      <point x="424" y="667"/>
      <point x="399" y="731" type="curve"/>
      <point x="177" y="651"/>
      <point x="53" y="492"/>
      <point x="53" y="248" type="curve"/>
      <point x="53" y="99"/>
      <point x="116" y="-9"/>
      <point x="254" y="-9" type="curve"/>
      <point x="377" y="-9"/>
      <point x="438" y="84"/>
      <point x="438" y="215" type="curve"/>
      <point x="438" y="343"/>
      <point x="380" y="431"/>
      <point x="266" y="431" type="curve"/>
      <point x="153" y="431"/>
      <point x="92" y="326"/>
      <point x="81" y="239" type="curve"/>
      <point x="124" y="219"/>
      <point x="82" y="239"/>
    </contour>
  </outline>
</glyph>
<glyph name="seven" format="1">
  <advance width="442"/>
  <unicode hex="0037"/>
  <outline>
    <contour>
      <point x="125" y="563" type="line"/>
      <point x="125" y="663" type="line"/>
      <point x="55" y="663" type="line"/>
      <point x="55" y="563" type="line"/>
    </contour>
    <contour>
      <point x="55" y="653" type="line"/>
      <point x="423" y="653" type="line"/>
      <point x="423" y="722" type="line"/>
      <point x="55" y="722" type="line"/>
    </contour>
    <contour>
      <point x="371" y="722" type="line"/>
      <point x="64" y="0" type="line"/>
      <point x="152" y="0" type="line"/>
      <point x="423" y="653" type="line"/>
    </contour>
  </outline>
</glyph>
<glyph name="colon" format="1">
  <advance width="243"/>
  <unicode hex="003A"/>
  <outline>
    <contour>
      <point x="169" y="383" type="curve"/>
      <point x="169" y="414"/>
      <point x="149" y="430"/>
      <point x="120" y="430" type="curve"/>
      <point x="92" y="430"/>
      <point x="74" y="413"/>
      <point x="74" y="383" type="curve"/>
      <point x="169" y="383"/>
      <point x="74" y="383"/>
      <point x="169" y="383" type="curve"/>
      <point x="169" y="352"/>
      <point x="150" y="338"/>
      <point x="120" y="338" type="curve"/>
      <point x="92" y="338"/>
      <point x="74" y="353"/>
      <point x="74" y="383" type="curve"/>
      <point x="169" y="383"/>
      <point x="74" y="383"/>
    </contour>
    <contour>
      <point x="169" y="41" type="curve"/>
      <point x="169" y="72"/>
      <point x="149" y="87"/>
      <point x="120" y="87" type="curve"/>
      <point x="92" y="87"/>
      <point x="74" y="70"/>
      <point x="74" y="41" type="curve"/>
      <point x="169" y="41"/>
      <point x="74" y="41"/>
      <point x="169" y="41" type="curve"/>
      <point x="169" y="10"/>
      <point x="150" y="-5"/>
      <point x="120" y="-5" type="curve"/>
      <point x="92" y="-5"/>
      <point x="74" y="11"/>
      <point x="74" y="41" type="curve"/>
      <point x="169" y="41"/>
      <point x="74" y="41"/>
    </contour>
  </outline>
</glyph>
<glyph name="equal" format="1">
  <advance width="610"/>
  <unicode hex="003D"/>
  <outline>
    <contour>
      <point x="77" y="181" type="curve"/>
      <point x="229" y="181"/>
      <point x="381" y="181"/>
      <point x="533" y="181" type="curve"/>
      <point x="533" y="254"/>
      <point x="533" y="181"/>
      <point x="533" y="254" type="curve"/>
      <point x="381" y="254"/>
      <point x="229" y="254"/>
      <point x="77" y="254" type="curve"/>
      <point x="77" y="181"/>
      <point x="77" y="254"/>
    </contour>
    <contour>
      <point x="77" y="403" type="curve"/>
      <point x="229" y="403"/>
      <point x="381" y="403"/>
      <point x="533" y="403" type="curve"/>
      <point x="533" y="476"/>
      <point x="533" y="403"/>
      <point x="533" y="476" type="curve"/>
      <point x="381" y="476"/>
      <point x="229" y="476"/>
      <point x="77" y="476" type="curve"/>
      <point x="77" y="403"/>
      <point x="77" y="476"/>
    </contour>
  </outline>
</glyph>
<glyph name="greater" format="1">
  <advance width="545"/>
  <unicode hex="003E"/>
  <outline>
    <contour>
      <point x="65" y="-2" type="curve"/>
      <point x="212" y="88"/>
      <point x="360" y="178"/>
      <point x="508" y="268" type="curve"/>
      <point x="508" y="344"/>
      <point x="508" y="268"/>
      <point x="508" y="344" type="curve"/>
      <point x="360" y="254"/>
      <point x="212" y="164"/>
      <point x="65" y="74" type="curve"/>
      <point x="65" y="-2"/>
      <point x="65" y="74"/>
    </contour>
    <contour>
      <point x="58" y="532" type="curve"/>
      <point x="207" y="444"/>
      <point x="358" y="356"/>
      <point x="508" y="268" type="curve"/>
      <point x="508" y="344"/>
      <point x="508" y="268"/>
      <point x="508" y="344" type="curve"/>
      <point x="358" y="432"/>
      <point x="207" y="520"/>
      <point x="58" y="608" type="curve"/>
      <point x="58" y="532"/>
      <point x="58" y="608"/>
    </contour>
  </outline>
</glyph>
<glyph name="at" format="1">
  <advance width="674"/>
  <unicode hex="0040"/>
  <outline>
    <contour>
      <point x="448" y="-51" type="curve"/>
      <point x="415" y="-74"/>
      <point x="389" y="-82"/>
      <point x="349" y="-82" type="curve"/>
      <point x="200" y="-82"/>
      <point x="130" y="38"/>
      <point x="130" y="202" type="curve"/>
      <point x="130" y="361"/>
      <point x="198" y="479"/>
      <point x="342" y="479" type="curve"/>
      <point x="479" y="479"/>
      <point x="543" y="363"/>
      <point x="543" y="211" type="curve"/>
      <point x="543" y="146"/>
      <point x="543" y="88"/>
      <point x="510" y="88" type="curve"/>
      <point x="475" y="88"/>
      <point x="475" y="143"/>
      <point x="475" y="207" type="curve"/>
      <point x="475" y="312"/>
      <point x="433" y="391"/>
      <point x="337" y="391" type="curve"/>
      <point x="233" y="391"/>
      <point x="193" y="315"/>
      <point x="193" y="205" type="curve"/>
      <point x="193" y="92"/>
      <point x="227" y="10"/>
      <point x="329" y="10" type="curve"/>
      <point x="422" y="10"/>
      <point x="452" y="89"/>
      <point x="463" y="191" type="curve"/>
      <point x="408" y="204"/>
      <point x="463" y="191"/>
      <point x="408" y="204" type="curve"/>
      <point x="396" y="142"/>
      <point x="394" y="79"/>
      <point x="339" y="79" type="curve"/>
      <point x="283" y="79"/>
      <point x="271" y="137"/>
      <point x="271" y="209" type="curve"/>
      <point x="271" y="271"/>
      <point x="280" y="322"/>
      <point x="332" y="322" type="curve"/>
      <point x="390" y="322"/>
      <point x="396" y="268"/>
      <point x="396" y="203" type="curve"/>
      <point x="396" y="103"/>
      <point x="414" y="22"/>
      <point x="503" y="22" type="curve"/>
      <point x="597" y="22"/>
      <point x="618" y="106"/>
      <point x="618" y="214" type="curve"/>
      <point x="618" y="412"/>
      <point x="530" y="551"/>
      <point x="344" y="551" type="curve"/>
      <point x="147" y="551"/>
      <point x="52" y="408"/>
      <point x="52" y="199" type="curve"/>
      <point x="52" y="-9"/>
      <point x="150" y="-152"/>
      <point x="345" y="-152" type="curve"/>
      <point x="402" y="-152"/>
      <point x="436" y="-142"/>
      <point x="482" y="-110" type="curve"/>
      <point x="448" y="-51"/>
      <point x="482" y="-110"/>
    </contour>
  </outline>
</glyph>
<glyph name="D" format="1">
  <advance width="642"/>
  <unicode hex="0044"/>
  <outline>
    <contour>
      <point x="284" y="801" type="move" name="top"/>
    </contour>
    <contour>
      <point x="178" y="69" type="curve"/>
      <point x="43" y="69"/>
      <point x="187" y="69"/>
      <point x="53" y="69" type="curve"/>
      <point x="53" y="0"/>
      <point x="53" y="69"/>
      <point x="53" y="0" type="curve"/>
      <point x="98" y="0"/>
      <point x="133" y="0"/>
      <point x="178" y="0" type="curve"/>
      <point x="178" y="69"/>
      <point x="178" y="0"/>
    </contour>
    <contour>
      <point x="178" y="722" type="curve"/>
      <point x="133" y="722"/>
      <point x="98" y="722"/>
      <point x="53" y="722" type="curve"/>
      <point x="53" y="653"/>
      <point x="53" y="722"/>
      <point x="53" y="653" type="curve"/>
      <point x="187" y="653"/>
      <point x="43" y="653"/>
      <point x="178" y="653" type="curve"/>
      <point x="178" y="722"/>
      <point x="178" y="653"/>
    </contour>
    <contour>
      <point x="133" y="722" type="curve"/>
      <point x="133" y="481"/>
      <point x="133" y="241"/>
      <point x="133" y="0" type="curve"/>
      <point x="220" y="0"/>
      <point x="133" y="0"/>
      <point x="220" y="0" type="curve"/>
      <point x="220" y="241"/>
      <point x="220" y="481"/>
      <point x="220" y="722" type="curve"/>
      <point x="133" y="722"/>
      <point x="220" y="722"/>
    </contour>
    <contour>
      <point x="178" y="0" type="curve"/>
      <point x="225" y="0"/>
      <point x="263" y="0"/>
      <point x="310" y="0" type="curve"/>
      <point x="507" y="0"/>
      <point x="587" y="143"/>
      <point x="587" y="355" type="curve"/>
      <point x="587" y="574"/>
      <point x="506" y="722"/>
      <point x="305" y="722" type="curve"/>
      <point x="261" y="722"/>
      <point x="223" y="722"/>
      <point x="178" y="722" type="curve"/>
      <point x="178" y="660"/>
      <point x="178" y="715"/>
      <point x="178" y="653" type="curve"/>
      <point x="222" y="653"/>
      <point x="258" y="653"/>
      <point x="301" y="653" type="curve"/>
      <point x="455" y="653"/>
      <point x="500" y="526"/>
      <point x="500" y="353" type="curve"/>
      <point x="500" y="191"/>
      <point x="461" y="69"/>
      <point x="318" y="69" type="curve"/>
      <point x="269" y="69"/>
      <point x="227" y="69"/>
      <point x="178" y="69" type="curve"/>
      <point x="178" y="7"/>
      <point x="178" y="62"/>
    </contour>
  </outline>
</glyph>
<glyph name="G" format="1">
  <advance width="623"/>
  <unicode hex="0047"/>
  <outline>
    <contour>
      <point x="326" y="801" type="move" name="top"/>
    </contour>
    <contour>
      <point x="357" y="-37" type="move" name="bottom"/>
    </contour>
    <contour>
      <point x="478" y="644" type="curve"/>
      <point x="478" y="513"/>
      <point x="478" y="648"/>
      <point x="478" y="518" type="curve"/>
      <point x="548" y="518"/>
      <point x="478" y="518"/>
      <point x="548" y="518" type="curve"/>
      <point x="548" y="648"/>
      <point x="548" y="513"/>
      <point x="548" y="644" type="curve"/>
      <point x="478" y="644"/>
      <point x="548" y="644"/>
    </contour>
    <contour>
      <point x="536" y="346" type="curve"/>
      <point x="483" y="346"/>
      <point x="430" y="346"/>
      <point x="376" y="346" type="curve"/>
      <point x="376" y="277"/>
      <point x="376" y="346"/>
      <point x="376" y="277" type="curve"/>
      <point x="430" y="277"/>
      <point x="483" y="277"/>
      <point x="536" y="277" type="curve"/>
      <point x="536" y="346"/>
      <point x="536" y="277"/>
    </contour>
    <contour>
      <point x="560" y="78" type="curve"/>
      <point x="560" y="168"/>
      <point x="560" y="257"/>
      <point x="560" y="346" type="curve"/>
      <point x="480" y="346"/>
      <point x="560" y="346"/>
      <point x="480" y="346" type="curve"/>
      <point x="480" y="257"/>
      <point x="480" y="168"/>
      <point x="480" y="78" type="curve"/>
      <point x="560" y="78"/>
      <point x="480" y="78"/>
    </contour>
    <contour>
      <point x="548" y="644" type="curve"/>
      <point x="481" y="699"/>
      <point x="415" y="727"/>
      <point x="329" y="727" type="curve"/>
      <point x="135" y="727"/>
      <point x="55" y="575"/>
      <point x="55" y="362" type="curve"/>
      <point x="55" y="146"/>
      <point x="140" y="-5"/>
      <point x="337" y="-5" type="curve"/>
      <point x="429" y="-5"/>
      <point x="486" y="24"/>
      <point x="560" y="78" type="curve"/>
      <point x="515" y="132"/>
      <point x="560" y="78"/>
      <point x="515" y="132" type="curve"/>
      <point x="464" y="92"/>
      <point x="409" y="68"/>
      <point x="337" y="68" type="curve"/>
      <point x="187" y="68"/>
      <point x="143" y="198"/>
      <point x="143" y="369" type="curve"/>
      <point x="143" y="530"/>
      <point x="188" y="655"/>
      <point x="329" y="655" type="curve"/>
      <point x="398" y="655"/>
      <point x="450" y="630"/>
      <point x="504" y="585" type="curve"/>
      <point x="548" y="644"/>
      <point x="504" y="585"/>
    </contour>
  </outline>
</glyph>
<glyph name="I" format="1">
  <advance width="330"/>
  <unicode hex="0049"/>
  <outline>
    <contour>
      <point x="166" y="801" type="move" name="top"/>
    </contour>
    <contour>
      <point x="202" y="3" type="move" name="bottom"/>
    </contour>
    <contour>
      <point x="165" y="722" type="curve"/>
      <point x="120" y="722"/>
      <point x="85" y="722"/>
      <point x="39" y="722" type="curve"/>
      <point x="39" y="653"/>
      <point x="39" y="722"/>
      <point x="39" y="653" type="curve"/>
      <point x="175" y="653"/>
      <point x="30" y="653"/>
      <point x="165" y="653" type="curve"/>
      <point x="165" y="722"/>
      <point x="165" y="653"/>
    </contour>
    <contour>
      <point x="165" y="653" type="curve"/>
      <point x="300" y="653"/>
      <point x="156" y="653"/>
      <point x="291" y="653" type="curve"/>
      <point x="291" y="722"/>
      <point x="291" y="653"/>
      <point x="291" y="722" type="curve"/>
      <point x="246" y="722"/>
      <point x="210" y="722"/>
      <point x="165" y="722" type="curve"/>
      <point x="165" y="653"/>
      <point x="165" y="722"/>
    </contour>
    <contour>
      <point x="165" y="0" type="curve"/>
      <point x="210" y="0"/>
      <point x="246" y="0"/>
      <point x="291" y="0" type="curve"/>
      <point x="291" y="69"/>
      <point x="291" y="0"/>
      <point x="291" y="69" type="curve"/>
      <point x="156" y="69"/>
      <point x="300" y="69"/>
      <point x="165" y="69" type="curve"/>
      <point x="165" y="0"/>
      <point x="165" y="69"/>
    </contour>
    <contour>
      <point x="165" y="69" type="curve"/>
      <point x="30" y="69"/>
      <point x="175" y="69"/>
      <point x="39" y="69" type="curve"/>
      <point x="39" y="0"/>
      <point x="39" y="69"/>
      <point x="39" y="0" type="curve"/>
      <point x="85" y="0"/>
      <point x="120" y="0"/>
      <point x="165" y="0" type="curve"/>
      <point x="165" y="69"/>
      <point x="165" y="0"/>
    </contour>
    <contour>
      <point x="208" y="0" type="curve"/>
      <point x="208" y="241"/>
      <point x="208" y="481"/>
      <point x="208" y="722" type="curve"/>
      <point x="121" y="722"/>
      <point x="208" y="722"/>
      <point x="121" y="722" type="curve"/>
      <point x="121" y="481"/>
      <point x="121" y="241"/>
      <point x="121" y="0" type="curve"/>
      <point x="208" y="0"/>
      <point x="121" y="0"/>
    </contour>
  </outline>
</glyph>
<glyph name="K" format="1">
  <advance width="599"/>
  <unicode hex="004B"/>
  <outline>
    <contour>
      <point x="332" y="-37" type="move" name="bottom"/>
    </contour>
    <contour>
      <point x="451" y="722" type="curve"/>
      <point x="405" y="722"/>
      <point x="375" y="722"/>
      <point x="330" y="722" type="curve"/>
      <point x="330" y="653"/>
      <point x="330" y="722"/>
      <point x="330" y="653" type="curve"/>
      <point x="466" y="653"/>
      <point x="315" y="653"/>
      <point x="451" y="653" type="curve"/>
      <point x="451" y="722"/>
      <point x="451" y="653"/>
    </contour>
    <contour>
      <point x="456" y="0" type="curve"/>
      <point x="512" y="0"/>
      <point x="522" y="0"/>
      <point x="578" y="0" type="curve"/>
      <point x="578" y="69"/>
      <point x="578" y="0"/>
      <point x="578" y="69" type="curve"/>
      <point x="412" y="69"/>
      <point x="622" y="69"/>
      <point x="456" y="69" type="curve"/>
      <point x="456" y="0"/>
      <point x="456" y="69"/>
    </contour>
    <contour>
      <point x="435" y="653" type="curve"/>
      <point x="569" y="653"/>
      <point x="421" y="653"/>
      <point x="555" y="653" type="curve"/>
      <point x="555" y="722"/>
      <point x="555" y="653"/>
      <point x="555" y="722" type="curve"/>
      <point x="511" y="722"/>
      <point x="480" y="722"/>
      <point x="435" y="722" type="curve"/>
      <point x="435" y="653"/>
      <point x="435" y="722"/>
    </contour>
    <contour>
      <point x="162" y="722" type="curve"/>
      <point x="118" y="722"/>
      <point x="83" y="722"/>
      <point x="39" y="722" type="curve"/>
      <point x="39" y="653"/>
      <point x="39" y="722"/>
      <point x="39" y="653" type="curve"/>
      <point x="171" y="653"/>
      <point x="30" y="653"/>
      <point x="162" y="653" type="curve"/>
      <point x="162" y="722"/>
      <point x="162" y="653"/>
    </contour>
    <contour>
      <point x="162" y="653" type="curve"/>
      <point x="297" y="653"/>
      <point x="129" y="653"/>
      <point x="264" y="653" type="curve"/>
      <point x="264" y="722"/>
      <point x="264" y="653"/>
      <point x="264" y="722" type="curve"/>
      <point x="219" y="722"/>
      <point x="207" y="722"/>
      <point x="162" y="722" type="curve"/>
      <point x="162" y="653"/>
      <point x="162" y="722"/>
    </contour>
    <contour>
      <point x="162" y="0" type="curve"/>
      <point x="209" y="0"/>
      <point x="128" y="0"/>
      <point x="271" y="0" type="curve"/>
      <point x="271" y="69"/>
      <point x="271" y="0"/>
      <point x="271" y="69" type="curve"/>
      <point x="128" y="69"/>
      <point x="304" y="69"/>
      <point x="162" y="69" type="curve"/>
      <point x="162" y="0"/>
      <point x="162" y="69"/>
    </contour>
    <contour>
      <point x="162" y="69" type="curve"/>
      <point x="30" y="69"/>
      <point x="171" y="69"/>
      <point x="39" y="69" type="curve"/>
      <point x="39" y="0"/>
      <point x="39" y="69"/>
      <point x="39" y="0" type="curve"/>
      <point x="83" y="0"/>
      <point x="118" y="0"/>
      <point x="162" y="0" type="curve"/>
      <point x="162" y="69"/>
      <point x="162" y="0"/>
    </contour>
    <contour>
      <point x="434" y="722" type="curve"/>
      <point x="192" y="380" type="line"/>
      <point x="289" y="380"/>
      <point x="190" y="380"/>
      <point x="287" y="380" type="curve"/>
      <point x="503" y="688" type="line"/>
      <point x="432" y="688"/>
      <point x="505" y="722"/>
    </contour>
    <contour>
      <point x="206" y="0" type="curve"/>
      <point x="206" y="722" type="line"/>
      <point x="119" y="722"/>
      <point x="206" y="722"/>
      <point x="119" y="722" type="curve"/>
      <point x="119" y="481"/>
      <point x="119" y="241"/>
      <point x="119" y="0" type="curve"/>
      <point x="206" y="0"/>
      <point x="119" y="0"/>
    </contour>
    <contour>
      <point x="528" y="28" type="curve"/>
      <point x="287" y="380" type="line"/>
      <point x="190" y="380"/>
      <point x="289" y="380"/>
      <point x="192" y="380" type="curve"/>
      <point x="451" y="0" type="line"/>
      <point x="530" y="0"/>
      <point x="448" y="28"/>
    </contour>
  </outline>
</glyph>
<glyph name="L" format="1">
  <advance width="498"/>
  <unicode hex="004C"/>
  <outline>
    <contour>
      <point x="165" y="801" type="move" name="top"/>
    </contour>
    <contour>
      <point x="295" y="-35" type="move" name="bottom"/>
    </contour>
    <contour>
      <point x="471" y="34" type="curve"/>
      <point x="471" y="154"/>
      <point x="471" y="30"/>
      <point x="471" y="150" type="curve"/>
      <point x="401" y="150"/>
      <point x="471" y="150"/>
      <point x="401" y="150" type="curve"/>
      <point x="401" y="30"/>
      <point x="401" y="154"/>
      <point x="401" y="34" type="curve"/>
      <point x="471" y="34"/>
      <point x="401" y="34"/>
    </contour>
    <contour>
      <point x="164" y="69" type="curve"/>
      <point x="30" y="69"/>
      <point x="174" y="69"/>
      <point x="39" y="69" type="curve"/>
      <point x="38" y="0"/>
      <point x="39" y="69"/>
      <point x="38" y="0" type="curve"/>
      <point x="84" y="0"/>
      <point x="119" y="0"/>
      <point x="164" y="0" type="curve"/>
      <point x="164" y="69"/>
      <point x="164" y="0"/>
    </contour>
    <contour>
      <point x="164" y="722" type="curve"/>
      <point x="119" y="722"/>
      <point x="84" y="722"/>
      <point x="39" y="722" type="curve"/>
      <point x="38" y="653"/>
      <point x="39" y="722"/>
      <point x="38" y="653" type="curve"/>
      <point x="174" y="653"/>
      <point x="29" y="653"/>
      <point x="164" y="653" type="curve"/>
      <point x="164" y="722"/>
      <point x="164" y="653"/>
    </contour>
    <contour>
      <point x="164" y="653" type="curve"/>
      <point x="299" y="653"/>
      <point x="155" y="653"/>
      <point x="290" y="653" type="curve"/>
      <point x="290" y="722"/>
      <point x="290" y="653"/>
      <point x="290" y="722" type="curve"/>
      <point x="245" y="722"/>
      <point x="209" y="722"/>
      <point x="164" y="722" type="curve"/>
      <point x="164" y="653"/>
      <point x="164" y="722"/>
    </contour>
    <contour>
      <point x="209" y="0" type="curve"/>
      <point x="209" y="241"/>
      <point x="209" y="481"/>
      <point x="209" y="722" type="curve"/>
      <point x="121" y="722"/>
      <point x="209" y="722"/>
      <point x="121" y="722" type="curve"/>
      <point x="121" y="481"/>
      <point x="121" y="241"/>
      <point x="121" y="0" type="curve"/>
      <point x="209" y="0"/>
      <point x="121" y="0"/>
    </contour>
    <contour>
      <point x="164" y="0" type="curve"/>
      <point x="266" y="0"/>
      <point x="369" y="0"/>
      <point x="471" y="0" type="curve"/>
      <point x="471" y="69"/>
      <point x="471" y="0"/>
      <point x="471" y="69" type="curve"/>
      <point x="369" y="69"/>
      <point x="266" y="69"/>
      <point x="164" y="69" type="curve"/>
      <point x="164" y="0"/>
      <point x="164" y="69"/>
    </contour>
  </outline>
</glyph>
<glyph name="M" format="1">
  <advance width="784"/>
  <unicode hex="004D"/>
  <outline>
    <contour>
      <point x="642" y="0" type="curve"/>
      <point x="686" y="0"/>
      <point x="720" y="0"/>
      <point x="763" y="0" type="curve"/>
      <point x="763" y="69"/>
      <point x="763" y="0"/>
      <point x="763" y="69" type="curve"/>
      <point x="633" y="69"/>
      <point x="772" y="69"/>
      <point x="642" y="69" type="curve"/>
      <point x="642" y="0"/>
      <point x="642" y="69"/>
    </contour>
    <contour>
      <point x="642" y="69" type="curve"/>
      <point x="518" y="69"/>
      <point x="652" y="69"/>
      <point x="527" y="69" type="curve"/>
      <point x="527" y="0"/>
      <point x="527" y="69"/>
      <point x="527" y="0" type="curve"/>
      <point x="569" y="0"/>
      <point x="601" y="0"/>
      <point x="642" y="0" type="curve"/>
      <point x="642" y="69"/>
      <point x="642" y="0"/>
    </contour>
    <contour>
      <point x="142" y="69" type="curve"/>
      <point x="12" y="69"/>
      <point x="152" y="69"/>
      <point x="22" y="69" type="curve"/>
      <point x="22" y="0"/>
      <point x="22" y="69"/>
      <point x="22" y="0" type="curve"/>
      <point x="65" y="0"/>
      <point x="99" y="0"/>
      <point x="142" y="0" type="curve"/>
      <point x="142" y="69"/>
      <point x="142" y="0"/>
    </contour>
    <contour>
      <point x="185" y="722" type="curve"/>
      <point x="141" y="722"/>
      <point x="107" y="722"/>
      <point x="64" y="722" type="curve"/>
      <point x="64" y="653"/>
      <point x="64" y="722"/>
      <point x="64" y="653" type="curve"/>
      <point x="194" y="653"/>
      <point x="54" y="653"/>
      <point x="185" y="653" type="curve"/>
      <point x="185" y="722"/>
      <point x="185" y="653"/>
    </contour>
    <contour>
      <point x="598" y="653" type="curve"/>
      <point x="728" y="653"/>
      <point x="589" y="653"/>
      <point x="718" y="653" type="curve"/>
      <point x="718" y="722"/>
      <point x="718" y="653"/>
      <point x="718" y="722" type="curve"/>
      <point x="675" y="722"/>
      <point x="641" y="722"/>
      <point x="598" y="722" type="curve"/>
      <point x="598" y="653"/>
      <point x="598" y="722"/>
    </contour>
    <contour>
      <point x="142" y="0" type="curve"/>
      <point x="184" y="0"/>
      <point x="133" y="0"/>
      <point x="257" y="0" type="curve"/>
      <point x="257" y="69"/>
      <point x="257" y="0"/>
      <point x="257" y="69" type="curve"/>
      <point x="133" y="69"/>
      <point x="266" y="69"/>
      <point x="142" y="69" type="curve"/>
      <point x="142" y="0"/>
      <point x="142" y="69"/>
    </contour>
    <contour>
      <point x="690" y="0" type="curve"/>
      <point x="674" y="241"/>
      <point x="657" y="481"/>
      <point x="642" y="722" type="curve"/>
      <point x="562" y="722"/>
      <point x="642" y="722"/>
      <point x="562" y="722" type="curve"/>
      <point x="577" y="481"/>
      <point x="588" y="241"/>
      <point x="603" y="0" type="curve"/>
      <point x="690" y="0"/>
      <point x="603" y="0"/>
    </contour>
    <contour>
      <point x="179" y="0" type="curve"/>
      <point x="193" y="241"/>
      <point x="206" y="481"/>
      <point x="220" y="722" type="curve"/>
      <point x="146" y="722"/>
      <point x="220" y="722"/>
      <point x="146" y="722" type="curve"/>
      <point x="131" y="481"/>
      <point x="117" y="241"/>
      <point x="103" y="0" type="curve"/>
      <point x="179" y="0"/>
      <point x="103" y="0"/>
    </contour>
    <contour>
      <point x="426" y="0" type="curve"/>
      <point x="358" y="241"/>
      <point x="290" y="481"/>
      <point x="222" y="722" type="curve"/>
      <point x="147" y="722"/>
      <point x="222" y="722"/>
      <point x="147" y="722" type="curve"/>
      <point x="215" y="481"/>
      <point x="283" y="241"/>
      <point x="351" y="0" type="curve"/>
      <point x="426" y="0"/>
      <point x="351" y="0"/>
    </contour>
    <contour>
      <point x="433" y="0" type="curve"/>
      <point x="500" y="241"/>
      <point x="567" y="481"/>
      <point x="633" y="722" type="curve"/>
      <point x="559" y="722"/>
      <point x="633" y="722"/>
      <point x="559" y="722" type="curve"/>
      <point x="491" y="481"/>
      <point x="424" y="241"/>
      <point x="357" y="0" type="curve"/>
      <point x="433" y="0"/>
      <point x="357" y="0"/>
    </contour>
  </outline>
</glyph>
<glyph name="O" format="1">
  <advance width="620"/>
  <unicode hex="004F"/>
  <outline>
    <contour>
      <point x="310" y="801" type="move" name="top"/>
    </contour>
    <contour>
      <point x="144" y="360" type="curve"/>
      <point x="144" y="517"/>
      <point x="170" y="655"/>
      <point x="308" y="655" type="curve"/>
      <point x="443" y="655"/>
      <point x="476" y="520"/>
      <point x="476" y="363" type="curve"/>
      <point x="476" y="206"/>
      <point x="449" y="67"/>
      <point x="312" y="67" type="curve"/>
      <point x="175" y="67"/>
      <point x="144" y="202"/>
      <point x="144" y="360" type="curve"/>
      <point x="56" y="360"/>
      <point x="144" y="360"/>
      <point x="56" y="360" type="curve"/>
      <point x="56" y="156"/>
      <point x="126" y="-5"/>
      <point x="309" y="-5" type="curve"/>
      <point x="493" y="-5"/>
      <point x="564" y="158"/>
      <point x="564" y="363" type="curve"/>
      <point x="564" y="565"/>
      <point x="495" y="727"/>
      <point x="312" y="727" type="curve"/>
      <point x="128" y="727"/>
      <point x="56" y="564"/>
      <point x="56" y="360" type="curve"/>
      <point x="144" y="360"/>
      <point x="56" y="360"/>
    </contour>
  </outline>
</glyph>
<glyph name="U" format="1">
  <advance width="677"/>
  <unicode hex="0055"/>
  <outline>
    <contour>
      <point x="342" y="801" type="move" name="top"/>
    </contour>
    <contour>
      <point x="372" y="-34" type="move" name="bottom"/>
    </contour>
    <contour>
      <point x="521" y="653" type="curve"/>
      <point x="649" y="653"/>
      <point x="517" y="653"/>
      <point x="645" y="653" type="curve"/>
      <point x="645" y="722"/>
      <point x="645" y="653"/>
      <point x="645" y="722" type="curve"/>
      <point x="603" y="722"/>
      <point x="564" y="722"/>
      <point x="521" y="722" type="curve"/>
      <point x="521" y="653"/>
      <point x="521" y="722"/>
    </contour>
    <contour>
      <point x="521" y="722" type="curve"/>
      <point x="478" y="722"/>
      <point x="439" y="722"/>
      <point x="397" y="722" type="curve"/>
      <point x="397" y="653"/>
      <point x="397" y="722"/>
      <point x="397" y="653" type="curve"/>
      <point x="525" y="653"/>
      <point x="393" y="653"/>
      <point x="521" y="653" type="curve"/>
      <point x="521" y="722"/>
      <point x="521" y="653"/>
    </contour>
    <contour>
      <point x="158" y="722" type="curve"/>
      <point x="115" y="722"/>
      <point x="76" y="722"/>
      <point x="34" y="722" type="curve"/>
      <point x="34" y="653"/>
      <point x="34" y="722"/>
      <point x="34" y="653" type="curve"/>
      <point x="162" y="653"/>
      <point x="30" y="653"/>
      <point x="158" y="653" type="curve"/>
      <point x="158" y="722"/>
      <point x="158" y="653"/>
    </contour>
    <contour>
      <point x="158" y="653" type="curve"/>
      <point x="286" y="653"/>
      <point x="153" y="653"/>
      <point x="281" y="653" type="curve"/>
      <point x="281" y="722"/>
      <point x="281" y="653"/>
      <point x="281" y="722" type="curve"/>
      <point x="239" y="722"/>
      <point x="200" y="722"/>
      <point x="158" y="722" type="curve"/>
      <point x="158" y="653"/>
      <point x="158" y="722"/>
    </contour>
    <contour>
      <point x="116" y="697" type="curve"/>
      <point x="116" y="555"/>
      <point x="115" y="414"/>
      <point x="116" y="272" type="curve"/>
      <point x="116" y="100"/>
      <point x="176" y="-5"/>
      <point x="337" y="-5" type="curve"/>
      <point x="499" y="-5"/>
      <point x="561" y="101"/>
      <point x="561" y="275" type="curve"/>
      <point x="561" y="415"/>
      <point x="561" y="556"/>
      <point x="561" y="697" type="curve"/>
      <point x="482" y="697"/>
      <point x="561" y="697"/>
      <point x="481" y="697" type="curve"/>
      <point x="481" y="552"/>
      <point x="481" y="410"/>
      <point x="481" y="265" type="curve"/>
      <point x="481" y="150"/>
      <point x="445" y="71"/>
      <point x="343" y="71" type="curve"/>
      <point x="227" y="71"/>
      <point x="196" y="157"/>
      <point x="196" y="286" type="curve"/>
      <point x="196" y="423"/>
      <point x="196" y="560"/>
      <point x="196" y="697" type="curve"/>
      <point x="116" y="697"/>
      <point x="195" y="697"/>
    </contour>
  </outline>
</glyph>
<glyph name="backslash" format="1">
  <advance width="440"/>
  <unicode hex="005C"/>
  <outline>
    <contour>
      <point x="408" y="-68" type="curve"/>
      <point x="313" y="236"/>
      <point x="218" y="540"/>
      <point x="123" y="844" type="curve"/>
      <point x="32" y="844"/>
      <point x="123" y="844"/>
      <point x="32" y="844" type="curve"/>
      <point x="127" y="540"/>
      <point x="222" y="236"/>
      <point x="317" y="-68" type="curve"/>
      <point x="408" y="-68"/>
      <point x="317" y="-68"/>
    </contour>
  </outline>
</glyph>
<glyph name="asciicircum" format="1">
  <advance width="454"/>
  <unicode hex="005E"/>
  <outline>
    <contour>
      <point x="144" y="459" type="curve"/>
      <point x="186" y="567"/>
      <point x="228" y="673"/>
      <point x="271" y="780" type="curve"/>
      <point x="183" y="780"/>
      <point x="271" y="780"/>
      <point x="183" y="780" type="curve"/>
      <point x="141" y="673"/>
      <point x="99" y="567"/>
      <point x="56" y="459" type="curve"/>
      <point x="144" y="459"/>
      <point x="56" y="459"/>
    </contour>
    <contour>
      <point x="398" y="459" type="curve"/>
      <point x="357" y="564"/>
      <point x="312" y="675"/>
      <point x="271" y="780" type="curve"/>
      <point x="183" y="780"/>
      <point x="271" y="780"/>
      <point x="183" y="780" type="curve"/>
      <point x="225" y="675"/>
      <point x="269" y="564"/>
      <point x="311" y="459" type="curve"/>
      <point x="398" y="459"/>
      <point x="311" y="459"/>
    </contour>
  </outline>
</glyph>
<glyph name="underscore" format="1">
  <advance width="496"/>
  <unicode hex="005F"/>
  <outline>
    <contour>
      <point x="0" y="-196" type="curve"/>
      <point x="165" y="-196"/>
      <point x="330" y="-196"/>
      <point x="495" y="-196" type="curve"/>
      <point x="495" y="-126"/>
      <point x="495" y="-196"/>
      <point x="495" y="-126" type="curve"/>
      <point x="330" y="-126"/>
      <point x="165" y="-126"/>
      <point x="0" y="-126" type="curve"/>
      <point x="0" y="-196"/>
      <point x="0" y="-126"/>
    </contour>
  </outline>
</glyph>
<glyph name="grave" format="1">
  <advance width="336"/>
  <unicode hex="0060"/>
  <outline>
    <contour>
      <point x="195" y="590" type="move" name="_top"/>
    </contour>
    <contour>
      <point x="238" y="591" type="line"/>
      <point x="162" y="757" type="line"/>
      <point x="54" y="757" type="line"/>
      <point x="154" y="591" type="line"/>
    </contour>
  </outline>
</glyph>
<glyph name="f" format="1">
  <advance width="377"/>
  <unicode hex="0066"/>
  <outline>
    <contour>
      <point x="292" y="773" type="curve"/>
      <point x="292" y="655"/>
      <point x="292" y="777"/>
      <point x="292" y="660" type="curve"/>
      <point x="361" y="660"/>
      <point x="292" y="660"/>
      <point x="361" y="660" type="curve"/>
      <point x="361" y="777"/>
      <point x="361" y="655"/>
      <point x="361" y="773" type="curve"/>
      <point x="292" y="773"/>
      <point x="361" y="773"/>
    </contour>
    <contour>
      <point x="165" y="-1" type="curve"/>
      <point x="207" y="-1"/>
      <point x="246" y="0"/>
      <point x="289" y="0" type="curve"/>
      <point x="289" y="69"/>
      <point x="289" y="0"/>
      <point x="289" y="69" type="curve"/>
      <point x="161" y="69"/>
      <point x="293" y="69"/>
      <point x="165" y="69" type="curve"/>
      <point x="165" y="-1"/>
      <point x="165" y="69"/>
    </contour>
    <contour>
      <point x="165" y="69" type="curve"/>
      <point x="36" y="69"/>
      <point x="169" y="69"/>
      <point x="40" y="69" type="curve"/>
      <point x="40" y="0"/>
      <point x="40" y="69"/>
      <point x="40" y="0" type="curve"/>
      <point x="83" y="0"/>
      <point x="122" y="-1"/>
      <point x="165" y="-1" type="curve"/>
      <point x="165" y="69"/>
      <point x="165" y="-1"/>
    </contour>
    <contour>
      <point x="30" y="464" type="curve"/>
      <point x="322" y="464" type="line"/>
      <point x="322" y="533"/>
      <point x="322" y="464"/>
      <point x="322" y="533" type="curve"/>
      <point x="30" y="533" type="line"/>
      <point x="30" y="464"/>
      <point x="30" y="533"/>
    </contour>
    <contour>
      <point x="208" y="0" type="curve"/>
      <point x="208" y="621" type="line"/>
      <point x="208" y="683"/>
      <point x="216" y="739"/>
      <point x="269" y="739" type="curve"/>
      <point x="291" y="739"/>
      <point x="309" y="729"/>
      <point x="326" y="718" type="curve"/>
      <point x="361" y="773"/>
      <point x="326" y="718"/>
      <point x="361" y="773" type="curve"/>
      <point x="334" y="791"/>
      <point x="302" y="805"/>
      <point x="269" y="805" type="curve"/>
      <point x="170" y="805"/>
      <point x="120" y="726"/>
      <point x="121" y="621" type="curve"/>
      <point x="121" y="0" type="line"/>
      <point x="208" y="0"/>
      <point x="121" y="0"/>
    </contour>
  </outline>
</glyph>
<glyph name="h" format="1">
  <advance width="532"/>
  <unicode hex="0068"/>
  <outline>
    <contour>
      <point x="402" y="-1" type="curve"/>
      <point x="446" y="-1"/>
      <point x="485" y="0"/>
      <point x="528" y="0" type="curve"/>
      <point x="528" y="69"/>
      <point x="528" y="0"/>
      <point x="528" y="69" type="curve"/>
      <point x="398" y="69"/>
      <point x="532" y="69"/>
      <point x="402" y="69" type="curve"/>
      <point x="402" y="-1"/>
      <point x="402" y="69"/>
    </contour>
    <contour>
      <point x="133" y="-1" type="curve"/>
      <point x="169" y="-1"/>
      <point x="129" y="-1"/>
      <point x="240" y="0" type="curve"/>
      <point x="240" y="69"/>
      <point x="240" y="0"/>
      <point x="240" y="69" type="curve"/>
      <point x="129" y="69"/>
      <point x="243" y="69"/>
      <point x="133" y="69" type="curve"/>
      <point x="133" y="-1"/>
      <point x="133" y="69"/>
    </contour>
    <contour>
      <point x="133" y="799" type="curve"/>
      <point x="90" y="799"/>
      <point x="50" y="800"/>
      <point x="8" y="800" type="curve"/>
      <point x="7" y="731"/>
      <point x="8" y="800"/>
      <point x="7" y="731" type="curve"/>
      <point x="137" y="731"/>
      <point x="3" y="731"/>
      <point x="133" y="731" type="curve"/>
      <point x="133" y="799"/>
      <point x="133" y="731"/>
    </contour>
    <contour>
      <point x="133" y="69" type="curve"/>
      <point x="3" y="69"/>
      <point x="137" y="69"/>
      <point x="8" y="69" type="curve"/>
      <point x="7" y="0"/>
      <point x="8" y="69"/>
      <point x="7" y="0" type="curve"/>
      <point x="50" y="0"/>
      <point x="90" y="-1"/>
      <point x="133" y="-1" type="curve"/>
      <point x="133" y="69"/>
      <point x="133" y="-1"/>
    </contour>
    <contour>
      <point x="156" y="325" type="curve"/>
      <point x="173" y="392"/>
      <point x="214" y="467"/>
      <point x="280" y="467" type="curve"/>
      <point x="351" y="467"/>
      <point x="359" y="402"/>
      <point x="359" y="323" type="curve"/>
      <point x="359" y="216"/>
      <point x="359" y="108"/>
      <point x="359" y="0" type="curve"/>
      <point x="447" y="0"/>
      <point x="359" y="0"/>
      <point x="447" y="0" type="curve"/>
      <point x="447" y="110"/>
      <point x="447" y="220"/>
      <point x="447" y="331" type="curve"/>
      <point x="447" y="449"/>
      <point x="415" y="535"/>
      <point x="304" y="535" type="curve"/>
      <point x="215" y="535"/>
      <point x="149" y="454"/>
      <point x="132" y="363" type="curve"/>
      <point x="158" y="327"/>
      <point x="130" y="361"/>
    </contour>
    <contour>
      <point x="176" y="0" type="curve"/>
      <point x="176" y="267"/>
      <point x="176" y="533"/>
      <point x="176" y="800" type="curve"/>
      <point x="89" y="800"/>
      <point x="176" y="800"/>
      <point x="89" y="800" type="curve"/>
      <point x="89" y="533"/>
      <point x="89" y="267"/>
      <point x="89" y="0" type="curve"/>
      <point x="176" y="0"/>
      <point x="89" y="0"/>
    </contour>
  </outline>
</glyph>
<glyph name="i" format="1">
  <advance width="289"/>
  <unicode hex="0069"/>
  <outline>
    <contour>
      <point x="152" y="639" type="move" name="top"/>
    </contour>
    <contour>
      <point x="196" y="2" type="move" name="bottom"/>
    </contour>
    <contour>
      <point x="156" y="69" type="curve"/>
      <point x="26" y="69"/>
      <point x="160" y="69"/>
      <point x="30" y="69" type="curve"/>
      <point x="30" y="0"/>
      <point x="30" y="69"/>
      <point x="30" y="0" type="curve"/>
      <point x="73" y="0"/>
      <point x="112" y="0"/>
      <point x="156" y="0" type="curve"/>
      <point x="156" y="69"/>
      <point x="156" y="0"/>
    </contour>
    <contour>
      <point x="156" y="0" type="curve"/>
      <point x="196" y="0"/>
      <point x="233" y="0"/>
      <point x="274" y="0" type="curve"/>
      <point x="274" y="69"/>
      <point x="274" y="0"/>
      <point x="274" y="69" type="curve"/>
      <point x="151" y="69"/>
      <point x="278" y="69"/>
      <point x="156" y="69" type="curve"/>
      <point x="156" y="0"/>
      <point x="156" y="69"/>
    </contour>
    <contour>
      <point x="156" y="533" type="curve"/>
      <point x="112" y="533"/>
      <point x="73" y="533"/>
      <point x="30" y="533" type="curve"/>
      <point x="30" y="464"/>
      <point x="30" y="533"/>
      <point x="30" y="464" type="curve"/>
      <point x="160" y="464"/>
      <point x="26" y="464"/>
      <point x="156" y="464" type="curve"/>
      <point x="156" y="533"/>
      <point x="156" y="464"/>
    </contour>
    <contour>
      <point x="202" y="0" type="curve"/>
      <point x="202" y="178"/>
      <point x="202" y="355"/>
      <point x="202" y="533" type="curve"/>
      <point x="110" y="533"/>
      <point x="202" y="533"/>
      <point x="110" y="533" type="curve"/>
      <point x="110" y="355"/>
      <point x="110" y="178"/>
      <point x="110" y="0" type="curve"/>
      <point x="202" y="0"/>
      <point x="110" y="0"/>
    </contour>
    <contour>
      <point x="200" y="681" type="curve"/>
      <point x="200" y="712"/>
      <point x="180" y="728"/>
      <point x="152" y="728" type="curve"/>
      <point x="123" y="728"/>
      <point x="105" y="710"/>
      <point x="105" y="681" type="curve"/>
      <point x="200" y="681"/>
      <point x="105" y="681"/>
      <point x="200" y="681" type="curve"/>
      <point x="200" y="650"/>
      <point x="181" y="636"/>
      <point x="152" y="636" type="curve"/>
      <point x="123" y="636"/>
      <point x="105" y="651"/>
      <point x="105" y="681" type="curve"/>
      <point x="200" y="681"/>
      <point x="105" y="681"/>
    </contour>
  </outline>
</glyph>
<glyph name="m" format="1">
  <advance width="798"/>
  <unicode hex="006D"/>
  <outline>
    <contour>
      <point x="409" y="0" type="curve"/>
      <point x="519" y="0"/>
      <point x="410" y="0"/>
      <point x="520" y="0" type="curve"/>
      <point x="520" y="69"/>
      <point x="520" y="0"/>
      <point x="520" y="69" type="curve"/>
      <point x="410" y="69"/>
      <point x="519" y="69"/>
      <point x="409" y="69" type="curve"/>
      <point x="409" y="0"/>
      <point x="409" y="69"/>
    </contour>
    <contour>
      <point x="651" y="0" type="curve"/>
      <point x="694" y="0"/>
      <point x="733" y="0"/>
      <point x="777" y="0" type="curve"/>
      <point x="777" y="69"/>
      <point x="777" y="0"/>
      <point x="777" y="69" type="curve"/>
      <point x="647" y="69"/>
      <point x="781" y="69"/>
      <point x="651" y="69" type="curve"/>
      <point x="651" y="0"/>
      <point x="651" y="69"/>
    </contour>
    <contour>
      <point x="168" y="69" type="curve"/>
      <point x="38" y="69"/>
      <point x="172" y="69"/>
      <point x="43" y="69" type="curve"/>
      <point x="42" y="0"/>
      <point x="43" y="69"/>
      <point x="42" y="0" type="curve"/>
      <point x="85" y="0"/>
      <point x="125" y="0"/>
      <point x="168" y="0" type="curve"/>
      <point x="168" y="69"/>
      <point x="168" y="0"/>
    </contour>
    <contour>
      <point x="168" y="0" type="curve"/>
      <point x="206" y="0"/>
      <point x="159" y="0"/>
      <point x="274" y="0" type="curve"/>
      <point x="274" y="69"/>
      <point x="274" y="0"/>
      <point x="274" y="69" type="curve"/>
      <point x="159" y="69"/>
      <point x="283" y="69"/>
      <point x="168" y="69" type="curve"/>
      <point x="168" y="0"/>
      <point x="168" y="69"/>
    </contour>
    <contour>
      <point x="168" y="533" type="curve"/>
      <point x="125" y="533"/>
      <point x="85" y="533"/>
      <point x="43" y="533" type="curve"/>
      <point x="42" y="464"/>
      <point x="43" y="533"/>
      <point x="42" y="464" type="curve"/>
      <point x="172" y="464"/>
      <point x="38" y="464"/>
      <point x="168" y="464" type="curve"/>
      <point x="168" y="533"/>
      <point x="168" y="464"/>
    </contour>
    <contour>
      <point x="433" y="310" type="curve"/>
      <point x="453" y="386"/>
      <point x="477" y="467"/>
      <point x="540" y="467" type="curve"/>
      <point x="611" y="467"/>
      <point x="606" y="406"/>
      <point x="606" y="323" type="curve"/>
      <point x="606" y="216"/>
      <point x="606" y="108"/>
      <point x="606" y="0" type="curve"/>
      <point x="694" y="0"/>
      <point x="606" y="0"/>
      <point x="694" y="0" type="curve"/>
      <point x="694" y="110"/>
      <point x="694" y="220"/>
      <point x="694" y="331" type="curve"/>
      <point x="694" y="454"/>
      <point x="684" y="538"/>
      <point x="569" y="538" type="curve"/>
      <point x="479" y="538"/>
      <point x="430" y="454"/>
      <point x="408" y="350" type="curve"/>
      <point x="435" y="311"/>
      <point x="405" y="348"/>
    </contour>
    <contour>
      <point x="192" y="310" type="curve"/>
      <point x="209" y="384"/>
      <point x="233" y="467"/>
      <point x="298" y="467" type="curve"/>
      <point x="369" y="467"/>
      <point x="365" y="406"/>
      <point x="365" y="323" type="curve"/>
      <point x="365" y="216"/>
      <point x="365" y="108"/>
      <point x="365" y="0" type="curve"/>
      <point x="453" y="0"/>
      <point x="365" y="0"/>
      <point x="453" y="0" type="curve"/>
      <point x="453" y="110"/>
      <point x="453" y="220"/>
      <point x="453" y="331" type="curve"/>
      <point x="453" y="454"/>
      <point x="443" y="538"/>
      <point x="328" y="538" type="curve"/>
      <point x="236" y="538"/>
      <point x="190" y="455"/>
      <point x="167" y="350" type="curve"/>
      <point x="194" y="311"/>
      <point x="164" y="348"/>
    </contour>
    <contour>
      <point x="211" y="0" type="curve"/>
      <point x="211" y="178"/>
      <point x="211" y="355"/>
      <point x="211" y="533" type="curve"/>
      <point x="124" y="533"/>
      <point x="211" y="533"/>
      <point x="124" y="533" type="curve"/>
      <point x="124" y="355"/>
      <point x="124" y="178"/>
      <point x="124" y="0" type="curve"/>
      <point x="211" y="0"/>
      <point x="124" y="0"/>
    </contour>
  </outline>
</glyph>
<glyph name="p" format="1">
  <advance width="535"/>
  <unicode hex="0070"/>
  <outline>
    <contour>
      <point x="131" y="-231" type="curve"/>
      <point x="2" y="-231"/>
      <point x="136" y="-231"/>
      <point x="6" y="-231" type="curve"/>
      <point x="6" y="-300"/>
      <point x="6" y="-231"/>
      <point x="6" y="-300" type="curve"/>
      <point x="49" y="-300"/>
      <point x="88" y="-300"/>
      <point x="131" y="-300" type="curve"/>
      <point x="131" y="-231"/>
      <point x="131" y="-300"/>
    </contour>
    <contour>
      <point x="131" y="-300" type="curve"/>
      <point x="172" y="-300"/>
      <point x="209" y="-300"/>
      <point x="250" y="-300" type="curve"/>
      <point x="250" y="-231"/>
      <point x="250" y="-300"/>
      <point x="250" y="-231" type="curve"/>
      <point x="127" y="-231"/>
      <point x="254" y="-231"/>
      <point x="131" y="-231" type="curve"/>
      <point x="131" y="-300"/>
      <point x="131" y="-231"/>
    </contour>
    <contour>
      <point x="132" y="533" type="curve"/>
      <point x="89" y="533"/>
      <point x="50" y="533"/>
      <point x="7" y="533" type="curve"/>
      <point x="7" y="464"/>
      <point x="7" y="533"/>
      <point x="7" y="464" type="curve"/>
      <point x="137" y="464"/>
      <point x="3" y="464"/>
      <point x="132" y="464" type="curve"/>
      <point x="132" y="533"/>
      <point x="132" y="464"/>
    </contour>
    <contour>
      <point x="156" y="347" type="curve"/>
      <point x="172" y="402"/>
      <point x="221" y="468"/>
      <point x="281" y="468" type="curve"/>
      <point x="380" y="468"/>
      <point x="399" y="373"/>
      <point x="399" y="268" type="curve"/>
      <point x="400" y="160"/>
      <point x="378" y="64"/>
      <point x="283" y="64" type="curve"/>
      <point x="227" y="64"/>
      <point x="189" y="97"/>
      <point x="160" y="143" type="curve"/>
      <point x="126" y="106"/>
      <point x="160" y="143"/>
      <point x="126" y="106" type="curve"/>
      <point x="169" y="37"/>
      <point x="220" y="-5"/>
      <point x="299" y="-5" type="curve"/>
      <point x="442" y="-5"/>
      <point x="486" y="123"/>
      <point x="486" y="272" type="curve"/>
      <point x="486" y="415"/>
      <point x="441" y="539"/>
      <point x="300" y="539" type="curve"/>
      <point x="218" y="539"/>
      <point x="159" y="471"/>
      <point x="131" y="406" type="curve"/>
      <point x="157" y="348"/>
      <point x="130" y="405"/>
    </contour>
    <contour>
      <point x="175" y="-300" type="curve"/>
      <point x="175" y="-22"/>
      <point x="175" y="255"/>
      <point x="175" y="533" type="curve"/>
      <point x="88" y="533"/>
      <point x="175" y="533"/>
      <point x="88" y="533" type="curve"/>
      <point x="88" y="255"/>
      <point x="88" y="-22"/>
      <point x="88" y="-300" type="curve"/>
      <point x="175" y="-300"/>
      <point x="88" y="-300"/>
    </contour>
  </outline>
</glyph>
<glyph name="q" format="1">
  <advance width="546"/>
  <unicode hex="0071"/>
  <outline>
    <contour>
      <point x="405" y="464" type="curve"/>
      <point x="526" y="464"/>
      <point x="401" y="464"/>
      <point x="522" y="464" type="curve"/>
      <point x="522" y="533"/>
      <point x="522" y="464"/>
      <point x="522" y="533" type="curve"/>
      <point x="482" y="533"/>
      <point x="445" y="533"/>
      <point x="405" y="533" type="curve"/>
      <point x="405" y="464"/>
      <point x="405" y="533"/>
    </contour>
    <contour>
      <point x="404" y="-231" type="curve"/>
      <point x="274" y="-231"/>
      <point x="408" y="-231"/>
      <point x="278" y="-231" type="curve"/>
      <point x="278" y="-300"/>
      <point x="278" y="-231"/>
      <point x="278" y="-300" type="curve"/>
      <point x="322" y="-300"/>
      <point x="360" y="-300"/>
      <point x="404" y="-300" type="curve"/>
      <point x="404" y="-231"/>
      <point x="404" y="-300"/>
    </contour>
    <contour>
      <point x="404" y="-300" type="curve"/>
      <point x="444" y="-300"/>
      <point x="481" y="-300"/>
      <point x="522" y="-300" type="curve"/>
      <point x="522" y="-231"/>
      <point x="522" y="-300"/>
      <point x="522" y="-231" type="curve"/>
      <point x="399" y="-231"/>
      <point x="526" y="-231"/>
      <point x="404" y="-231" type="curve"/>
      <point x="404" y="-300"/>
      <point x="404" y="-231"/>
    </contour>
    <contour>
      <point x="407" y="413" type="curve"/>
      <point x="373" y="491"/>
      <point x="309" y="538"/>
      <point x="236" y="538" type="curve"/>
      <point x="93" y="538"/>
      <point x="49" y="412"/>
      <point x="49" y="265" type="curve"/>
      <point x="50" y="117"/>
      <point x="99" y="-5"/>
      <point x="241" y="-5" type="curve"/>
      <point x="314" y="-5"/>
      <point x="373" y="54"/>
      <point x="406" y="123" type="curve"/>
      <point x="377" y="161"/>
      <point x="406" y="125"/>
      <point x="378" y="163" type="curve"/>
      <point x="353" y="110"/>
      <point x="308" y="63"/>
      <point x="253" y="63" type="curve"/>
      <point x="159" y="63"/>
      <point x="137" y="161"/>
      <point x="137" y="268" type="curve"/>
      <point x="137" y="372"/>
      <point x="160" y="467"/>
      <point x="251" y="467" type="curve"/>
      <point x="301" y="467"/>
      <point x="346" y="439"/>
      <point x="381" y="372" type="curve"/>
      <point x="402" y="413"/>
      <point x="386" y="372"/>
    </contour>
    <contour>
      <point x="449" y="-300" type="curve"/>
      <point x="449" y="-22"/>
      <point x="449" y="255"/>
      <point x="449" y="533" type="curve"/>
      <point x="358" y="533"/>
      <point x="449" y="533"/>
      <point x="358" y="533" type="curve"/>
      <point x="358" y="255"/>
      <point x="358" y="-22"/>
      <point x="358" y="-300" type="curve"/>
      <point x="449" y="-300"/>
      <point x="358" y="-300"/>
    </contour>
  </outline>
</glyph>
<glyph name="t" format="1">
  <advance width="323"/>
  <unicode hex="0074"/>
  <outline>
    <contour>
      <point x="233" y="-34" type="move" name="bottom"/>
    </contour>
    <contour>
      <point x="16" y="463" type="curve"/>
      <point x="300" y="463" type="line"/>
      <point x="300" y="532"/>
      <point x="300" y="463"/>
      <point x="300" y="532" type="curve"/>
      <point x="16" y="532" type="line"/>
      <point x="16" y="463"/>
      <point x="16" y="532"/>
    </contour>
    <contour>
      <point x="268" y="88" type="curve"/>
      <point x="252" y="75"/>
      <point x="239" y="67"/>
      <point x="219" y="67" type="curve"/>
      <point x="176" y="67"/>
      <point x="171" y="108"/>
      <point x="171" y="161" type="curve"/>
      <point x="171" y="680" type="line"/>
      <point x="95" y="633"/>
      <point x="160" y="669"/>
      <point x="84" y="621" type="curve"/>
      <point x="84" y="157" type="line"/>
      <point x="84" y="58"/>
      <point x="119" y="-6"/>
      <point x="207" y="-6" type="curve"/>
      <point x="245" y="-6"/>
      <point x="272" y="7"/>
      <point x="305" y="28" type="curve"/>
      <point x="268" y="88"/>
      <point x="305" y="28"/>
    </contour>
  </outline>
</glyph>
<glyph name="z" format="1">
  <advance width="434"/>
  <unicode hex="007A"/>
  <outline>
    <contour>
      <point x="223" y="639" type="move" name="top"/>
    </contour>
    <contour>
      <point x="57" y="464" type="curve"/>
      <point x="156" y="464"/>
      <point x="251" y="464"/>
      <point x="350" y="464" type="curve"/>
      <point x="343" y="471"/>
      <point x="331" y="471"/>
      <point x="324" y="478" type="curve"/>
      <point x="318" y="483"/>
      <point x="319" y="494"/>
      <point x="312" y="500" type="curve"/>
      <point x="307" y="492"/>
      <point x="296" y="496"/>
      <point x="291" y="490" type="curve"/>
      <point x="44" y="69" type="line"/>
      <point x="44" y="33"/>
      <point x="44" y="69"/>
      <point x="44" y="33" type="curve"/>
      <point x="44" y="0"/>
      <point x="44" y="33"/>
      <point x="44" y="0" type="curve"/>
      <point x="75" y="0"/>
      <point x="44" y="0"/>
      <point x="75" y="0" type="curve"/>
      <point x="396" y="0"/>
      <point x="288" y="0"/>
      <point x="395" y="0" type="curve"/>
      <point x="395" y="69"/>
      <point x="395" y="0"/>
      <point x="395" y="69" type="curve"/>
      <point x="288" y="69"/>
      <point x="182" y="69"/>
      <point x="75" y="69" type="curve"/>
      <point x="82" y="64"/>
      <point x="92" y="63"/>
      <point x="98" y="58" type="curve"/>
      <point x="105" y="52"/>
      <point x="105" y="40"/>
      <point x="112" y="33" type="curve"/>
      <point x="118" y="41"/>
      <point x="127" y="37"/>
      <point x="132" y="43" type="curve"/>
      <point x="383" y="464" type="line"/>
      <point x="383" y="500"/>
      <point x="383" y="464"/>
      <point x="383" y="500" type="curve"/>
      <point x="383" y="533"/>
      <point x="383" y="500"/>
      <point x="383" y="533" type="curve"/>
      <point x="350" y="533"/>
      <point x="383" y="533"/>
      <point x="350" y="533" type="curve"/>
      <point x="251" y="533"/>
      <point x="156" y="533"/>
      <point x="57" y="533" type="curve"/>
      <point x="57" y="464"/>
      <point x="57" y="533"/>
    </contour>
    <contour>
      <point x="57" y="499" type="curve"/>
      <point x="57" y="379"/>
      <point x="57" y="503"/>
      <point x="57" y="383" type="curve"/>
      <point x="126" y="383"/>
      <point x="57" y="383"/>
      <point x="126" y="383" type="curve"/>
      <point x="126" y="503"/>
      <point x="126" y="379"/>
      <point x="126" y="499" type="curve"/>
      <point x="57" y="499"/>
      <point x="126" y="499"/>
    </contour>
    <contour>
      <point x="395" y="34" type="curve"/>
      <point x="395" y="154"/>
      <point x="395" y="30"/>
      <point x="395" y="150" type="curve"/>
      <point x="325" y="150"/>
      <point x="395" y="150"/>
      <point x="325" y="150" type="curve"/>
      <point x="325" y="30"/>
      <point x="325" y="154"/>
      <point x="325" y="34" type="curve"/>
      <point x="395" y="34"/>
      <point x="325" y="34"/>
    </contour>
  </outline>
</glyph>
<glyph name="bar" format="1">
  <advance width="236"/>
  <unicode hex="007C"/>
  <outline>
    <contour>
      <point x="162" y="-300" type="curve"/>
      <point x="162" y="67"/>
      <point x="162" y="433"/>
      <point x="162" y="800" type="curve"/>
      <point x="75" y="800"/>
      <point x="162" y="800"/>
      <point x="75" y="800" type="curve"/>
      <point x="75" y="433"/>
      <point x="75" y="67"/>
      <point x="75" y="-300" type="curve"/>
      <point x="162" y="-300"/>
      <point x="75" y="-300"/>
    </contour>
  </outline>
</glyph>
<glyph name="braceright" format="1">
  <advance width="251"/>
  <unicode hex="007D"/>
  <outline>
    <contour>
      <point x="46" y="-115" type="curve"/>
      <point x="133" y="-115"/>
      <point x="171" y="-44"/>
      <point x="171" y="51" type="curve"/>
      <point x="171" y="106"/>
      <point x="171" y="162"/>
      <point x="171" y="218" type="curve"/>
      <point x="171" y="264"/>
      <point x="175" y="304"/>
      <point x="214" y="304" type="curve"/>
      <point x="214" y="376"/>
      <point x="214" y="304"/>
      <point x="214" y="376" type="curve"/>
      <point x="129" y="376"/>
      <point x="91" y="304"/>
      <point x="91" y="212" type="curve"/>
      <point x="91" y="157"/>
      <point x="91" y="102"/>
      <point x="91" y="47" type="curve"/>
      <point x="91" y="-2"/>
      <point x="90" y="-47"/>
      <point x="46" y="-47" type="curve"/>
      <point x="46" y="-115"/>
      <point x="46" y="-47"/>
    </contour>
    <contour>
      <point x="46" y="725" type="curve"/>
      <point x="90" y="725"/>
      <point x="91" y="681"/>
      <point x="91" y="631" type="curve"/>
      <point x="91" y="577"/>
      <point x="91" y="523"/>
      <point x="91" y="469" type="curve"/>
      <point x="91" y="374"/>
      <point x="128" y="304"/>
      <point x="214" y="304" type="curve"/>
      <point x="214" y="376"/>
      <point x="214" y="304"/>
      <point x="214" y="376" type="curve"/>
      <point x="176" y="376"/>
      <point x="171" y="414"/>
      <point x="171" y="459" type="curve"/>
      <point x="171" y="516"/>
      <point x="171" y="574"/>
      <point x="171" y="631" type="curve"/>
      <point x="171" y="725"/>
      <point x="133" y="795"/>
      <point x="46" y="795" type="curve"/>
      <point x="46" y="725"/>
      <point x="46" y="795"/>
    </contour>
  </outline>
</glyph>
<glyph name="exclamdown" format="1">
  <advance width="241"/>
  <unicode hex="00A1"/>
  <outline>
    <contour>
      <point x="77" y="298" type="line"/>
      <point x="70" y="-195" type="line"/>
      <point x="171" y="-195" type="line"/>
      <point x="165" y="298" type="line"/>
    </contour>
    <contour>
      <point x="74" y="489" type="curve"/>
      <point x="74" y="458"/>
      <point x="94" y="442"/>
      <point x="122" y="442" type="curve"/>
      <point x="150" y="442"/>
      <point x="169" y="459"/>
      <point x="169" y="488" type="curve"/>
      <point x="74" y="489"/>
      <point x="169" y="488"/>
      <point x="74" y="489" type="curve"/>
      <point x="74" y="520"/>
      <point x="94" y="534"/>
      <point x="122" y="534" type="curve"/>
      <point x="152" y="534"/>
      <point x="169" y="518"/>
      <point x="169" y="488" type="curve"/>
      <point x="74" y="489"/>
      <point x="169" y="488"/>
    </contour>
  </outline>
</glyph>
<glyph name="cent" format="1">
  <advance width="526"/>
  <unicode hex="00A2"/>
  <outline>
    <contour>
      <point x="321" y="-53" type="curve"/>
      <point x="321" y="-13"/>
      <point x="321" y="27"/>
      <point x="321" y="67" type="curve"/>
      <point x="233" y="67"/>
      <point x="321" y="67"/>
      <point x="233" y="67" type="curve"/>
      <point x="233" y="27"/>
      <point x="233" y="-13"/>
      <point x="233" y="-53" type="curve"/>
      <point x="321" y="-53"/>
      <point x="233" y="-53"/>
    </contour>
    <contour>
      <point x="249" y="778" type="curve"/>
      <point x="249" y="742"/>
      <point x="249" y="706"/>
      <point x="249" y="670" type="curve"/>
      <point x="336" y="670"/>
      <point x="249" y="670"/>
      <point x="336" y="670" type="curve"/>
      <point x="336" y="706"/>
      <point x="336" y="742"/>
      <point x="336" y="778" type="curve"/>
      <point x="249" y="778"/>
      <point x="336" y="778"/>
    </contour>
    <contour>
      <point x="472" y="607" type="curve"/>
      <point x="418" y="661"/>
      <point x="369" y="683"/>
      <point x="299" y="683" type="curve"/>
      <point x="130" y="683"/>
      <point x="51" y="547"/>
      <point x="51" y="364" type="curve"/>
      <point x="51" y="187"/>
      <point x="113" y="49"/>
      <point x="273" y="49" type="curve"/>
      <point x="357" y="49"/>
      <point x="413" y="79"/>
      <point x="470" y="147" type="curve"/>
      <point x="416" y="198"/>
      <point x="470" y="147"/>
      <point x="416" y="198" type="curve"/>
      <point x="376" y="154"/>
      <point x="341" y="121"/>
      <point x="281" y="121" type="curve"/>
      <point x="170" y="121"/>
      <point x="139" y="234"/>
      <point x="139" y="368" type="curve"/>
      <point x="139" y="502"/>
      <point x="181" y="611"/>
      <point x="291" y="611" type="curve"/>
      <point x="346" y="611"/>
      <point x="382" y="590"/>
      <point x="421" y="552" type="curve"/>
      <point x="472" y="607"/>
      <point x="421" y="552"/>
    </contour>
    <contour>
      <point x="402" y="607" type="curve"/>
      <point x="402" y="487"/>
      <point x="402" y="596"/>
      <point x="402" y="476" type="curve"/>
      <point x="472" y="476"/>
      <point x="402" y="476"/>
      <point x="472" y="476" type="curve"/>
      <point x="472" y="596"/>
      <point x="472" y="487"/>
      <point x="472" y="607" type="curve"/>
      <point x="402" y="607"/>
      <point x="472" y="607"/>
    </contour>
  </outline>
</glyph>
<glyph name="brokenbar" format="1">
  <advance width="257"/>
  <unicode hex="00A6"/>
  <outline>
    <contour>
      <point x="172" y="-300" type="curve"/>
      <point x="172" y="-176"/>
      <point x="172" y="-52"/>
      <point x="172" y="72" type="curve"/>
      <point x="85" y="72"/>
      <point x="172" y="72"/>
      <point x="85" y="72" type="curve"/>
      <point x="85" y="-52"/>
      <point x="85" y="-176"/>
      <point x="85" y="-300" type="curve"/>
      <point x="172" y="-300"/>
      <point x="85" y="-300"/>
    </contour>
    <contour>
      <point x="172" y="428" type="curve"/>
      <point x="172" y="552"/>
      <point x="172" y="676"/>
      <point x="172" y="800" type="curve"/>
      <point x="85" y="800"/>
      <point x="172" y="800"/>
      <point x="85" y="800" type="curve"/>
      <point x="85" y="676"/>
      <point x="85" y="552"/>
      <point x="85" y="428" type="curve"/>
      <point x="172" y="428"/>
      <point x="85" y="428"/>
    </contour>
  </outline>
</glyph>
<glyph name="dieresis" format="1">
  <advance width="353"/>
  <unicode hex="00A8"/>
  <outline>
    <contour>
      <point x="157" y="628" type="move" name="_top"/>
    </contour>
    <contour>
      <point x="132" y="670" type="curve"/>
      <point x="132" y="700"/>
      <point x="112" y="716"/>
      <point x="83" y="716" type="curve"/>
      <point x="55" y="716"/>
      <point x="37" y="699"/>
      <point x="37" y="670" type="curve"/>
      <point x="132" y="670"/>
      <point x="37" y="670"/>
      <point x="132" y="670" type="curve"/>
      <point x="132" y="638"/>
      <point x="112" y="624"/>
      <point x="83" y="624" type="curve"/>
      <point x="55" y="624"/>
      <point x="37" y="639"/>
      <point x="37" y="670" type="curve"/>
      <point x="132" y="670"/>
      <point x="37" y="670"/>
    </contour>
    <contour>
      <point x="277" y="670" type="curve"/>
      <point x="277" y="700"/>
      <point x="258" y="716"/>
      <point x="229" y="716" type="curve"/>
      <point x="200" y="716"/>
      <point x="182" y="699"/>
      <point x="182" y="670" type="curve"/>
      <point x="277" y="670"/>
      <point x="182" y="670"/>
      <point x="277" y="670" type="curve"/>
      <point x="277" y="638"/>
      <point x="258" y="624"/>
      <point x="229" y="624" type="curve"/>
      <point x="200" y="624"/>
      <point x="182" y="639"/>
      <point x="182" y="670" type="curve"/>
      <point x="277" y="670"/>
      <point x="182" y="670"/>
    </contour>
  </outline>
</glyph>
<glyph name="guillemotleft" format="1">
  <advance width="478"/>
  <unicode hex="00AB"/>
  <outline>
    <contour>
      <point x="227" y="447" type="curve"/>
      <point x="205" y="429"/>
      <point x="80" y="344"/>
      <point x="57" y="325" type="curve"/>
      <point x="57" y="249"/>
      <point x="57" y="315"/>
      <point x="57" y="238" type="curve"/>
      <point x="80" y="257"/>
      <point x="205" y="348"/>
      <point x="227" y="366" type="curve"/>
      <point x="227" y="442"/>
      <point x="227" y="372"/>
    </contour>
    <contour>
      <point x="228" y="199" type="curve"/>
      <point x="205" y="217"/>
      <point x="80" y="307"/>
      <point x="57" y="325" type="curve"/>
      <point x="57" y="249"/>
      <point x="57" y="315"/>
      <point x="57" y="238" type="curve"/>
      <point x="80" y="220"/>
      <point x="205" y="137"/>
      <point x="228" y="118" type="curve"/>
      <point x="228" y="194"/>
      <point x="228" y="124"/>
    </contour>
    <contour>
      <point x="398" y="447" type="curve"/>
      <point x="376" y="429"/>
      <point x="252" y="344"/>
      <point x="229" y="325" type="curve"/>
      <point x="229" y="249"/>
      <point x="229" y="315"/>
      <point x="229" y="238" type="curve"/>
      <point x="252" y="257"/>
      <point x="376" y="348"/>
      <point x="398" y="366" type="curve"/>
      <point x="398" y="442"/>
      <point x="398" y="372"/>
    </contour>
    <contour>
      <point x="399" y="199" type="curve"/>
      <point x="377" y="217"/>
      <point x="252" y="307"/>
      <point x="229" y="325" type="curve"/>
      <point x="229" y="249"/>
      <point x="229" y="315"/>
      <point x="229" y="238" type="curve"/>
      <point x="252" y="220"/>
      <point x="377" y="137"/>
      <point x="399" y="118" type="curve"/>
      <point x="399" y="194"/>
      <point x="399" y="124"/>
    </contour>
  </outline>
</glyph>
<glyph name="logicalnot" format="1">
  <advance width="567"/>
  <unicode hex="00AC"/>
  <outline>
    <contour>
      <point x="87" y="275" type="curve"/>
      <point x="492" y="275" type="line"/>
      <point x="492" y="350"/>
      <point x="492" y="275"/>
      <point x="492" y="350" type="curve"/>
      <point x="87" y="350" type="line"/>
      <point x="87" y="275"/>
      <point x="87" y="350"/>
    </contour>
    <contour>
      <point x="492" y="145" type="curve"/>
      <point x="492" y="350" type="line"/>
      <point x="405" y="350"/>
      <point x="493" y="350"/>
      <point x="405" y="350" type="curve"/>
      <point x="405" y="145" type="line"/>
      <point x="493" y="145"/>
      <point x="405" y="145"/>
    </contour>
  </outline>
</glyph>
<glyph name="macron" format="1">
  <advance width="261"/>
  <unicode hex="00AF"/>
  <outline>
    <contour>
      <point x="110" y="614" type="move" name="_top"/>
    </contour>
    <contour>
      <point x="191" y="683" type="curve"/>
      <point x="137" y="683"/>
      <point x="81" y="683"/>
      <point x="27" y="683" type="curve"/>
      <point x="27" y="614"/>
      <point x="27" y="683"/>
      <point x="27" y="614" type="curve"/>
      <point x="81" y="614"/>
      <point x="137" y="614"/>
      <point x="191" y="614" type="curve"/>
      <point x="191" y="683"/>
      <point x="191" y="614"/>
    </contour>
  </outline>
</glyph>
<glyph name="acute" format="1">
  <advance width="327"/>
  <unicode hex="00B4"/>
  <outline>
    <contour>
      <point x="74" y="591" type="move" name="_top"/>
    </contour>
    <contour>
      <point x="113" y="591" type="line"/>
      <point x="213" y="757" type="line"/>
      <point x="106" y="757" type="line"/>
      <point x="30" y="591" type="line"/>
    </contour>
  </outline>
</glyph>
<glyph name="paragraph" format="1">
  <advance width="637"/>
  <unicode hex="00B6"/>
  <outline>
    <contour>
      <point x="346" y="653" type="curve"/>
      <point x="481" y="653"/>
      <point x="346" y="653"/>
      <point x="481" y="653" type="curve"/>
      <point x="481" y="722"/>
      <point x="481" y="653"/>
      <point x="481" y="722" type="curve"/>
      <point x="436" y="722"/>
      <point x="391" y="722"/>
      <point x="346" y="722" type="curve"/>
      <point x="346" y="653"/>
      <point x="346" y="722"/>
    </contour>
    <contour>
      <point x="346" y="0" type="curve"/>
      <point x="391" y="0"/>
      <point x="436" y="0"/>
      <point x="481" y="0" type="curve"/>
      <point x="481" y="69"/>
      <point x="481" y="0"/>
      <point x="481" y="69" type="curve"/>
      <point x="346" y="69"/>
      <point x="481" y="69"/>
      <point x="346" y="69" type="curve"/>
      <point x="346" y="0"/>
      <point x="346" y="69"/>
    </contour>
    <contour>
      <point x="346" y="69" type="curve"/>
      <point x="225" y="69"/>
      <point x="346" y="69"/>
      <point x="225" y="69" type="curve"/>
      <point x="225" y="0"/>
      <point x="225" y="69"/>
      <point x="225" y="0" type="curve"/>
      <point x="346" y="0"/>
      <point x="306" y="0"/>
      <point x="346" y="0" type="curve"/>
      <point x="346" y="69"/>
      <point x="346" y="0"/>
    </contour>
    <contour>
      <point x="331" y="369" type="curve"/>
      <point x="297" y="346"/>
      <point x="271" y="332"/>
      <point x="229" y="332" type="curve"/>
      <point x="156" y="332"/>
      <point x="127" y="399"/>
      <point x="127" y="483" type="curve"/>
      <point x="127" y="578"/>
      <point x="170" y="653"/>
      <point x="258" y="653" type="curve"/>
      <point x="287" y="653"/>
      <point x="315" y="653"/>
      <point x="344" y="653" type="curve"/>
      <point x="344" y="722"/>
      <point x="344" y="653"/>
      <point x="344" y="722" type="curve"/>
      <point x="311" y="722"/>
      <point x="279" y="722"/>
      <point x="246" y="722" type="curve"/>
      <point x="115" y="722"/>
      <point x="40" y="623"/>
      <point x="40" y="486" type="curve"/>
      <point x="40" y="353"/>
      <point x="111" y="267"/>
      <point x="237" y="265" type="curve"/>
      <point x="283" y="265"/>
      <point x="321" y="286"/>
      <point x="359" y="311" type="curve"/>
      <point x="331" y="368"/>
      <point x="358" y="313"/>
    </contour>
    <contour>
      <point x="391" y="0" type="curve"/>
      <point x="391" y="241"/>
      <point x="391" y="481"/>
      <point x="391" y="722" type="curve"/>
      <point x="303" y="722"/>
      <point x="391" y="722"/>
      <point x="303" y="722" type="curve"/>
      <point x="303" y="481"/>
      <point x="303" y="241"/>
      <point x="303" y="0" type="curve"/>
      <point x="391" y="0"/>
      <point x="303" y="0"/>
    </contour>
    <contour>
      <point x="558" y="0" type="curve"/>
      <point x="558" y="241"/>
      <point x="558" y="481"/>
      <point x="558" y="722" type="curve"/>
      <point x="471" y="722"/>
      <point x="558" y="722"/>
      <point x="471" y="722" type="curve"/>
      <point x="471" y="481"/>
      <point x="471" y="241"/>
      <point x="471" y="0" type="curve"/>
      <point x="558" y="0"/>
      <point x="471" y="0"/>
    </contour>
  </outline>
</glyph>
<glyph name="periodcentered" format="1">
  <advance width="229"/>
  <unicode hex="00B7"/>
  <outline>
    <contour>
      <point x="162" y="440" type="curve"/>
      <point x="162" y="471"/>
      <point x="142" y="486"/>
      <point x="114" y="486" type="curve"/>
      <point x="85" y="486"/>
      <point x="67" y="469"/>
      <point x="67" y="440" type="curve"/>
      <point x="162" y="440"/>
      <point x="67" y="440"/>
      <point x="162" y="440" type="curve"/>
      <point x="162" y="409"/>
      <point x="143" y="394"/>
      <point x="114" y="394" type="curve"/>
      <point x="85" y="394"/>
      <point x="67" y="410"/>
      <point x="67" y="440" type="curve"/>
      <point x="162" y="440"/>
      <point x="67" y="440"/>
    </contour>
  </outline>
</glyph>
<glyph name="onesuperior" format="1">
  <advance width="325"/>
  <unicode hex="00B9"/>
  <outline>
    <contour>
      <point x="177" y="756" type="move" name="_top"/>
    </contour>
    <contour>
      <point x="184" y="345" type="move" name="_bottom"/>
    </contour>
    <contour>
      <point x="148" y="343" type="curve"/>
      <point x="188" y="343"/>
      <point x="226" y="343"/>
      <point x="266" y="343" type="curve"/>
      <point x="266" y="401"/>
      <point x="266" y="343"/>
      <point x="266" y="401" type="curve"/>
      <point x="250" y="401"/>
      <point x="236" y="401"/>
      <point x="220" y="401" type="curve"/>
      <point x="148" y="343"/>
      <point x="220" y="401"/>
    </contour>
    <contour>
      <point x="220" y="401" type="curve"/>
      <point x="179" y="401"/>
      <point x="141" y="401"/>
      <point x="99" y="401" type="curve"/>
      <point x="99" y="343"/>
      <point x="99" y="401"/>
      <point x="99" y="343" type="curve"/>
      <point x="117" y="343"/>
      <point x="130" y="343"/>
      <point x="148" y="343" type="curve"/>
      <point x="220" y="401"/>
      <point x="148" y="343"/>
    </contour>
    <contour>
      <point x="98" y="617" type="line"/>
      <point x="219" y="753" type="line"/>
      <point x="148" y="757" type="line"/>
      <point x="56" y="659" type="line"/>
    </contour>
    <contour>
      <point x="220" y="401" type="curve"/>
      <point x="220" y="757" type="line"/>
      <point x="148" y="757" type="line"/>
      <point x="148" y="343" type="line"/>
      <point x="220" y="401"/>
      <point x="148" y="343"/>
    </contour>
  </outline>
</glyph>
<glyph name="onequarter" format="1">
  <advance width="773"/>
  <unicode hex="00BC"/>
  <outline>
    <contour>
      <point x="272" y="-62" type="line"/>
      <point x="582" y="730" type="line"/>
      <point x="500" y="730" type="line"/>
      <point x="190" y="-62" type="line"/>
    </contour>
    <contour>
      <point x="129" y="318" type="curve"/>
      <point x="170" y="318"/>
      <point x="207" y="318"/>
      <point x="248" y="318" type="curve"/>
      <point x="248" y="376"/>
      <point x="248" y="318"/>
      <point x="248" y="376" type="curve"/>
      <point x="231" y="376"/>
      <point x="218" y="376"/>
      <point x="201" y="376" type="curve"/>
      <point x="129" y="318"/>
      <point x="201" y="376"/>
    </contour>
    <contour>
      <point x="201" y="376" type="curve"/>
      <point x="161" y="376"/>
      <point x="122" y="376"/>
      <point x="81" y="376" type="curve"/>
      <point x="81" y="318"/>
      <point x="81" y="376"/>
      <point x="81" y="318" type="curve"/>
      <point x="98" y="318"/>
      <point x="112" y="318"/>
      <point x="129" y="318" type="curve"/>
      <point x="201" y="376"/>
      <point x="129" y="318"/>
    </contour>
    <contour>
      <point x="79" y="592" type="line"/>
      <point x="200" y="728" type="line"/>
      <point x="129" y="732" type="line"/>
      <point x="37" y="634" type="line"/>
    </contour>
    <contour>
      <point x="201" y="376" type="curve"/>
      <point x="201" y="732" type="line"/>
      <point x="129" y="732" type="line"/>
      <point x="129" y="318" type="line"/>
      <point x="201" y="376"/>
      <point x="129" y="318"/>
    </contour>
    <contour>
      <point x="740" y="109" type="line"/>
      <point x="443" y="109" type="line"/>
      <point x="443" y="53" type="line"/>
      <point x="740" y="53" type="line"/>
    </contour>
    <contour>
      <point x="472" y="56" type="line"/>
      <point x="654" y="359" type="line"/>
      <point x="601" y="372" type="line"/>
      <point x="443" y="109" type="line"/>
    </contour>
    <contour>
      <point x="672" y="-58" type="line"/>
      <point x="672" y="372" type="line"/>
      <point x="601" y="372" type="line"/>
      <point x="601" y="-58" type="line"/>
    </contour>
    <contour>
      <point x="636" y="-8" type="line"/>
      <point x="549" y="-8" type="line"/>
      <point x="549" y="-59" type="line"/>
      <point x="636" y="-59" type="line"/>
    </contour>
    <contour>
      <point x="636" y="-59" type="line"/>
      <point x="724" y="-59" type="line"/>
      <point x="724" y="-8" type="line"/>
      <point x="636" y="-8" type="line"/>
    </contour>
  </outline>
</glyph>
<glyph name="Aring" format="1">
  <advance width="638"/>
  <unicode hex="00C5"/>
  <outline>
    <contour>
      <point x="108" y="69" type="curve"/>
      <point x="-27" y="69"/>
      <point x="123" y="69"/>
      <point x="-12" y="69" type="curve"/>
      <point x="-12" y="0"/>
      <point x="-12" y="69"/>
      <point x="-12" y="0" type="curve"/>
      <point x="33" y="0"/>
      <point x="63" y="0"/>
      <point x="108" y="0" type="curve"/>
      <point x="108" y="69"/>
      <point x="108" y="0"/>
    </contour>
    <contour>
      <point x="108" y="0" type="curve"/>
      <point x="159" y="0"/>
      <point x="99" y="0"/>
      <point x="253" y="0" type="curve"/>
      <point x="253" y="69"/>
      <point x="253" y="0"/>
      <point x="253" y="69" type="curve"/>
      <point x="99" y="69"/>
      <point x="262" y="69"/>
      <point x="108" y="69" type="curve"/>
      <point x="108" y="0"/>
      <point x="108" y="69"/>
    </contour>
    <contour>
      <point x="506" y="0" type="curve"/>
      <point x="550" y="0"/>
      <point x="580" y="0"/>
      <point x="625" y="0" type="curve"/>
      <point x="625" y="69"/>
      <point x="625" y="0"/>
      <point x="625" y="69" type="curve"/>
      <point x="491" y="69"/>
      <point x="640" y="69"/>
      <point x="506" y="69" type="curve"/>
      <point x="506" y="0"/>
      <point x="506" y="69"/>
    </contour>
    <contour>
      <point x="506" y="69" type="curve"/>
      <point x="350" y="69"/>
      <point x="515" y="69"/>
      <point x="360" y="69" type="curve"/>
      <point x="360" y="0"/>
      <point x="360" y="69"/>
      <point x="360" y="0" type="curve"/>
      <point x="412" y="0"/>
      <point x="454" y="0"/>
      <point x="506" y="0" type="curve"/>
      <point x="506" y="69"/>
      <point x="506" y="0"/>
    </contour>
    <contour>
      <point x="428" y="286" type="curve"/>
      <point x="352" y="286"/>
      <point x="276" y="286"/>
      <point x="200" y="286" type="curve"/>
      <point x="164" y="213"/>
      <point x="200" y="286"/>
      <point x="164" y="213" type="curve"/>
      <point x="261" y="213"/>
      <point x="359" y="213"/>
      <point x="456" y="213" type="curve"/>
      <point x="428" y="286"/>
      <point x="456" y="213"/>
    </contour>
    <contour>
      <point x="559" y="0" type="curve"/>
      <point x="493" y="241"/>
      <point x="424" y="481"/>
      <point x="358" y="722" type="curve"/>
      <point x="279" y="722"/>
      <point x="358" y="722"/>
      <point x="279" y="722" type="curve"/>
      <point x="343" y="482"/>
      <point x="403" y="240"/>
      <point x="468" y="0" type="curve"/>
      <point x="559" y="0"/>
      <point x="468" y="0"/>
    </contour>
    <contour>
      <point x="147" y="0" type="curve"/>
      <point x="219" y="240"/>
      <point x="285" y="482"/>
      <point x="357" y="722" type="curve"/>
      <point x="277" y="722"/>
      <point x="357" y="722"/>
      <point x="277" y="722" type="curve"/>
      <point x="204" y="480"/>
      <point x="125" y="242"/>
      <point x="52" y="0" type="curve"/>
      <point x="147" y="0"/>
      <point x="52" y="0"/>
    </contour>
    <contour>
      <point x="199" y="933" type="curve"/>
      <point x="199" y="854"/>
      <point x="241" y="800"/>
      <point x="315" y="800" type="curve"/>
      <point x="391" y="800"/>
      <point x="433" y="853"/>
      <point x="433" y="933" type="curve"/>
      <point x="433" y="1011"/>
      <point x="390" y="1066"/>
      <point x="313" y="1066" type="curve"/>
      <point x="239" y="1066"/>
      <point x="199" y="1011"/>
      <point x="199" y="933" type="curve"/>
      <point x="277" y="933"/>
      <point x="194" y="933"/>
      <point x="271" y="933" type="curve"/>
      <point x="271" y="969"/>
      <point x="278" y="1002"/>
      <point x="313" y="1002" type="curve"/>
      <point x="349" y="1002"/>
      <point x="358" y="970"/>
      <point x="358" y="933" type="curve"/>
      <point x="358" y="896"/>
      <point x="351" y="863"/>
      <point x="315" y="863" type="curve"/>
      <point x="280" y="863"/>
      <point x="271" y="896"/>
      <point x="271" y="933" type="curve"/>
      <point x="194" y="933"/>
      <point x="277" y="933"/>
    </contour>
  </outline>
</glyph>
<glyph name="Icircumflex" format="1">
  <advance width="326"/>
  <unicode hex="00CE"/>
  <outline>
    <contour>
      <point x="162" y="722" type="curve"/>
      <point x="117" y="722"/>
      <point x="81" y="722"/>
      <point x="36" y="722" type="curve"/>
      <point x="36" y="653"/>
      <point x="36" y="722"/>
      <point x="36" y="653" type="curve"/>
      <point x="172" y="653"/>
      <point x="27" y="653"/>
      <point x="162" y="653" type="curve"/>
      <point x="162" y="722"/>
      <point x="162" y="653"/>
    </contour>
    <contour>
      <point x="162" y="653" type="curve"/>
      <point x="297" y="653"/>
      <point x="153" y="653"/>
      <point x="288" y="653" type="curve"/>
      <point x="288" y="722"/>
      <point x="288" y="653"/>
      <point x="288" y="722" type="curve"/>
      <point x="242" y="722"/>
      <point x="207" y="722"/>
      <point x="162" y="722" type="curve"/>
      <point x="162" y="653"/>
      <point x="162" y="722"/>
    </contour>
    <contour>
      <point x="162" y="0" type="curve"/>
      <point x="207" y="0"/>
      <point x="242" y="0"/>
      <point x="288" y="0" type="curve"/>
      <point x="288" y="69"/>
      <point x="288" y="0"/>
      <point x="288" y="69" type="curve"/>
      <point x="153" y="69"/>
      <point x="297" y="69"/>
      <point x="162" y="69" type="curve"/>
      <point x="162" y="0"/>
      <point x="162" y="69"/>
    </contour>
    <contour>
      <point x="162" y="69" type="curve"/>
      <point x="27" y="69"/>
      <point x="172" y="69"/>
      <point x="36" y="69" type="curve"/>
      <point x="36" y="0"/>
      <point x="36" y="69"/>
      <point x="36" y="0" type="curve"/>
      <point x="81" y="0"/>
      <point x="117" y="0"/>
      <point x="162" y="0" type="curve"/>
      <point x="162" y="69"/>
      <point x="162" y="0"/>
    </contour>
    <contour>
      <point x="205" y="0" type="curve"/>
      <point x="205" y="241"/>
      <point x="205" y="481"/>
      <point x="205" y="722" type="curve"/>
      <point x="118" y="722"/>
      <point x="205" y="722"/>
      <point x="118" y="722" type="curve"/>
      <point x="118" y="481"/>
      <point x="118" y="241"/>
      <point x="118" y="0" type="curve"/>
      <point x="205" y="0"/>
      <point x="118" y="0"/>
    </contour>
    <contour>
      <point x="100" y="801" type="line"/>
      <point x="200" y="967" type="line"/>
      <point x="92" y="967" type="line"/>
      <point x="17" y="801" type="line"/>
    </contour>
    <contour>
      <point x="309" y="801" type="line"/>
      <point x="234" y="967" type="line"/>
      <point x="126" y="967" type="line"/>
      <point x="226" y="801" type="line"/>
    </contour>
  </outline>
</glyph>
<glyph name="Ograve" format="1">
  <advance width="620"/>
  <unicode hex="00D2"/>
  <outline>
    <contour>
      <point x="144" y="360" type="curve"/>
      <point x="144" y="517"/>
      <point x="170" y="655"/>
      <point x="308" y="655" type="curve"/>
      <point x="443" y="655"/>
      <point x="476" y="520"/>
      <point x="476" y="363" type="curve"/>
      <point x="476" y="206"/>
      <point x="449" y="67"/>
      <point x="312" y="67" type="curve"/>
      <point x="175" y="67"/>
      <point x="144" y="202"/>
      <point x="144" y="360" type="curve"/>
      <point x="56" y="360"/>
      <point x="144" y="360"/>
      <point x="56" y="360" type="curve"/>
      <point x="56" y="156"/>
      <point x="126" y="-5"/>
      <point x="309" y="-5" type="curve"/>
      <point x="493" y="-5"/>
      <point x="564" y="158"/>
      <point x="564" y="363" type="curve"/>
      <point x="564" y="565"/>
      <point x="495" y="727"/>
      <point x="312" y="727" type="curve"/>
      <point x="128" y="727"/>
      <point x="56" y="564"/>
      <point x="56" y="360" type="curve"/>
      <point x="144" y="360"/>
      <point x="56" y="360"/>
    </contour>
    <contour>
      <point x="353" y="802" type="line"/>
      <point x="277" y="968" type="line"/>
      <point x="170" y="968" type="line"/>
      <point x="270" y="802" type="line"/>
    </contour>
  </outline>
</glyph>
<glyph name="Otilde" format="1">
  <advance width="620"/>
  <unicode hex="00D5"/>
  <outline>
    <contour>
      <point x="144" y="360" type="curve"/>
      <point x="144" y="517"/>
      <point x="170" y="655"/>
      <point x="308" y="655" type="curve"/>
      <point x="443" y="655"/>
      <point x="476" y="520"/>
      <point x="476" y="363" type="curve"/>
      <point x="476" y="206"/>
      <point x="449" y="67"/>
      <point x="312" y="67" type="curve"/>
      <point x="175" y="67"/>
      <point x="144" y="202"/>
      <point x="144" y="360" type="curve"/>
      <point x="56" y="360"/>
      <point x="144" y="360"/>
      <point x="56" y="360" type="curve"/>
      <point x="56" y="156"/>
      <point x="126" y="-5"/>
      <point x="309" y="-5" type="curve"/>
      <point x="493" y="-5"/>
      <point x="564" y="158"/>
      <point x="564" y="363" type="curve"/>
      <point x="564" y="565"/>
      <point x="495" y="727"/>
      <point x="312" y="727" type="curve"/>
      <point x="128" y="727"/>
      <point x="56" y="564"/>
      <point x="56" y="360" type="curve"/>
      <point x="144" y="360"/>
      <point x="56" y="360"/>
    </contour>
    <contour>
      <point x="416" y="961" type="curve"/>
      <point x="402" y="919"/>
      <point x="393" y="891"/>
      <point x="370" y="891" type="curve"/>
      <point x="342" y="891"/>
      <point x="330" y="905"/>
      <point x="313" y="925" type="curve"/>
      <point x="290" y="949"/>
      <point x="276" y="965"/>
      <point x="244" y="965" type="curve"/>
      <point x="181" y="965"/>
      <point x="158" y="903"/>
      <point x="143" y="839" type="curve"/>
      <point x="208" y="804"/>
      <point x="143" y="840"/>
      <point x="208" y="804" type="curve"/>
      <point x="222" y="850"/>
      <point x="233" y="876"/>
      <point x="262" y="876" type="curve"/>
      <point x="286" y="876"/>
      <point x="295" y="862"/>
      <point x="309" y="845" type="curve"/>
      <point x="335" y="817"/>
      <point x="351" y="800"/>
      <point x="387" y="800" type="curve"/>
      <point x="451" y="800"/>
      <point x="466" y="862"/>
      <point x="486" y="928" type="curve"/>
      <point x="416" y="961"/>
      <point x="486" y="927"/>
    </contour>
  </outline>
</glyph>
<glyph name="Odieresis" format="1">
  <advance width="620"/>
  <unicode hex="00D6"/>
  <outline>
    <contour>
      <point x="144" y="360" type="curve"/>
      <point x="144" y="517"/>
      <point x="170" y="655"/>
      <point x="308" y="655" type="curve"/>
      <point x="443" y="655"/>
      <point x="476" y="520"/>
      <point x="476" y="363" type="curve"/>
      <point x="476" y="206"/>
      <point x="449" y="67"/>
      <point x="312" y="67" type="curve"/>
      <point x="175" y="67"/>
      <point x="144" y="202"/>
      <point x="144" y="360" type="curve"/>
      <point x="56" y="360"/>
      <point x="144" y="360"/>
      <point x="56" y="360" type="curve"/>
      <point x="56" y="156"/>
      <point x="126" y="-5"/>
      <point x="309" y="-5" type="curve"/>
      <point x="493" y="-5"/>
      <point x="564" y="158"/>
      <point x="564" y="363" type="curve"/>
      <point x="564" y="565"/>
      <point x="495" y="727"/>
      <point x="312" y="727" type="curve"/>
      <point x="128" y="727"/>
      <point x="56" y="564"/>
      <point x="56" y="360" type="curve"/>
      <point x="144" y="360"/>
      <point x="56" y="360"/>
    </contour>
    <contour>
      <point x="285" y="842" type="curve"/>
      <point x="285" y="873"/>
      <point x="265" y="888"/>
      <point x="237" y="888" type="curve"/>
      <point x="208" y="888"/>
      <point x="190" y="871"/>
      <point x="190" y="842" type="curve"/>
      <point x="285" y="842"/>
      <point x="190" y="842"/>
      <point x="285" y="842" type="curve"/>
      <point x="285" y="811"/>
      <point x="265" y="796"/>
      <point x="237" y="796" type="curve"/>
      <point x="208" y="796"/>
      <point x="190" y="812"/>
      <point x="190" y="842" type="curve"/>
      <point x="285" y="842"/>
      <point x="190" y="842"/>
    </contour>
    <contour>
      <point x="431" y="842" type="curve"/>
      <point x="431" y="873"/>
      <point x="411" y="888"/>
      <point x="383" y="888" type="curve"/>
      <point x="354" y="888"/>
      <point x="336" y="871"/>
      <point x="336" y="842" type="curve"/>
      <point x="431" y="842"/>
      <point x="336" y="842"/>
      <point x="431" y="842" type="curve"/>
      <point x="431" y="811"/>
      <point x="411" y="796"/>
      <point x="383" y="796" type="curve"/>
      <point x="354" y="796"/>
      <point x="336" y="812"/>
      <point x="336" y="842" type="curve"/>
      <point x="431" y="842"/>
      <point x="336" y="842"/>
    </contour>
  </outline>
</glyph>
<glyph name="multiply" format="1">
  <advance width="567"/>
  <unicode hex="00D7"/>
  <outline>
    <contour>
      <point x="113" y="83" type="line"/>
      <point x="505" y="486" type="line"/>
      <point x="454" y="537" type="line"/>
      <point x="62" y="134" type="line"/>
    </contour>
    <contour>
      <point x="505" y="133" type="line"/>
      <point x="113" y="535" type="line"/>
      <point x="62" y="484" type="line"/>
      <point x="454" y="82" type="line"/>
    </contour>
  </outline>
</glyph>
<glyph name="Yacute" format="1">
  <advance width="563"/>
  <unicode hex="00DD"/>
  <outline>
    <contour>
      <point x="271" y="69" type="curve"/>
      <point x="142" y="69"/>
      <point x="275" y="69"/>
      <point x="146" y="69" type="curve"/>
      <point x="146" y="0"/>
      <point x="146" y="69"/>
      <point x="146" y="0" type="curve"/>
      <point x="189" y="0"/>
      <point x="228" y="0"/>
      <point x="271" y="0" type="curve"/>
      <point x="271" y="69"/>
      <point x="271" y="0"/>
    </contour>
    <contour>
      <point x="271" y="0" type="curve"/>
      <point x="314" y="0"/>
      <point x="354" y="0"/>
      <point x="397" y="0" type="curve"/>
      <point x="397" y="69"/>
      <point x="397" y="0"/>
      <point x="397" y="69" type="curve"/>
      <point x="267" y="69"/>
      <point x="401" y="69"/>
      <point x="271" y="69" type="curve"/>
      <point x="271" y="0"/>
      <point x="271" y="69"/>
    </contour>
    <contour>
      <point x="432" y="722" type="curve"/>
      <point x="391" y="722"/>
      <point x="353" y="722"/>
      <point x="312" y="722" type="curve"/>
      <point x="312" y="653"/>
      <point x="312" y="722"/>
      <point x="312" y="653" type="curve"/>
      <point x="436" y="653"/>
      <point x="308" y="653"/>
      <point x="432" y="653" type="curve"/>
      <point x="432" y="722"/>
      <point x="432" y="653"/>
    </contour>
    <contour>
      <point x="109" y="722" type="curve"/>
      <point x="73" y="722"/>
      <point x="40" y="722"/>
      <point x="4" y="722" type="curve"/>
      <point x="3" y="653"/>
      <point x="4" y="722"/>
      <point x="3" y="653" type="curve"/>
      <point x="114" y="653"/>
      <point x="-1" y="653"/>
      <point x="109" y="653" type="curve"/>
      <point x="109" y="722"/>
      <point x="109" y="653"/>
    </contour>
    <contour>
      <point x="120" y="653" type="curve"/>
      <point x="244" y="653"/>
      <point x="116" y="653"/>
      <point x="240" y="653" type="curve"/>
      <point x="240" y="722"/>
      <point x="240" y="653"/>
      <point x="240" y="722" type="curve"/>
      <point x="199" y="722"/>
      <point x="161" y="722"/>
      <point x="120" y="722" type="curve"/>
      <point x="120" y="653"/>
      <point x="120" y="722"/>
    </contour>
    <contour>
      <point x="443" y="653" type="curve"/>
      <point x="556" y="653"/>
      <point x="438" y="653"/>
      <point x="552" y="653" type="curve"/>
      <point x="552" y="722"/>
      <point x="552" y="653"/>
      <point x="552" y="722" type="curve"/>
      <point x="515" y="722"/>
      <point x="480" y="722"/>
      <point x="443" y="722" type="curve"/>
      <point x="443" y="653"/>
      <point x="443" y="722"/>
    </contour>
    <contour>
      <point x="55" y="722" type="curve"/>
      <point x="113" y="594"/>
      <point x="168" y="467"/>
      <point x="224" y="337" type="curve"/>
      <point x="313" y="337"/>
      <point x="212" y="337"/>
      <point x="301" y="337" type="curve"/>
      <point x="249" y="468"/>
      <point x="199" y="592"/>
      <point x="145" y="722" type="curve"/>
      <point x="55" y="722"/>
      <point x="145" y="722"/>
    </contour>
    <contour>
      <point x="407" y="722" type="curve"/>
      <point x="349" y="591"/>
      <point x="295" y="467"/>
      <point x="236" y="337" type="curve"/>
      <point x="325" y="337"/>
      <point x="230" y="337"/>
      <point x="319" y="337" type="curve"/>
      <point x="378" y="467"/>
      <point x="436" y="594"/>
      <point x="497" y="722" type="curve"/>
      <point x="407" y="722"/>
      <point x="497" y="722"/>
    </contour>
    <contour>
      <point x="319" y="0" type="curve"/>
      <point x="319" y="115"/>
      <point x="319" y="226"/>
      <point x="319" y="341" type="curve"/>
      <point x="224" y="341"/>
      <point x="319" y="341"/>
      <point x="224" y="341" type="curve"/>
      <point x="224" y="226"/>
      <point x="224" y="115"/>
      <point x="224" y="0" type="curve"/>
      <point x="319" y="0"/>
      <point x="224" y="0"/>
    </contour>
    <contour>
      <point x="315" y="801" type="line"/>
      <point x="415" y="967" type="line"/>
      <point x="307" y="967" type="line"/>
      <point x="232" y="801" type="line"/>
    </contour>
  </outline>
</glyph>
<glyph name="Thorn" format="1">
  <advance width="517"/>
  <unicode hex="00DE"/>
  <outline>
    <contour>
      <point x="171" y="722" type="curve"/>
      <point x="132" y="722"/>
      <point x="92" y="722"/>
      <point x="52" y="722" type="curve"/>
      <point x="52" y="653"/>
      <point x="52" y="722"/>
      <point x="52" y="653" type="curve"/>
      <point x="171" y="653"/>
      <point x="52" y="653"/>
      <point x="171" y="653" type="curve"/>
      <point x="171" y="722"/>
      <point x="171" y="653"/>
    </contour>
    <contour>
      <point x="171" y="69" type="curve"/>
      <point x="52" y="69"/>
      <point x="171" y="69"/>
      <point x="52" y="69" type="curve"/>
      <point x="52" y="0"/>
      <point x="52" y="69"/>
      <point x="52" y="0" type="curve"/>
      <point x="92" y="0"/>
      <point x="132" y="0"/>
      <point x="171" y="0" type="curve"/>
      <point x="171" y="69"/>
      <point x="171" y="0"/>
    </contour>
    <contour>
      <point x="171" y="0" type="curve"/>
      <point x="209" y="0"/>
      <point x="171" y="0"/>
      <point x="286" y="0" type="curve"/>
      <point x="286" y="69"/>
      <point x="286" y="0"/>
      <point x="286" y="69" type="curve"/>
      <point x="171" y="69"/>
      <point x="286" y="69"/>
      <point x="171" y="69" type="curve"/>
      <point x="171" y="0"/>
      <point x="171" y="69"/>
    </contour>
    <contour>
      <point x="158" y="215" type="curve"/>
      <point x="200" y="188"/>
      <point x="244" y="169"/>
      <point x="297" y="169" type="curve"/>
      <point x="412" y="171"/>
      <point x="477" y="255"/>
      <point x="477" y="385" type="curve"/>
      <point x="477" y="509"/>
      <point x="402" y="599"/>
      <point x="271" y="599" type="curve"/>
      <point x="238" y="599"/>
      <point x="205" y="599"/>
      <point x="173" y="599" type="curve"/>
      <point x="173" y="531"/>
      <point x="173" y="599"/>
      <point x="173" y="531" type="curve"/>
      <point x="202" y="531"/>
      <point x="230" y="531"/>
      <point x="259" y="531" type="curve"/>
      <point x="347" y="531"/>
      <point x="390" y="465"/>
      <point x="390" y="382" type="curve"/>
      <point x="390" y="301"/>
      <point x="361" y="236"/>
      <point x="288" y="236" type="curve"/>
      <point x="246" y="236"/>
      <point x="220" y="250"/>
      <point x="186" y="273" type="curve"/>
      <point x="159" y="217"/>
      <point x="186" y="272"/>
    </contour>
    <contour>
      <point x="214" y="0" type="curve"/>
      <point x="214" y="241"/>
      <point x="214" y="481"/>
      <point x="214" y="722" type="curve"/>
      <point x="126" y="722"/>
      <point x="214" y="722"/>
      <point x="126" y="722" type="curve"/>
      <point x="126" y="481"/>
      <point x="126" y="241"/>
      <point x="126" y="0" type="curve"/>
      <point x="214" y="0"/>
      <point x="126" y="0"/>
    </contour>
    <contour>
      <point x="171" y="653" type="curve"/>
      <point x="209" y="653"/>
      <point x="171" y="653"/>
      <point x="286" y="653" type="curve"/>
      <point x="286" y="722"/>
      <point x="286" y="653"/>
      <point x="286" y="722" type="curve"/>
      <point x="171" y="722"/>
      <point x="286" y="722"/>
      <point x="171" y="722" type="curve"/>
      <point x="171" y="653"/>
      <point x="171" y="722"/>
    </contour>
  </outline>
</glyph>
<glyph name="aring" format="1">
  <advance width="483"/>
  <unicode hex="00E5"/>
  <outline>
    <contour>
      <point x="73" y="462" type="curve"/>
      <point x="73" y="347"/>
      <point x="73" y="467"/>
      <point x="73" y="351" type="curve"/>
      <point x="142" y="351"/>
      <point x="73" y="351"/>
      <point x="142" y="351" type="curve"/>
      <point x="142" y="467"/>
      <point x="142" y="347"/>
      <point x="142" y="462" type="curve"/>
      <point x="73" y="462"/>
      <point x="142" y="462"/>
    </contour>
    <contour>
      <point x="394" y="0" type="curve"/>
      <point x="394" y="126"/>
      <point x="394" y="253"/>
      <point x="394" y="379" type="curve"/>
      <point x="394" y="487"/>
      <point x="335" y="538"/>
      <point x="234" y="538" type="curve"/>
      <point x="160" y="538"/>
      <point x="109" y="503"/>
      <point x="73" y="462" type="curve"/>
      <point x="108" y="405"/>
      <point x="73" y="462"/>
      <point x="108" y="405" type="curve"/>
      <point x="132" y="432"/>
      <point x="169" y="467"/>
      <point x="222" y="467" type="curve"/>
      <point x="281" y="467"/>
      <point x="306" y="430"/>
      <point x="306" y="367" type="curve"/>
      <point x="306" y="244"/>
      <point x="306" y="122"/>
      <point x="306" y="0" type="curve"/>
      <point x="394" y="0"/>
      <point x="306" y="0"/>
    </contour>
    <contour>
      <point x="351" y="0" type="curve"/>
      <point x="391" y="0"/>
      <point x="428" y="0"/>
      <point x="467" y="0" type="curve"/>
      <point x="467" y="69"/>
      <point x="467" y="0"/>
      <point x="467" y="69" type="curve"/>
      <point x="347" y="69"/>
      <point x="472" y="69"/>
      <point x="351" y="69" type="curve"/>
      <point x="351" y="0"/>
      <point x="351" y="69"/>
    </contour>
    <contour>
      <point x="347" y="336" type="curve"/>
      <point x="291" y="326"/>
      <point x="260" y="323"/>
      <point x="203" y="313" type="curve"/>
      <point x="110" y="297"/>
      <point x="51" y="249"/>
      <point x="51" y="154" type="curve"/>
      <point x="51" y="57"/>
      <point x="94" y="-5"/>
      <point x="188" y="-5" type="curve"/>
      <point x="287" y="-5"/>
      <point x="326" y="77"/>
      <point x="373" y="152" type="curve"/>
      <point x="328" y="191"/>
      <point x="373" y="152"/>
      <point x="328" y="191" type="curve"/>
      <point x="303" y="126"/>
      <point x="274" y="64"/>
      <point x="208" y="64" type="curve"/>
      <point x="153" y="64"/>
      <point x="136" y="101"/>
      <point x="136" y="158" type="curve"/>
      <point x="136" y="208"/>
      <point x="163" y="243"/>
      <point x="205" y="251" type="curve"/>
      <point x="265" y="262"/>
      <point x="291" y="267"/>
      <point x="351" y="277" type="curve"/>
      <point x="347" y="336"/>
      <point x="351" y="277"/>
    </contour>
    <contour>
      <point x="119" y="770" type="curve"/>
      <point x="119" y="692"/>
      <point x="160" y="637"/>
      <point x="235" y="637" type="curve"/>
      <point x="311" y="637"/>
      <point x="353" y="691"/>
      <point x="353" y="770" type="curve"/>
      <point x="353" y="849"/>
      <point x="310" y="903"/>
      <point x="233" y="903" type="curve"/>
      <point x="159" y="903"/>
      <point x="119" y="848"/>
      <point x="119" y="770" type="curve"/>
      <point x="197" y="770"/>
      <point x="114" y="770"/>
      <point x="191" y="770" type="curve"/>
      <point x="191" y="806"/>
      <point x="197" y="840"/>
      <point x="233" y="840" type="curve"/>
      <point x="269" y="840"/>
      <point x="278" y="807"/>
      <point x="278" y="770" type="curve"/>
      <point x="278" y="733"/>
      <point x="271" y="701"/>
      <point x="235" y="701" type="curve"/>
      <point x="199" y="701"/>
      <point x="191" y="733"/>
      <point x="191" y="770" type="curve"/>
      <point x="114" y="770"/>
      <point x="197" y="770"/>
    </contour>
  </outline>
</glyph>
<glyph name="egrave" format="1">
  <advance width="464"/>
  <unicode hex="00E8"/>
  <outline>
    <contour>
      <point x="96" y="248" type="curve"/>
      <point x="191" y="248"/>
      <point x="286" y="248"/>
      <point x="381" y="248" type="curve"/>
      <point x="415" y="248"/>
      <point x="381" y="248"/>
      <point x="415" y="248" type="curve"/>
      <point x="415" y="275"/>
      <point x="415" y="248"/>
      <point x="415" y="275" type="curve"/>
      <point x="415" y="282"/>
      <point x="415" y="290"/>
      <point x="415" y="297" type="curve"/>
      <point x="415" y="439"/>
      <point x="367" y="538"/>
      <point x="240" y="538" type="curve"/>
      <point x="104" y="538"/>
      <point x="52" y="432"/>
      <point x="52" y="279" type="curve"/>
      <point x="52" y="113"/>
      <point x="107" y="-5"/>
      <point x="254" y="-5" type="curve"/>
      <point x="319" y="-5"/>
      <point x="359" y="24"/>
      <point x="404" y="74" type="curve"/>
      <point x="350" y="122"/>
      <point x="404" y="74"/>
      <point x="350" y="122" type="curve"/>
      <point x="323" y="89"/>
      <point x="295" y="67"/>
      <point x="254" y="67" type="curve"/>
      <point x="156" y="67"/>
      <point x="138" y="162"/>
      <point x="138" y="279" type="curve"/>
      <point x="138" y="382"/>
      <point x="150" y="467"/>
      <point x="236" y="467" type="curve"/>
      <point x="314" y="467"/>
      <point x="332" y="395"/>
      <point x="332" y="304" type="curve"/>
      <point x="332" y="294"/>
      <point x="332" y="285"/>
      <point x="332" y="275" type="curve"/>
      <point x="340" y="283"/>
      <point x="348" y="289"/>
      <point x="356" y="297" type="curve"/>
      <point x="363" y="305"/>
      <point x="373" y="305"/>
      <point x="381" y="314" type="curve"/>
      <point x="286" y="314"/>
      <point x="191" y="314"/>
      <point x="96" y="314" type="curve"/>
      <point x="96" y="245"/>
      <point x="96" y="317"/>
    </contour>
    <contour>
      <point x="284" y="639" type="line"/>
      <point x="209" y="805" type="line"/>
      <point x="101" y="805" type="line"/>
      <point x="201" y="639" type="line"/>
    </contour>
  </outline>
</glyph>
<glyph name="igrave" format="1">
  <advance width="288"/>
  <unicode hex="00EC"/>
  <outline>
    <contour>
      <point x="153" y="69" type="curve"/>
      <point x="24" y="69"/>
      <point x="158" y="69"/>
      <point x="28" y="69" type="curve"/>
      <point x="28" y="0"/>
      <point x="28" y="69"/>
      <point x="28" y="0" type="curve"/>
      <point x="71" y="0"/>
      <point x="110" y="0"/>
      <point x="153" y="0" type="curve"/>
      <point x="153" y="69"/>
      <point x="153" y="0"/>
    </contour>
    <contour>
      <point x="153" y="0" type="curve"/>
      <point x="194" y="0"/>
      <point x="231" y="0"/>
      <point x="272" y="0" type="curve"/>
      <point x="272" y="69"/>
      <point x="272" y="0"/>
      <point x="272" y="69" type="curve"/>
      <point x="149" y="69"/>
      <point x="276" y="69"/>
      <point x="153" y="69" type="curve"/>
      <point x="153" y="0"/>
      <point x="153" y="69"/>
    </contour>
    <contour>
      <point x="153" y="533" type="curve"/>
      <point x="110" y="533"/>
      <point x="71" y="533"/>
      <point x="28" y="533" type="curve"/>
      <point x="28" y="464"/>
      <point x="28" y="533"/>
      <point x="28" y="464" type="curve"/>
      <point x="158" y="464"/>
      <point x="23" y="464"/>
      <point x="153" y="464" type="curve"/>
      <point x="153" y="533"/>
      <point x="153" y="464"/>
    </contour>
    <contour>
      <point x="199" y="0" type="curve"/>
      <point x="199" y="178"/>
      <point x="199" y="355"/>
      <point x="199" y="533" type="curve"/>
      <point x="107" y="533"/>
      <point x="199" y="533"/>
      <point x="107" y="533" type="curve"/>
      <point x="107" y="355"/>
      <point x="107" y="178"/>
      <point x="107" y="0" type="curve"/>
      <point x="199" y="0"/>
      <point x="107" y="0"/>
    </contour>
    <contour>
      <point x="197" y="639" type="line"/>
      <point x="121" y="805" type="line"/>
      <point x="14" y="805" type="line"/>
      <point x="114" y="639" type="line"/>
    </contour>
  </outline>
</glyph>
<glyph name="idieresis" format="1">
  <advance width="297"/>
  <unicode hex="00EF"/>
  <outline>
    <contour>
      <point x="158" y="69" type="curve"/>
      <point x="28" y="69"/>
      <point x="162" y="69"/>
      <point x="32" y="69" type="curve"/>
      <point x="32" y="0"/>
      <point x="32" y="69"/>
      <point x="32" y="0" type="curve"/>
      <point x="75" y="0"/>
      <point x="115" y="0"/>
      <point x="158" y="0" type="curve"/>
      <point x="158" y="69"/>
      <point x="158" y="0"/>
    </contour>
    <contour>
      <point x="158" y="0" type="curve"/>
      <point x="198" y="0"/>
      <point x="235" y="0"/>
      <point x="276" y="0" type="curve"/>
      <point x="276" y="69"/>
      <point x="276" y="0"/>
      <point x="276" y="69" type="curve"/>
      <point x="153" y="69"/>
      <point x="280" y="69"/>
      <point x="158" y="69" type="curve"/>
      <point x="158" y="0"/>
      <point x="158" y="69"/>
    </contour>
    <contour>
      <point x="158" y="533" type="curve"/>
      <point x="115" y="533"/>
      <point x="75" y="533"/>
      <point x="32" y="533" type="curve"/>
      <point x="32" y="464"/>
      <point x="32" y="533"/>
      <point x="32" y="464" type="curve"/>
      <point x="162" y="464"/>
      <point x="28" y="464"/>
      <point x="158" y="464" type="curve"/>
      <point x="158" y="533"/>
      <point x="158" y="464"/>
    </contour>
    <contour>
      <point x="204" y="0" type="curve"/>
      <point x="204" y="178"/>
      <point x="204" y="355"/>
      <point x="204" y="533" type="curve"/>
      <point x="112" y="533"/>
      <point x="204" y="533"/>
      <point x="112" y="533" type="curve"/>
      <point x="112" y="355"/>
      <point x="112" y="178"/>
      <point x="112" y="0" type="curve"/>
      <point x="204" y="0"/>
      <point x="112" y="0"/>
    </contour>
    <contour>
      <point x="133" y="680" type="curve"/>
      <point x="133" y="710"/>
      <point x="113" y="726"/>
      <point x="85" y="726" type="curve"/>
      <point x="56" y="726"/>
      <point x="38" y="709"/>
      <point x="38" y="680" type="curve"/>
      <point x="133" y="680"/>
      <point x="38" y="680"/>
      <point x="133" y="680" type="curve"/>
      <point x="133" y="648"/>
      <point x="114" y="634"/>
      <point x="85" y="634" type="curve"/>
      <point x="56" y="634"/>
      <point x="38" y="650"/>
      <point x="38" y="680" type="curve"/>
      <point x="133" y="680"/>
      <point x="38" y="680"/>
    </contour>
    <contour>
      <point x="279" y="680" type="curve"/>
      <point x="279" y="710"/>
      <point x="259" y="726"/>
      <point x="231" y="726" type="curve"/>
      <point x="202" y="726"/>
      <point x="184" y="709"/>
      <point x="184" y="680" type="curve"/>
      <point x="279" y="680"/>
      <point x="184" y="680"/>
      <point x="279" y="680" type="curve"/>
      <point x="279" y="648"/>
      <point x="259" y="634"/>
      <point x="231" y="634" type="curve"/>
      <point x="202" y="634"/>
      <point x="184" y="650"/>
      <point x="184" y="680" type="curve"/>
      <point x="279" y="680"/>
      <point x="184" y="680"/>
    </contour>
  </outline>
</glyph>
<glyph name="ocircumflex" format="1">
  <advance width="500"/>
  <unicode hex="00F4"/>
  <outline>
    <contour>
      <point x="132" y="266" type="curve"/>
      <point x="132" y="374"/>
      <point x="153" y="467"/>
      <point x="246" y="467" type="curve"/>
      <point x="340" y="467"/>
      <point x="363" y="374"/>
      <point x="363" y="265" type="curve"/>
      <point x="363" y="156"/>
      <point x="342" y="66"/>
      <point x="252" y="66" type="curve"/>
      <point x="151" y="67"/>
      <point x="132" y="157"/>
      <point x="132" y="266" type="curve"/>
      <point x="120" y="266"/>
      <point x="61" y="266"/>
      <point x="50" y="266" type="curve"/>
      <point x="50" y="111"/>
      <point x="106" y="-5"/>
      <point x="248" y="-5" type="curve"/>
      <point x="392" y="-5"/>
      <point x="450" y="109"/>
      <point x="450" y="265" type="curve"/>
      <point x="450" y="422"/>
      <point x="393" y="538"/>
      <point x="250" y="538" type="curve"/>
      <point x="107" y="538"/>
      <point x="50" y="422"/>
      <point x="50" y="266" type="curve"/>
      <point x="61" y="266"/>
      <point x="120" y="266"/>
    </contour>
    <contour>
      <point x="184" y="639" type="line"/>
      <point x="285" y="805" type="line"/>
      <point x="177" y="805" type="line"/>
      <point x="101" y="639" type="line"/>
    </contour>
    <contour>
      <point x="394" y="639" type="line"/>
      <point x="318" y="805" type="line"/>
      <point x="211" y="805" type="line"/>
      <point x="311" y="639" type="line"/>
    </contour>
  </outline>
</glyph>
<glyph name="otilde" format="1">
  <advance width="500"/>
  <unicode hex="00F5"/>
  <outline>
    <contour>
      <point x="132" y="266" type="curve"/>
      <point x="132" y="374"/>
      <point x="153" y="467"/>
      <point x="246" y="467" type="curve"/>
      <point x="340" y="467"/>
      <point x="363" y="374"/>
      <point x="363" y="265" type="curve"/>
      <point x="363" y="156"/>
      <point x="342" y="66"/>
      <point x="252" y="66" type="curve"/>
      <point x="151" y="67"/>
      <point x="132" y="157"/>
      <point x="132" y="266" type="curve"/>
      <point x="120" y="266"/>
      <point x="61" y="266"/>
      <point x="50" y="266" type="curve"/>
      <point x="50" y="111"/>
      <point x="106" y="-5"/>
      <point x="248" y="-5" type="curve"/>
      <point x="392" y="-5"/>
      <point x="450" y="109"/>
      <point x="450" y="265" type="curve"/>
      <point x="450" y="422"/>
      <point x="393" y="538"/>
      <point x="250" y="538" type="curve"/>
      <point x="107" y="538"/>
      <point x="50" y="422"/>
      <point x="50" y="266" type="curve"/>
      <point x="61" y="266"/>
      <point x="120" y="266"/>
    </contour>
    <contour>
      <point x="353" y="799" type="curve"/>
      <point x="340" y="757"/>
      <point x="331" y="729"/>
      <point x="307" y="729" type="curve"/>
      <point x="280" y="729"/>
      <point x="268" y="742"/>
      <point x="251" y="762" type="curve"/>
      <point x="228" y="787"/>
      <point x="214" y="803"/>
      <point x="182" y="803" type="curve"/>
      <point x="119" y="803"/>
      <point x="96" y="740"/>
      <point x="80" y="676" type="curve"/>
      <point x="146" y="641"/>
      <point x="80" y="677"/>
      <point x="146" y="641" type="curve"/>
      <point x="160" y="687"/>
      <point x="170" y="714"/>
      <point x="200" y="714" type="curve"/>
      <point x="223" y="714"/>
      <point x="233" y="700"/>
      <point x="247" y="682" type="curve"/>
      <point x="272" y="655"/>
      <point x="289" y="637"/>
      <point x="325" y="637" type="curve"/>
      <point x="388" y="637"/>
      <point x="404" y="700"/>
      <point x="423" y="765" type="curve"/>
      <point x="353" y="799"/>
      <point x="423" y="765"/>
    </contour>
  </outline>
</glyph>
<glyph name="odieresis" format="1">
  <advance width="500"/>
  <unicode hex="00F6"/>
  <outline>
    <contour>
      <point x="132" y="266" type="curve"/>
      <point x="132" y="374"/>
      <point x="153" y="467"/>
      <point x="246" y="467" type="curve"/>
      <point x="340" y="467"/>
      <point x="363" y="374"/>
      <point x="363" y="265" type="curve"/>
      <point x="363" y="156"/>
      <point x="342" y="66"/>
      <point x="252" y="66" type="curve"/>
      <point x="151" y="67"/>
      <point x="132" y="157"/>
      <point x="132" y="266" type="curve"/>
      <point x="120" y="266"/>
      <point x="61" y="266"/>
      <point x="50" y="266" type="curve"/>
      <point x="50" y="111"/>
      <point x="106" y="-5"/>
      <point x="248" y="-5" type="curve"/>
      <point x="392" y="-5"/>
      <point x="450" y="109"/>
      <point x="450" y="265" type="curve"/>
      <point x="450" y="422"/>
      <point x="393" y="538"/>
      <point x="250" y="538" type="curve"/>
      <point x="107" y="538"/>
      <point x="50" y="422"/>
      <point x="50" y="266" type="curve"/>
      <point x="61" y="266"/>
      <point x="120" y="266"/>
    </contour>
    <contour>
      <point x="223" y="680" type="curve"/>
      <point x="223" y="710"/>
      <point x="203" y="726"/>
      <point x="175" y="726" type="curve"/>
      <point x="146" y="726"/>
      <point x="128" y="709"/>
      <point x="128" y="680" type="curve"/>
      <point x="223" y="680"/>
      <point x="128" y="680"/>
      <point x="223" y="680" type="curve"/>
      <point x="223" y="648"/>
      <point x="203" y="634"/>
      <point x="175" y="634" type="curve"/>
      <point x="146" y="634"/>
      <point x="128" y="650"/>
      <point x="128" y="680" type="curve"/>
      <point x="223" y="680"/>
      <point x="128" y="680"/>
    </contour>
    <contour>
      <point x="369" y="680" type="curve"/>
      <point x="369" y="710"/>
      <point x="348" y="726"/>
      <point x="320" y="726" type="curve"/>
      <point x="292" y="726"/>
      <point x="274" y="709"/>
      <point x="274" y="680" type="curve"/>
      <point x="369" y="680"/>
      <point x="274" y="680"/>
      <point x="369" y="680" type="curve"/>
      <point x="369" y="648"/>
      <point x="349" y="634"/>
      <point x="320" y="634" type="curve"/>
      <point x="291" y="634"/>
      <point x="274" y="650"/>
      <point x="274" y="680" type="curve"/>
      <point x="369" y="680"/>
      <point x="274" y="680"/>
    </contour>
  </outline>
</glyph>
<glyph name="oslash" format="1">
  <advance width="500"/>
  <unicode hex="00F8"/>
  <outline>
    <contour>
      <point x="153" y="-70" type="line"/>
      <point x="405" y="569" type="line"/>
      <point x="347" y="593" type="line"/>
      <point x="96" y="-45" type="line"/>
    </contour>
    <contour>
      <point x="132" y="266" type="curve"/>
      <point x="132" y="374"/>
      <point x="153" y="467"/>
      <point x="246" y="467" type="curve"/>
      <point x="340" y="467"/>
      <point x="363" y="374"/>
      <point x="363" y="265" type="curve"/>
      <point x="363" y="156"/>
      <point x="342" y="66"/>
      <point x="252" y="66" type="curve"/>
      <point x="151" y="67"/>
      <point x="132" y="157"/>
      <point x="132" y="266" type="curve"/>
      <point x="120" y="266"/>
      <point x="61" y="266"/>
      <point x="50" y="266" type="curve"/>
      <point x="50" y="111"/>
      <point x="106" y="-5"/>
      <point x="248" y="-5" type="curve"/>
      <point x="392" y="-5"/>
      <point x="450" y="109"/>
      <point x="450" y="265" type="curve"/>
      <point x="450" y="422"/>
      <point x="393" y="538"/>
      <point x="250" y="538" type="curve"/>
      <point x="107" y="538"/>
      <point x="50" y="422"/>
      <point x="50" y="266" type="curve"/>
      <point x="61" y="266"/>
      <point x="120" y="266"/>
    </contour>
  </outline>
</glyph>
<glyph name="thorn" format="1">
  <advance width="511"/>
  <unicode hex="00FE"/>
  <outline>
    <contour>
      <point x="113" y="-231" type="curve"/>
      <point x="-16" y="-231"/>
      <point x="117" y="-231"/>
      <point x="-12" y="-231" type="curve"/>
      <point x="-12" y="-300"/>
      <point x="-12" y="-231"/>
      <point x="-12" y="-300" type="curve"/>
      <point x="31" y="-300"/>
      <point x="70" y="-300"/>
      <point x="113" y="-300" type="curve"/>
      <point x="113" y="-231"/>
      <point x="113" y="-300"/>
    </contour>
    <contour>
      <point x="113" y="-300" type="curve"/>
      <point x="154" y="-300"/>
      <point x="191" y="-300"/>
      <point x="231" y="-300" type="curve"/>
      <point x="231" y="-231"/>
      <point x="231" y="-300"/>
      <point x="231" y="-231" type="curve"/>
      <point x="109" y="-231"/>
      <point x="236" y="-231"/>
      <point x="113" y="-231" type="curve"/>
      <point x="113" y="-300"/>
      <point x="113" y="-231"/>
    </contour>
    <contour>
      <point x="114" y="773" type="curve"/>
      <point x="71" y="773"/>
      <point x="32" y="773"/>
      <point x="-11" y="773" type="curve"/>
      <point x="-11" y="705"/>
      <point x="-11" y="773"/>
      <point x="-11" y="705" type="curve"/>
      <point x="118" y="705"/>
      <point x="-15" y="705"/>
      <point x="114" y="705" type="curve"/>
      <point x="114" y="773"/>
      <point x="114" y="705"/>
    </contour>
    <contour>
      <point x="135" y="382" type="curve"/>
      <point x="158" y="419"/>
      <point x="203" y="468"/>
      <point x="264" y="468" type="curve"/>
      <point x="356" y="468"/>
      <point x="375" y="373"/>
      <point x="375" y="268" type="curve"/>
      <point x="376" y="160"/>
      <point x="356" y="64"/>
      <point x="265" y="64" type="curve"/>
      <point x="209" y="64"/>
      <point x="175" y="97"/>
      <point x="141" y="143" type="curve"/>
      <point x="108" y="106"/>
      <point x="141" y="143"/>
      <point x="108" y="106" type="curve"/>
      <point x="154" y="40"/>
      <point x="201" y="-5"/>
      <point x="279" y="-5" type="curve"/>
      <point x="419" y="-5"/>
      <point x="462" y="123"/>
      <point x="462" y="272" type="curve"/>
      <point x="462" y="415"/>
      <point x="417" y="539"/>
      <point x="279" y="539" type="curve"/>
      <point x="202" y="539"/>
      <point x="144" y="482"/>
      <point x="113" y="430" type="curve"/>
      <point x="135" y="382"/>
      <point x="113" y="430"/>
    </contour>
    <contour>
      <point x="157" y="-300" type="curve"/>
      <point x="157" y="-22"/>
      <point x="157" y="495"/>
      <point x="157" y="773" type="curve"/>
      <point x="70" y="773"/>
      <point x="157" y="773"/>
      <point x="70" y="773" type="curve"/>
      <point x="70" y="495"/>
      <point x="70" y="-22"/>
      <point x="70" y="-300" type="curve"/>
      <point x="157" y="-300"/>
      <point x="70" y="-300"/>
    </contour>
  </outline>
</glyph>
<glyph name="ydieresis" format="1">
  <advance width="577"/>
  <unicode hex="00FF"/>
  <outline>
    <contour>
      <point x="195" y="-230" type="curve"/>
      <point x="81" y="-231"/>
      <point x="199" y="-230"/>
      <point x="85" y="-231" type="curve"/>
      <point x="85" y="-300"/>
      <point x="85" y="-231"/>
      <point x="85" y="-300" type="curve"/>
      <point x="123" y="-300"/>
      <point x="157" y="-299"/>
      <point x="195" y="-299" type="curve"/>
      <point x="195" y="-230"/>
      <point x="195" y="-299"/>
    </contour>
    <contour>
      <point x="123" y="534" type="curve"/>
      <point x="85" y="534"/>
      <point x="50" y="533"/>
      <point x="12" y="533" type="curve"/>
      <point x="12" y="464"/>
      <point x="12" y="533"/>
      <point x="12" y="464" type="curve"/>
      <point x="127" y="465"/>
      <point x="8" y="464"/>
      <point x="123" y="465" type="curve"/>
      <point x="123" y="534"/>
      <point x="123" y="465"/>
    </contour>
    <contour>
      <point x="123" y="465" type="curve"/>
      <point x="248" y="464"/>
      <point x="119" y="465"/>
      <point x="243" y="464" type="curve"/>
      <point x="243" y="533"/>
      <point x="243" y="464"/>
      <point x="243" y="533" type="curve"/>
      <point x="202" y="533"/>
      <point x="165" y="534"/>
      <point x="123" y="534" type="curve"/>
      <point x="123" y="465"/>
      <point x="123" y="534"/>
    </contour>
    <contour>
      <point x="463" y="534" type="curve"/>
      <point x="423" y="534"/>
      <point x="386" y="533"/>
      <point x="347" y="533" type="curve"/>
      <point x="347" y="464"/>
      <point x="347" y="533"/>
      <point x="347" y="464" type="curve"/>
      <point x="467" y="465"/>
      <point x="342" y="464"/>
      <point x="463" y="465" type="curve"/>
      <point x="463" y="534"/>
      <point x="463" y="465"/>
    </contour>
    <contour>
      <point x="463" y="465" type="curve"/>
      <point x="574" y="464"/>
      <point x="459" y="465"/>
      <point x="570" y="464" type="curve"/>
      <point x="570" y="533"/>
      <point x="570" y="464"/>
      <point x="570" y="533" type="curve"/>
      <point x="533" y="533"/>
      <point x="500" y="534"/>
      <point x="463" y="534" type="curve"/>
      <point x="463" y="465"/>
      <point x="463" y="534"/>
    </contour>
    <contour>
      <point x="329" y="-9" type="curve"/>
      <point x="297" y="89"/>
      <point x="191" y="434"/>
      <point x="159" y="533" type="curve"/>
      <point x="68" y="533"/>
      <point x="159" y="533"/>
      <point x="68" y="533" type="curve"/>
      <point x="103" y="435"/>
      <point x="213" y="85"/>
      <point x="248" y="-13" type="curve"/>
      <point x="329" y="-13"/>
      <point x="248" y="-9"/>
    </contour>
    <contour>
      <point x="231" y="-300" type="curve"/>
      <point x="285" y="-152"/>
      <point x="463" y="385"/>
      <point x="516" y="533" type="curve"/>
      <point x="427" y="533"/>
      <point x="516" y="533"/>
      <point x="427" y="533" type="curve"/>
      <point x="372" y="385"/>
      <point x="194" y="-152"/>
      <point x="140" y="-300" type="curve"/>
      <point x="231" y="-300"/>
      <point x="140" y="-300"/>
    </contour>
    <contour>
      <point x="274" y="680" type="curve"/>
      <point x="274" y="711"/>
      <point x="254" y="726"/>
      <point x="226" y="726" type="curve"/>
      <point x="197" y="726"/>
      <point x="179" y="709"/>
      <point x="179" y="680" type="curve"/>
      <point x="274" y="680"/>
      <point x="179" y="680"/>
      <point x="274" y="680" type="curve"/>
      <point x="274" y="649"/>
      <point x="255" y="634"/>
      <point x="226" y="634" type="curve"/>
      <point x="197" y="634"/>
      <point x="179" y="650"/>
      <point x="179" y="680" type="curve"/>
      <point x="274" y="680"/>
      <point x="179" y="680"/>
    </contour>
    <contour>
      <point x="420" y="680" type="curve"/>
      <point x="420" y="711"/>
      <point x="400" y="726"/>
      <point x="371" y="726" type="curve"/>
      <point x="343" y="726"/>
      <point x="324" y="709"/>
      <point x="324" y="680" type="curve"/>
      <point x="420" y="680"/>
      <point x="324" y="680"/>
      <point x="420" y="680" type="curve"/>
      <point x="420" y="649"/>
      <point x="400" y="634"/>
      <point x="371" y="634" type="curve"/>
      <point x="343" y="634"/>
      <point x="324" y="650"/>
      <point x="324" y="680" type="curve"/>
      <point x="420" y="680"/>
      <point x="324" y="680"/>
    </contour>
  </outline>
</glyph>
<glyph name="aogonek" format="1">
  <advance width="483"/>
  <unicode hex="0105"/>
  <outline>
    <contour>
      <point x="73" y="462" type="curve"/>
      <point x="73" y="347"/>
      <point x="73" y="467"/>
      <point x="73" y="351" type="curve"/>
      <point x="142" y="351"/>
      <point x="73" y="351"/>
      <point x="142" y="351" type="curve"/>
      <point x="142" y="467"/>
      <point x="142" y="347"/>
      <point x="142" y="462" type="curve"/>
      <point x="73" y="462"/>
      <point x="142" y="462"/>
    </contour>
    <contour>
      <point x="394" y="0" type="curve"/>
      <point x="394" y="126"/>
      <point x="394" y="253"/>
      <point x="394" y="379" type="curve"/>
      <point x="394" y="487"/>
      <point x="335" y="538"/>
      <point x="234" y="538" type="curve"/>
      <point x="160" y="538"/>
      <point x="109" y="503"/>
      <point x="73" y="462" type="curve"/>
      <point x="108" y="405"/>
      <point x="73" y="462"/>
      <point x="108" y="405" type="curve"/>
      <point x="132" y="432"/>
      <point x="169" y="467"/>
      <point x="222" y="467" type="curve"/>
      <point x="281" y="467"/>
      <point x="306" y="430"/>
      <point x="306" y="367" type="curve"/>
      <point x="306" y="244"/>
      <point x="306" y="122"/>
      <point x="306" y="0" type="curve"/>
      <point x="394" y="0"/>
      <point x="306" y="0"/>
    </contour>
    <contour>
      <point x="351" y="0" type="curve"/>
      <point x="391" y="0"/>
      <point x="428" y="0"/>
      <point x="467" y="0" type="curve"/>
      <point x="467" y="69"/>
      <point x="467" y="0"/>
      <point x="467" y="69" type="curve"/>
      <point x="347" y="69"/>
      <point x="472" y="69"/>
      <point x="351" y="69" type="curve"/>
      <point x="351" y="0"/>
      <point x="351" y="69"/>
    </contour>
    <contour>
      <point x="347" y="336" type="curve"/>
      <point x="291" y="326"/>
      <point x="260" y="323"/>
      <point x="203" y="313" type="curve"/>
      <point x="110" y="297"/>
      <point x="51" y="249"/>
      <point x="51" y="154" type="curve"/>
      <point x="51" y="57"/>
      <point x="94" y="-5"/>
      <point x="188" y="-5" type="curve"/>
      <point x="287" y="-5"/>
      <point x="326" y="77"/>
      <point x="373" y="152" type="curve"/>
      <point x="328" y="191"/>
      <point x="373" y="152"/>
      <point x="328" y="191" type="curve"/>
      <point x="303" y="126"/>
      <point x="274" y="64"/>
      <point x="208" y="64" type="curve"/>
      <point x="153" y="64"/>
      <point x="136" y="101"/>
      <point x="136" y="158" type="curve"/>
      <point x="136" y="208"/>
      <point x="163" y="243"/>
      <point x="205" y="251" type="curve"/>
      <point x="265" y="262"/>
      <point x="291" y="267"/>
      <point x="351" y="277" type="curve"/>
      <point x="347" y="336"/>
      <point x="351" y="277"/>
    </contour>
    <contour>
      <point x="368" y="50" type="curve"/>
      <point x="312" y="19"/>
      <point x="268" y="-12"/>
      <point x="268" y="-74" type="curve"/>
      <point x="268" y="-139"/>
      <point x="303" y="-187"/>
      <point x="365" y="-187" type="curve"/>
      <point x="396" y="-187"/>
      <point x="418" y="-174"/>
      <point x="442" y="-154" type="curve"/>
      <point x="405" y="-105"/>
      <point x="438" y="-150"/>
      <point x="401" y="-101" type="curve"/>
      <point x="391" y="-109"/>
      <point x="382" y="-118"/>
      <point x="370" y="-118" type="curve"/>
      <point x="348" y="-118"/>
      <point x="339" y="-98"/>
      <point x="339" y="-74" type="curve"/>
      <point x="339" y="-38"/>
      <point x="368" y="-18"/>
      <point x="399" y="2" type="curve"/>
      <point x="370" y="45"/>
      <point x="397" y="6"/>
    </contour>
  </outline>
</glyph>
<glyph name="Cacute" format="1">
  <advance width="566"/>
  <unicode hex="0106"/>
  <outline>
    <contour>
      <point x="438" y="654" type="curve"/>
      <point x="438" y="534"/>
      <point x="438" y="654"/>
      <point x="438" y="534" type="curve"/>
      <point x="508" y="534"/>
      <point x="438" y="534"/>
      <point x="508" y="534" type="curve"/>
      <point x="508" y="654"/>
      <point x="508" y="534"/>
      <point x="508" y="654" type="curve"/>
      <point x="438" y="654"/>
      <point x="508" y="654"/>
    </contour>
    <contour>
      <point x="508" y="654" type="curve"/>
      <point x="457" y="696"/>
      <point x="395" y="727"/>
      <point x="323" y="727" type="curve"/>
      <point x="128" y="727"/>
      <point x="56" y="565"/>
      <point x="56" y="345" type="curve"/>
      <point x="56" y="143"/>
      <point x="126" y="-5"/>
      <point x="308" y="-5" type="curve"/>
      <point x="403" y="-5"/>
      <point x="463" y="31"/>
      <point x="521" y="98" type="curve"/>
      <point x="469" y="149"/>
      <point x="521" y="98"/>
      <point x="469" y="149" type="curve"/>
      <point x="423" y="100"/>
      <point x="381" y="68"/>
      <point x="312" y="68" type="curve"/>
      <point x="178" y="68"/>
      <point x="144" y="192"/>
      <point x="144" y="348" type="curve"/>
      <point x="144" y="518"/>
      <point x="177" y="655"/>
      <point x="319" y="655" type="curve"/>
      <point x="375" y="655"/>
      <point x="422" y="631"/>
      <point x="461" y="600" type="curve"/>
      <point x="508" y="654"/>
      <point x="461" y="600"/>
    </contour>
    <contour>
      <point x="357" y="801" type="line"/>
      <point x="457" y="967" type="line"/>
      <point x="349" y="967" type="line"/>
      <point x="274" y="801" type="line"/>
    </contour>
  </outline>
</glyph>
<glyph name="Imacron" format="1">
  <advance width="330"/>
  <unicode hex="012A"/>
  <outline>
    <contour>
      <point x="165" y="722" type="curve"/>
      <point x="120" y="722"/>
      <point x="85" y="722"/>
      <point x="39" y="722" type="curve"/>
      <point x="39" y="653"/>
      <point x="39" y="722"/>
      <point x="39" y="653" type="curve"/>
      <point x="175" y="653"/>
      <point x="30" y="653"/>
      <point x="165" y="653" type="curve"/>
      <point x="165" y="722"/>
      <point x="165" y="653"/>
    </contour>
    <contour>
      <point x="165" y="653" type="curve"/>
      <point x="300" y="653"/>
      <point x="156" y="653"/>
      <point x="291" y="653" type="curve"/>
      <point x="291" y="722"/>
      <point x="291" y="653"/>
      <point x="291" y="722" type="curve"/>
      <point x="246" y="722"/>
      <point x="210" y="722"/>
      <point x="165" y="722" type="curve"/>
      <point x="165" y="653"/>
      <point x="165" y="722"/>
    </contour>
    <contour>
      <point x="165" y="0" type="curve"/>
      <point x="210" y="0"/>
      <point x="246" y="0"/>
      <point x="291" y="0" type="curve"/>
      <point x="291" y="69"/>
      <point x="291" y="0"/>
      <point x="291" y="69" type="curve"/>
      <point x="156" y="69"/>
      <point x="300" y="69"/>
      <point x="165" y="69" type="curve"/>
      <point x="165" y="0"/>
      <point x="165" y="69"/>
    </contour>
    <contour>
      <point x="165" y="69" type="curve"/>
      <point x="30" y="69"/>
      <point x="175" y="69"/>
      <point x="39" y="69" type="curve"/>
      <point x="39" y="0"/>
      <point x="39" y="69"/>
      <point x="39" y="0" type="curve"/>
      <point x="85" y="0"/>
      <point x="120" y="0"/>
      <point x="165" y="0" type="curve"/>
      <point x="165" y="69"/>
      <point x="165" y="0"/>
    </contour>
    <contour>
      <point x="208" y="0" type="curve"/>
      <point x="208" y="241"/>
      <point x="208" y="481"/>
      <point x="208" y="722" type="curve"/>
      <point x="121" y="722"/>
      <point x="208" y="722"/>
      <point x="121" y="722" type="curve"/>
      <point x="121" y="481"/>
      <point x="121" y="241"/>
      <point x="121" y="0" type="curve"/>
      <point x="208" y="0"/>
      <point x="121" y="0"/>
    </contour>
    <contour>
      <point x="247" y="869" type="curve"/>
      <point x="193" y="869"/>
      <point x="138" y="869"/>
      <point x="84" y="869" type="curve"/>
      <point x="84" y="801"/>
      <point x="84" y="869"/>
      <point x="84" y="801" type="curve"/>
      <point x="138" y="801"/>
      <point x="193" y="801"/>
      <point x="247" y="801" type="curve"/>
      <point x="247" y="869"/>
      <point x="247" y="801"/>
    </contour>
  </outline>
</glyph>
<glyph name="imacron" format="1">
  <advance width="298"/>
  <unicode hex="012B"/>
  <outline>
    <contour>
      <point x="160" y="69" type="curve"/>
      <point x="30" y="69"/>
      <point x="164" y="69"/>
      <point x="35" y="69" type="curve"/>
      <point x="34" y="0"/>
      <point x="35" y="69"/>
      <point x="34" y="0" type="curve"/>
      <point x="77" y="0"/>
      <point x="117" y="0"/>
      <point x="160" y="0" type="curve"/>
      <point x="160" y="69"/>
      <point x="160" y="0"/>
    </contour>
    <contour>
      <point x="160" y="0" type="curve"/>
      <point x="200" y="0"/>
      <point x="237" y="0"/>
      <point x="278" y="0" type="curve"/>
      <point x="278" y="69"/>
      <point x="278" y="0"/>
      <point x="278" y="69" type="curve"/>
      <point x="156" y="69"/>
      <point x="282" y="69"/>
      <point x="160" y="69" type="curve"/>
      <point x="160" y="0"/>
      <point x="160" y="69"/>
    </contour>
    <contour>
      <point x="160" y="533" type="curve"/>
      <point x="117" y="533"/>
      <point x="77" y="533"/>
      <point x="35" y="533" type="curve"/>
      <point x="34" y="464"/>
      <point x="35" y="533"/>
      <point x="34" y="464" type="curve"/>
      <point x="164" y="464"/>
      <point x="30" y="464"/>
      <point x="160" y="464" type="curve"/>
      <point x="160" y="533"/>
      <point x="160" y="464"/>
    </contour>
    <contour>
      <point x="206" y="0" type="curve"/>
      <point x="206" y="178"/>
      <point x="206" y="355"/>
      <point x="206" y="533" type="curve"/>
      <point x="114" y="533"/>
      <point x="206" y="533"/>
      <point x="114" y="533" type="curve"/>
      <point x="114" y="355"/>
      <point x="114" y="178"/>
      <point x="114" y="0" type="curve"/>
      <point x="206" y="0"/>
      <point x="114" y="0"/>
    </contour>
    <contour>
      <point x="241" y="707" type="curve"/>
      <point x="187" y="707"/>
      <point x="132" y="707"/>
      <point x="78" y="707" type="curve"/>
      <point x="78" y="639"/>
      <point x="78" y="707"/>
      <point x="78" y="639" type="curve"/>
      <point x="132" y="639"/>
      <point x="187" y="639"/>
      <point x="241" y="639" type="curve"/>
      <point x="241" y="707"/>
      <point x="241" y="639"/>
    </contour>
  </outline>
</glyph>
<glyph name="iogonek" format="1">
  <advance width="289"/>
  <unicode hex="012F"/>
  <outline>
    <contour>
      <point x="156" y="69" type="curve"/>
      <point x="26" y="69"/>
      <point x="160" y="69"/>
      <point x="30" y="69" type="curve"/>
      <point x="30" y="0"/>
      <point x="30" y="69"/>
      <point x="30" y="0" type="curve"/>
      <point x="73" y="0"/>
      <point x="112" y="0"/>
      <point x="156" y="0" type="curve"/>
      <point x="156" y="69"/>
      <point x="156" y="0"/>
    </contour>
    <contour>
      <point x="156" y="0" type="curve"/>
      <point x="196" y="0"/>
      <point x="233" y="0"/>
      <point x="274" y="0" type="curve"/>
      <point x="274" y="69"/>
      <point x="274" y="0"/>
      <point x="274" y="69" type="curve"/>
      <point x="151" y="69"/>
      <point x="278" y="69"/>
      <point x="156" y="69" type="curve"/>
      <point x="156" y="0"/>
      <point x="156" y="69"/>
    </contour>
    <contour>
      <point x="156" y="533" type="curve"/>
      <point x="112" y="533"/>
      <point x="73" y="533"/>
      <point x="30" y="533" type="curve"/>
      <point x="30" y="464"/>
      <point x="30" y="533"/>
      <point x="30" y="464" type="curve"/>
      <point x="160" y="464"/>
      <point x="26" y="464"/>
      <point x="156" y="464" type="curve"/>
      <point x="156" y="533"/>
      <point x="156" y="464"/>
    </contour>
    <contour>
      <point x="202" y="0" type="curve"/>
      <point x="202" y="178"/>
      <point x="202" y="355"/>
      <point x="202" y="533" type="curve"/>
      <point x="110" y="533"/>
      <point x="202" y="533"/>
      <point x="110" y="533" type="curve"/>
      <point x="110" y="355"/>
      <point x="110" y="178"/>
      <point x="110" y="0" type="curve"/>
      <point x="202" y="0"/>
      <point x="110" y="0"/>
    </contour>
    <contour>
      <point x="200" y="681" type="curve"/>
      <point x="200" y="712"/>
      <point x="180" y="728"/>
      <point x="152" y="728" type="curve"/>
      <point x="123" y="728"/>
      <point x="105" y="710"/>
      <point x="105" y="681" type="curve"/>
      <point x="200" y="681"/>
      <point x="105" y="681"/>
      <point x="200" y="681" type="curve"/>
      <point x="200" y="650"/>
      <point x="181" y="636"/>
      <point x="152" y="636" type="curve"/>
      <point x="123" y="636"/>
      <point x="105" y="651"/>
      <point x="105" y="681" type="curve"/>
      <point x="200" y="681"/>
      <point x="105" y="681"/>
    </contour>
    <contour>
      <point x="171" y="50" type="curve"/>
      <point x="116" y="19"/>
      <point x="72" y="-12"/>
      <point x="72" y="-74" type="curve"/>
      <point x="72" y="-139"/>
      <point x="106" y="-187"/>
      <point x="169" y="-187" type="curve"/>
      <point x="200" y="-187"/>
      <point x="221" y="-174"/>
      <point x="246" y="-154" type="curve"/>
      <point x="209" y="-105"/>
      <point x="241" y="-150"/>
      <point x="205" y="-101" type="curve"/>
      <point x="195" y="-109"/>
      <point x="185" y="-118"/>
      <point x="173" y="-118" type="curve"/>
      <point x="152" y="-118"/>
      <point x="142" y="-98"/>
      <point x="142" y="-74" type="curve"/>
      <point x="142" y="-38"/>
      <point x="172" y="-18"/>
      <point x="203" y="2" type="curve"/>
      <point x="174" y="45"/>
      <point x="200" y="6"/>
    </contour>
  </outline>
</glyph>
<glyph name="Lcommaaccent" format="1">
  <advance width="498"/>
  <unicode hex="013B"/>
  <outline>
    <contour>
      <point x="471" y="34" type="curve"/>
      <point x="471" y="154"/>
      <point x="471" y="30"/>
      <point x="471" y="150" type="curve"/>
      <point x="401" y="150"/>
      <point x="471" y="150"/>
      <point x="401" y="150" type="curve"/>
      <point x="401" y="30"/>
      <point x="401" y="154"/>
      <point x="401" y="34" type="curve"/>
      <point x="471" y="34"/>
      <point x="401" y="34"/>
    </contour>
    <contour>
      <point x="164" y="69" type="curve"/>
      <point x="30" y="69"/>
      <point x="174" y="69"/>
      <point x="39" y="69" type="curve"/>
      <point x="38" y="0"/>
      <point x="39" y="69"/>
      <point x="38" y="0" type="curve"/>
      <point x="84" y="0"/>
      <point x="119" y="0"/>
      <point x="164" y="0" type="curve"/>
      <point x="164" y="69"/>
      <point x="164" y="0"/>
    </contour>
    <contour>
      <point x="164" y="722" type="curve"/>
      <point x="119" y="722"/>
      <point x="84" y="722"/>
      <point x="39" y="722" type="curve"/>
      <point x="38" y="653"/>
      <point x="39" y="722"/>
      <point x="38" y="653" type="curve"/>
      <point x="174" y="653"/>
      <point x="29" y="653"/>
      <point x="164" y="653" type="curve"/>
      <point x="164" y="722"/>
      <point x="164" y="653"/>
    </contour>
    <contour>
      <point x="164" y="653" type="curve"/>
      <point x="299" y="653"/>
      <point x="155" y="653"/>
      <point x="290" y="653" type="curve"/>
      <point x="290" y="722"/>
      <point x="290" y="653"/>
      <point x="290" y="722" type="curve"/>
      <point x="245" y="722"/>
      <point x="209" y="722"/>
      <point x="164" y="722" type="curve"/>
      <point x="164" y="653"/>
      <point x="164" y="722"/>
    </contour>
    <contour>
      <point x="209" y="0" type="curve"/>
      <point x="209" y="241"/>
      <point x="209" y="481"/>
      <point x="209" y="722" type="curve"/>
      <point x="121" y="722"/>
      <point x="209" y="722"/>
      <point x="121" y="722" type="curve"/>
      <point x="121" y="481"/>
      <point x="121" y="241"/>
      <point x="121" y="0" type="curve"/>
      <point x="209" y="0"/>
      <point x="121" y="0"/>
    </contour>
    <contour>
      <point x="164" y="0" type="curve"/>
      <point x="266" y="0"/>
      <point x="369" y="0"/>
      <point x="471" y="0" type="curve"/>
      <point x="471" y="69"/>
      <point x="471" y="0"/>
      <point x="471" y="69" type="curve"/>
      <point x="369" y="69"/>
      <point x="266" y="69"/>
      <point x="164" y="69" type="curve"/>
      <point x="164" y="0"/>
      <point x="164" y="69"/>
    </contour>
    <contour>
      <point x="216" y="-305" type="line"/>
      <point x="279" y="-293"/>
      <point x="322" y="-244"/>
      <point x="322" y="-165" type="curve"/>
      <point x="322" y="-108"/>
      <point x="303" y="-76"/>
      <point x="269" y="-76" type="curve"/>
      <point x="240" y="-76"/>
      <point x="221" y="-92"/>
      <point x="221" y="-122" type="curve"/>
      <point x="221" y="-147"/>
      <point x="234" y="-166"/>
      <point x="260" y="-168" type="curve"/>
      <point x="260" y="-192"/>
      <point x="254" y="-238"/>
      <point x="209" y="-255" type="curve"/>
    </contour>
  </outline>
</glyph>
<glyph name="Lcaron" format="1">
  <advance width="509"/>
  <unicode hex="013D"/>
  <outline>
    <contour>
      <point x="471" y="34" type="curve"/>
      <point x="471" y="154"/>
      <point x="471" y="30"/>
      <point x="471" y="150" type="curve"/>
      <point x="401" y="150"/>
      <point x="471" y="150"/>
      <point x="401" y="150" type="curve"/>
      <point x="401" y="30"/>
      <point x="401" y="154"/>
      <point x="401" y="34" type="curve"/>
      <point x="471" y="34"/>
      <point x="401" y="34"/>
    </contour>
    <contour>
      <point x="164" y="69" type="curve"/>
      <point x="30" y="69"/>
      <point x="174" y="69"/>
      <point x="39" y="69" type="curve"/>
      <point x="38" y="0"/>
      <point x="39" y="69"/>
      <point x="38" y="0" type="curve"/>
      <point x="84" y="0"/>
      <point x="119" y="0"/>
      <point x="164" y="0" type="curve"/>
      <point x="164" y="69"/>
      <point x="164" y="0"/>
    </contour>
    <contour>
      <point x="164" y="722" type="curve"/>
      <point x="119" y="722"/>
      <point x="84" y="722"/>
      <point x="39" y="722" type="curve"/>
      <point x="38" y="653"/>
      <point x="39" y="722"/>
      <point x="38" y="653" type="curve"/>
      <point x="174" y="653"/>
      <point x="29" y="653"/>
      <point x="164" y="653" type="curve"/>
      <point x="164" y="722"/>
      <point x="164" y="653"/>
    </contour>
    <contour>
      <point x="164" y="653" type="curve"/>
      <point x="299" y="653"/>
      <point x="155" y="653"/>
      <point x="290" y="653" type="curve"/>
      <point x="290" y="722"/>
      <point x="290" y="653"/>
      <point x="290" y="722" type="curve"/>
      <point x="245" y="722"/>
      <point x="209" y="722"/>
      <point x="164" y="722" type="curve"/>
      <point x="164" y="653"/>
      <point x="164" y="722"/>
    </contour>
    <contour>
      <point x="209" y="0" type="curve"/>
      <point x="209" y="241"/>
      <point x="209" y="481"/>
      <point x="209" y="722" type="curve"/>
      <point x="121" y="722"/>
      <point x="209" y="722"/>
      <point x="121" y="722" type="curve"/>
      <point x="121" y="481"/>
      <point x="121" y="241"/>
      <point x="121" y="0" type="curve"/>
      <point x="209" y="0"/>
      <point x="121" y="0"/>
    </contour>
    <contour>
      <point x="164" y="0" type="curve"/>
      <point x="266" y="0"/>
      <point x="369" y="0"/>
      <point x="471" y="0" type="curve"/>
      <point x="471" y="69"/>
      <point x="471" y="0"/>
      <point x="471" y="69" type="curve"/>
      <point x="369" y="69"/>
      <point x="266" y="69"/>
      <point x="164" y="69" type="curve"/>
      <point x="164" y="0"/>
      <point x="164" y="69"/>
    </contour>
    <contour>
      <point x="414" y="532" type="line"/>
      <point x="477" y="544"/>
      <point x="520" y="594"/>
      <point x="520" y="673" type="curve"/>
      <point x="520" y="729"/>
      <point x="500" y="762"/>
      <point x="467" y="762" type="curve"/>
      <point x="437" y="762"/>
      <point x="419" y="746"/>
      <point x="419" y="715" type="curve"/>
      <point x="419" y="690"/>
      <point x="432" y="671"/>
      <point x="458" y="669" type="curve"/>
      <point x="458" y="645"/>
      <point x="452" y="599"/>
      <point x="407" y="582" type="curve"/>
    </contour>
  </outline>
</glyph>
<glyph name="lcaron" format="1">
  <advance width="315"/>
  <unicode hex="013E"/>
  <outline>
    <contour>
      <point x="144" y="69" type="curve"/>
      <point x="14" y="69"/>
      <point x="144" y="69"/>
      <point x="14" y="69" type="curve"/>
      <point x="14" y="0"/>
      <point x="14" y="69"/>
      <point x="14" y="0" type="curve"/>
      <point x="58" y="0"/>
      <point x="100" y="0"/>
      <point x="144" y="0" type="curve"/>
      <point x="144" y="69"/>
      <point x="144" y="-1"/>
    </contour>
    <contour>
      <point x="145" y="800" type="curve"/>
      <point x="102" y="800"/>
      <point x="59" y="800"/>
      <point x="15" y="800" type="curve"/>
      <point x="15" y="731"/>
      <point x="15" y="800"/>
      <point x="15" y="731" type="curve"/>
      <point x="145" y="731"/>
      <point x="15" y="731"/>
      <point x="145" y="731" type="curve"/>
      <point x="145" y="799"/>
      <point x="145" y="731"/>
    </contour>
    <contour>
      <point x="144" y="0" type="curve"/>
      <point x="187" y="0"/>
      <point x="231" y="0"/>
      <point x="274" y="0" type="curve"/>
      <point x="274" y="69"/>
      <point x="274" y="0"/>
      <point x="274" y="69" type="curve"/>
      <point x="144" y="69"/>
      <point x="274" y="69"/>
      <point x="144" y="69" type="curve"/>
      <point x="144" y="-1"/>
      <point x="144" y="69"/>
    </contour>
    <contour>
      <point x="187" y="0" type="curve"/>
      <point x="187" y="267"/>
      <point x="187" y="533"/>
      <point x="187" y="800" type="curve"/>
      <point x="99" y="800"/>
      <point x="187" y="800"/>
      <point x="99" y="800" type="curve"/>
      <point x="99" y="533"/>
      <point x="99" y="267"/>
      <point x="99" y="0" type="curve"/>
      <point x="187" y="0"/>
      <point x="99" y="0"/>
    </contour>
    <contour>
      <point x="324" y="614" type="line"/>
      <point x="387" y="626"/>
      <point x="430" y="675"/>
      <point x="430" y="754" type="curve"/>
      <point x="430" y="811"/>
      <point x="410" y="843"/>
      <point x="377" y="843" type="curve"/>
      <point x="348" y="843"/>
      <point x="329" y="827"/>
      <point x="329" y="797" type="curve"/>
      <point x="329" y="772"/>
      <point x="342" y="753"/>
      <point x="368" y="751" type="curve"/>
      <point x="368" y="727"/>
      <point x="362" y="681"/>
      <point x="317" y="664" type="curve"/>
    </contour>
  </outline>
</glyph>
<glyph name="ohungarumlaut" format="1">
  <advance width="501"/>
  <unicode hex="0151"/>
  <outline>
    <contour>
      <point x="132" y="266" type="curve"/>
      <point x="132" y="374"/>
      <point x="153" y="467"/>
      <point x="246" y="467" type="curve"/>
      <point x="340" y="467"/>
      <point x="363" y="374"/>
      <point x="363" y="265" type="curve"/>
      <point x="363" y="156"/>
      <point x="342" y="66"/>
      <point x="252" y="66" type="curve"/>
      <point x="151" y="67"/>
      <point x="132" y="157"/>
      <point x="132" y="266" type="curve"/>
      <point x="120" y="266"/>
      <point x="61" y="266"/>
      <point x="50" y="266" type="curve"/>
      <point x="50" y="111"/>
      <point x="106" y="-5"/>
      <point x="248" y="-5" type="curve"/>
      <point x="392" y="-5"/>
      <point x="450" y="109"/>
      <point x="450" y="265" type="curve"/>
      <point x="450" y="422"/>
      <point x="393" y="538"/>
      <point x="250" y="538" type="curve"/>
      <point x="107" y="538"/>
      <point x="50" y="422"/>
      <point x="50" y="266" type="curve"/>
      <point x="61" y="266"/>
      <point x="120" y="266"/>
    </contour>
    <contour>
      <point x="198" y="651" type="line"/>
      <point x="298" y="817" type="line"/>
      <point x="190" y="817" type="line"/>
      <point x="114" y="651" type="line"/>
    </contour>
    <contour>
      <point x="353" y="651" type="line"/>
      <point x="453" y="817" type="line"/>
      <point x="345" y="817" type="line"/>
      <point x="270" y="651" type="line"/>
    </contour>
  </outline>
</glyph>
<glyph name="OE" format="1">
  <advance width="806"/>
  <unicode hex="0152"/>
  <outline>
    <contour>
      <point x="484" y="669" type="curve"/>
      <point x="438" y="706"/>
      <point x="388" y="726"/>
      <point x="326" y="726" type="curve"/>
      <point x="130" y="726"/>
      <point x="56" y="563"/>
      <point x="56" y="345" type="curve"/>
      <point x="56" y="145"/>
      <point x="127" y="-4"/>
      <point x="308" y="-4" type="curve"/>
      <point x="386" y="-4"/>
      <point x="440" y="17"/>
      <point x="491" y="70" type="curve"/>
      <point x="444" y="116"/>
      <point x="486" y="74"/>
      <point x="439" y="121" type="curve"/>
      <point x="400" y="85"/>
      <point x="365" y="69"/>
      <point x="312" y="69" type="curve"/>
      <point x="180" y="69"/>
      <point x="143" y="194"/>
      <point x="143" y="348" type="curve"/>
      <point x="143" y="517"/>
      <point x="180" y="653"/>
      <point x="322" y="653" type="curve"/>
      <point x="368" y="653"/>
      <point x="403" y="642"/>
      <point x="436" y="615" type="curve"/>
      <point x="480" y="664"/>
      <point x="440" y="620"/>
    </contour>
    <contour>
      <point x="763" y="34" type="curve"/>
      <point x="763" y="154"/>
      <point x="763" y="30"/>
      <point x="763" y="150" type="curve"/>
      <point x="693" y="150"/>
      <point x="763" y="150"/>
      <point x="693" y="150" type="curve"/>
      <point x="693" y="30"/>
      <point x="693" y="154"/>
      <point x="693" y="34" type="curve"/>
      <point x="763" y="34"/>
      <point x="693" y="34"/>
    </contour>
    <contour>
      <point x="669" y="688" type="curve"/>
      <point x="669" y="568"/>
      <point x="669" y="692"/>
      <point x="669" y="572" type="curve"/>
      <point x="739" y="572"/>
      <point x="669" y="572"/>
      <point x="739" y="572" type="curve"/>
      <point x="739" y="692"/>
      <point x="739" y="568"/>
      <point x="739" y="688" type="curve"/>
      <point x="669" y="688"/>
      <point x="739" y="688"/>
    </contour>
    <contour>
      <point x="452" y="69" type="curve"/>
      <point x="317" y="69"/>
      <point x="461" y="69"/>
      <point x="327" y="69" type="curve"/>
      <point x="327" y="0"/>
      <point x="327" y="69"/>
      <point x="327" y="0" type="curve"/>
      <point x="372" y="0"/>
      <point x="407" y="0"/>
      <point x="452" y="0" type="curve"/>
      <point x="452" y="69"/>
      <point x="452" y="0"/>
    </contour>
    <contour>
      <point x="452" y="722" type="curve"/>
      <point x="407" y="722"/>
      <point x="372" y="722"/>
      <point x="327" y="722" type="curve"/>
      <point x="327" y="653"/>
      <point x="327" y="722"/>
      <point x="327" y="653" type="curve"/>
      <point x="461" y="653"/>
      <point x="317" y="653"/>
      <point x="452" y="653" type="curve"/>
      <point x="452" y="722"/>
      <point x="452" y="653"/>
    </contour>
    <contour>
      <point x="454" y="339" type="curve"/>
      <point x="534" y="339"/>
      <point x="613" y="339"/>
      <point x="693" y="339" type="curve"/>
      <point x="693" y="408"/>
      <point x="693" y="339"/>
      <point x="693" y="408" type="curve"/>
      <point x="613" y="408"/>
      <point x="534" y="408"/>
      <point x="454" y="408" type="curve"/>
      <point x="454" y="339"/>
      <point x="454" y="408"/>
    </contour>
    <contour>
      <point x="443" y="653" type="curve"/>
      <point x="542" y="653"/>
      <point x="640" y="653"/>
      <point x="739" y="653" type="curve"/>
      <point x="739" y="722"/>
      <point x="739" y="653"/>
      <point x="739" y="722" type="curve"/>
      <point x="640" y="722"/>
      <point x="542" y="722"/>
      <point x="443" y="722" type="curve"/>
      <point x="443" y="653"/>
      <point x="443" y="722"/>
    </contour>
    <contour>
      <point x="495" y="0" type="curve"/>
      <point x="495" y="722" type="line"/>
      <point x="408" y="722"/>
      <point x="495" y="722"/>
      <point x="408" y="722" type="curve"/>
      <point x="408" y="481"/>
      <point x="408" y="241"/>
      <point x="408" y="0" type="curve"/>
      <point x="495" y="0"/>
      <point x="408" y="0"/>
    </contour>
    <contour>
      <point x="443" y="0" type="curve"/>
      <point x="550" y="0"/>
      <point x="656" y="0"/>
      <point x="763" y="0" type="curve"/>
      <point x="763" y="69"/>
      <point x="763" y="0"/>
      <point x="763" y="69" type="curve"/>
      <point x="656" y="69"/>
      <point x="550" y="69"/>
      <point x="443" y="69" type="curve"/>
      <point x="443" y="0"/>
      <point x="443" y="69"/>
    </contour>
  </outline>
</glyph>
<glyph name="Rcommaaccent" format="1">
  <advance width="621"/>
  <unicode hex="0156"/>
  <outline>
    <contour>
      <point x="503" y="0" type="curve"/>
      <point x="539" y="0"/>
      <point x="567" y="0"/>
      <point x="605" y="0" type="curve"/>
      <point x="605" y="69"/>
      <point x="605" y="0"/>
      <point x="605" y="69" type="curve"/>
      <point x="493" y="69"/>
      <point x="614" y="69"/>
      <point x="503" y="69" type="curve"/>
      <point x="503" y="0"/>
      <point x="503" y="69"/>
    </contour>
    <contour>
      <point x="175" y="722" type="curve"/>
      <point x="130" y="722"/>
      <point x="95" y="722"/>
      <point x="51" y="722" type="curve"/>
      <point x="51" y="653"/>
      <point x="51" y="722"/>
      <point x="51" y="653" type="curve"/>
      <point x="185" y="653"/>
      <point x="42" y="653"/>
      <point x="175" y="653" type="curve"/>
      <point x="175" y="722"/>
      <point x="175" y="653"/>
    </contour>
    <contour>
      <point x="175" y="69" type="curve"/>
      <point x="42" y="69"/>
      <point x="185" y="69"/>
      <point x="51" y="69" type="curve"/>
      <point x="51" y="0"/>
      <point x="51" y="69"/>
      <point x="51" y="0" type="curve"/>
      <point x="95" y="0"/>
      <point x="130" y="0"/>
      <point x="175" y="0" type="curve"/>
      <point x="175" y="69"/>
      <point x="175" y="0"/>
    </contour>
    <contour>
      <point x="175" y="0" type="curve"/>
      <point x="219" y="0"/>
      <point x="166" y="0"/>
      <point x="299" y="0" type="curve"/>
      <point x="299" y="69"/>
      <point x="299" y="0"/>
      <point x="299" y="69" type="curve"/>
      <point x="166" y="69"/>
      <point x="308" y="69"/>
      <point x="175" y="69" type="curve"/>
      <point x="175" y="0"/>
      <point x="175" y="69"/>
    </contour>
    <contour>
      <point x="280" y="354" type="curve"/>
      <point x="343" y="236"/>
      <point x="405" y="118"/>
      <point x="466" y="0" type="curve"/>
      <point x="559" y="0"/>
      <point x="465" y="0"/>
      <point x="558" y="0" type="curve"/>
      <point x="496" y="118"/>
      <point x="434" y="236"/>
      <point x="372" y="354" type="curve"/>
      <point x="279" y="354"/>
      <point x="373" y="354"/>
    </contour>
    <contour>
      <point x="220" y="0" type="curve"/>
      <point x="220" y="241"/>
      <point x="220" y="481"/>
      <point x="220" y="722" type="curve"/>
      <point x="133" y="722"/>
      <point x="220" y="722"/>
      <point x="133" y="722" type="curve"/>
      <point x="133" y="481"/>
      <point x="133" y="241"/>
      <point x="133" y="0" type="curve"/>
      <point x="220" y="0"/>
      <point x="133" y="0"/>
    </contour>
    <contour>
      <point x="178" y="317" type="curve"/>
      <point x="221" y="317"/>
      <point x="264" y="317"/>
      <point x="308" y="317" type="curve"/>
      <point x="429" y="317"/>
      <point x="496" y="397"/>
      <point x="496" y="527" type="curve"/>
      <point x="496" y="649"/>
      <point x="429" y="722"/>
      <point x="309" y="722" type="curve"/>
      <point x="264" y="722"/>
      <point x="223" y="722"/>
      <point x="178" y="722" type="curve"/>
      <point x="178" y="653"/>
      <point x="178" y="722"/>
      <point x="178" y="653" type="curve"/>
      <point x="218" y="653"/>
      <point x="253" y="653"/>
      <point x="293" y="653" type="curve"/>
      <point x="370" y="653"/>
      <point x="408" y="600"/>
      <point x="408" y="521" type="curve"/>
      <point x="408" y="443"/>
      <point x="379" y="386"/>
      <point x="306" y="386" type="curve"/>
      <point x="264" y="386"/>
      <point x="220" y="386"/>
      <point x="178" y="386" type="curve"/>
      <point x="178" y="317"/>
      <point x="178" y="386"/>
    </contour>
    <contour>
      <point x="278" y="-308" type="line"/>
      <point x="341" y="-297"/>
      <point x="384" y="-247"/>
      <point x="384" y="-168" type="curve"/>
      <point x="384" y="-111"/>
      <point x="365" y="-79"/>
      <point x="331" y="-79" type="curve"/>
      <point x="302" y="-79"/>
      <point x="283" y="-95"/>
      <point x="283" y="-125" type="curve"/>
      <point x="283" y="-150"/>
      <point x="296" y="-169"/>
      <point x="322" y="-171" type="curve"/>
      <point x="322" y="-196"/>
      <point x="316" y="-241"/>
      <point x="271" y="-258" type="curve"/>
    </contour>
  </outline>
</glyph>
<glyph name="rcommaaccent" format="1">
  <advance width="371"/>
  <unicode hex="0157"/>
  <outline>
    <contour>
      <point x="167" y="0" type="curve"/>
      <point x="207" y="0"/>
      <point x="244" y="0"/>
      <point x="285" y="0" type="curve"/>
      <point x="285" y="69"/>
      <point x="285" y="0"/>
      <point x="285" y="69" type="curve"/>
      <point x="163" y="69"/>
      <point x="289" y="69"/>
      <point x="167" y="69" type="curve"/>
      <point x="167" y="0"/>
      <point x="167" y="69"/>
    </contour>
    <contour>
      <point x="167" y="69" type="curve"/>
      <point x="37" y="69"/>
      <point x="171" y="69"/>
      <point x="41" y="69" type="curve"/>
      <point x="41" y="0"/>
      <point x="41" y="69"/>
      <point x="41" y="0" type="curve"/>
      <point x="84" y="0"/>
      <point x="124" y="0"/>
      <point x="167" y="0" type="curve"/>
      <point x="167" y="69"/>
      <point x="167" y="0"/>
    </contour>
    <contour>
      <point x="166" y="533" type="curve"/>
      <point x="123" y="533"/>
      <point x="84" y="533"/>
      <point x="41" y="533" type="curve"/>
      <point x="41" y="464"/>
      <point x="41" y="533"/>
      <point x="41" y="464" type="curve"/>
      <point x="170" y="464"/>
      <point x="37" y="464"/>
      <point x="166" y="464" type="curve"/>
      <point x="166" y="533"/>
      <point x="166" y="464"/>
    </contour>
    <contour>
      <point x="210" y="0" type="curve"/>
      <point x="210" y="178"/>
      <point x="210" y="355"/>
      <point x="210" y="533" type="curve"/>
      <point x="123" y="533"/>
      <point x="210" y="533"/>
      <point x="123" y="533" type="curve"/>
      <point x="123" y="355"/>
      <point x="123" y="178"/>
      <point x="123" y="0" type="curve"/>
      <point x="210" y="0"/>
      <point x="123" y="0"/>
    </contour>
    <contour>
      <point x="191" y="325" type="curve"/>
      <point x="215" y="426"/>
      <point x="278" y="467"/>
      <point x="348" y="467" type="curve"/>
      <point x="348" y="540"/>
      <point x="348" y="464"/>
      <point x="348" y="538" type="curve"/>
      <point x="258" y="538"/>
      <point x="188" y="464"/>
      <point x="159" y="363" type="curve"/>
      <point x="191" y="328"/>
      <point x="162" y="358"/>
    </contour>
    <contour>
      <point x="111" y="-306" type="line"/>
      <point x="174" y="-295"/>
      <point x="217" y="-245"/>
      <point x="217" y="-166" type="curve"/>
      <point x="217" y="-109"/>
      <point x="197" y="-77"/>
      <point x="164" y="-77" type="curve"/>
      <point x="135" y="-77"/>
      <point x="116" y="-93"/>
      <point x="116" y="-124" type="curve"/>
      <point x="116" y="-149"/>
      <point x="129" y="-167"/>
      <point x="155" y="-170" type="curve"/>
      <point x="155" y="-194"/>
      <point x="149" y="-240"/>
      <point x="104" y="-257" type="curve"/>
    </contour>
  </outline>
</glyph>
<glyph name="rcaron" format="1">
  <advance width="375"/>
  <unicode hex="0159"/>
  <outline>
    <contour>
      <point x="165" y="0" type="curve"/>
      <point x="206" y="0"/>
      <point x="242" y="0"/>
      <point x="283" y="0" type="curve"/>
      <point x="283" y="69"/>
      <point x="283" y="0"/>
      <point x="283" y="69" type="curve"/>
      <point x="161" y="69"/>
      <point x="287" y="69"/>
      <point x="165" y="69" type="curve"/>
      <point x="165" y="0"/>
      <point x="165" y="69"/>
    </contour>
    <contour>
      <point x="165" y="69" type="curve"/>
      <point x="35" y="69"/>
      <point x="169" y="69"/>
      <point x="40" y="69" type="curve"/>
      <point x="39" y="0"/>
      <point x="40" y="69"/>
      <point x="39" y="0" type="curve"/>
      <point x="83" y="0"/>
      <point x="122" y="0"/>
      <point x="165" y="0" type="curve"/>
      <point x="165" y="69"/>
      <point x="165" y="0"/>
    </contour>
    <contour>
      <point x="164" y="533" type="curve"/>
      <point x="121" y="533"/>
      <point x="82" y="533"/>
      <point x="39" y="533" type="curve"/>
      <point x="39" y="464"/>
      <point x="39" y="533"/>
      <point x="39" y="464" type="curve"/>
      <point x="168" y="464"/>
      <point x="35" y="464"/>
      <point x="164" y="464" type="curve"/>
      <point x="164" y="533"/>
      <point x="164" y="464"/>
    </contour>
    <contour>
      <point x="208" y="0" type="curve"/>
      <point x="208" y="178"/>
      <point x="208" y="355"/>
      <point x="208" y="533" type="curve"/>
      <point x="121" y="533"/>
      <point x="208" y="533"/>
      <point x="121" y="533" type="curve"/>
      <point x="121" y="355"/>
      <point x="121" y="178"/>
      <point x="121" y="0" type="curve"/>
      <point x="208" y="0"/>
      <point x="121" y="0"/>
    </contour>
    <contour>
      <point x="189" y="325" type="curve"/>
      <point x="214" y="426"/>
      <point x="276" y="467"/>
      <point x="346" y="467" type="curve"/>
      <point x="346" y="540"/>
      <point x="346" y="464"/>
      <point x="346" y="538" type="curve"/>
      <point x="256" y="538"/>
      <point x="186" y="464"/>
      <point x="157" y="363" type="curve"/>
      <point x="188" y="328"/>
      <point x="161" y="358"/>
    </contour>
    <contour>
      <point x="235" y="805" type="line"/>
      <point x="135" y="639" type="line"/>
      <point x="243" y="639" type="line"/>
      <point x="318" y="805" type="line"/>
    </contour>
    <contour>
      <point x="25" y="805" type="line"/>
      <point x="101" y="639" type="line"/>
      <point x="209" y="639" type="line"/>
      <point x="109" y="805" type="line"/>
    </contour>
  </outline>
</glyph>
<glyph name="sacute" format="1">
  <advance width="418"/>
  <unicode hex="015B"/>
  <outline>
    <contour>
      <point x="55" y="48" type="curve"/>
      <point x="104" y="16"/>
      <point x="154" y="-5"/>
      <point x="210" y="-5" type="curve"/>
      <point x="309" y="-5"/>
      <point x="367" y="51"/>
      <point x="367" y="147" type="curve"/>
      <point x="366" y="238"/>
      <point x="307" y="276"/>
      <point x="221" y="309" type="curve" smooth="yes"/>
      <point x="175" y="328"/>
      <point x="147" y="356"/>
      <point x="147" y="403" type="curve"/>
      <point x="147" y="438"/>
      <point x="166" y="467"/>
      <point x="204" y="467" type="curve"/>
      <point x="238" y="467"/>
      <point x="270" y="451"/>
      <point x="294" y="430" type="curve"/>
      <point x="330" y="487"/>
      <point x="297" y="436"/>
      <point x="333" y="493" type="curve"/>
      <point x="301" y="518"/>
      <point x="254" y="538"/>
      <point x="207" y="538" type="curve"/>
      <point x="120" y="538"/>
      <point x="67" y="487"/>
      <point x="67" y="403" type="curve"/>
      <point x="67" y="319"/>
      <point x="114" y="275"/>
      <point x="193" y="244" type="curve" smooth="yes"/>
      <point x="244" y="223"/>
      <point x="284" y="198"/>
      <point x="283" y="143" type="curve"/>
      <point x="283" y="99"/>
      <point x="258" y="69"/>
      <point x="216" y="69" type="curve"/>
      <point x="172" y="69"/>
      <point x="136" y="85"/>
      <point x="98" y="109" type="curve"/>
      <point x="55" y="48"/>
      <point x="98" y="109"/>
    </contour>
    <contour>
      <point x="263" y="493" type="curve"/>
      <point x="263" y="366"/>
      <point x="263" y="497"/>
      <point x="263" y="371" type="curve"/>
      <point x="333" y="371"/>
      <point x="263" y="371"/>
      <point x="333" y="371" type="curve"/>
      <point x="333" y="497"/>
      <point x="333" y="366"/>
      <point x="333" y="493" type="curve"/>
      <point x="270" y="493"/>
      <point x="327" y="493"/>
    </contour>
    <contour>
      <point x="124" y="48" type="curve"/>
      <point x="124" y="176"/>
      <point x="124" y="43"/>
      <point x="124" y="172" type="curve"/>
      <point x="55" y="172"/>
      <point x="124" y="172"/>
      <point x="55" y="172" type="curve"/>
      <point x="55" y="43"/>
      <point x="55" y="176"/>
      <point x="55" y="48" type="curve"/>
      <point x="124" y="48"/>
      <point x="55" y="48"/>
    </contour>
    <contour>
      <point x="250" y="638" type="line"/>
      <point x="350" y="804" type="line"/>
      <point x="242" y="804" type="line"/>
      <point x="167" y="638" type="line"/>
    </contour>
  </outline>
</glyph>
<glyph name="Uring" format="1">
  <advance width="677"/>
  <unicode hex="016E"/>
  <outline>
    <contour>
      <point x="521" y="653" type="curve"/>
      <point x="649" y="653"/>
      <point x="517" y="653"/>
      <point x="645" y="653" type="curve"/>
      <point x="645" y="722"/>
      <point x="645" y="653"/>
      <point x="645" y="722" type="curve"/>
      <point x="603" y="722"/>
      <point x="564" y="722"/>
      <point x="521" y="722" type="curve"/>
      <point x="521" y="653"/>
      <point x="521" y="722"/>
    </contour>
    <contour>
      <point x="521" y="722" type="curve"/>
      <point x="478" y="722"/>
      <point x="439" y="722"/>
      <point x="397" y="722" type="curve"/>
      <point x="397" y="653"/>
      <point x="397" y="722"/>
      <point x="397" y="653" type="curve"/>
      <point x="525" y="653"/>
      <point x="393" y="653"/>
      <point x="521" y="653" type="curve"/>
      <point x="521" y="722"/>
      <point x="521" y="653"/>
    </contour>
    <contour>
      <point x="158" y="722" type="curve"/>
      <point x="115" y="722"/>
      <point x="76" y="722"/>
      <point x="34" y="722" type="curve"/>
      <point x="34" y="653"/>
      <point x="34" y="722"/>
      <point x="34" y="653" type="curve"/>
      <point x="162" y="653"/>
      <point x="30" y="653"/>
      <point x="158" y="653" type="curve"/>
      <point x="158" y="722"/>
      <point x="158" y="653"/>
    </contour>
    <contour>
      <point x="158" y="653" type="curve"/>
      <point x="286" y="653"/>
      <point x="153" y="653"/>
      <point x="281" y="653" type="curve"/>
      <point x="281" y="722"/>
      <point x="281" y="653"/>
      <point x="281" y="722" type="curve"/>
      <point x="239" y="722"/>
      <point x="200" y="722"/>
      <point x="158" y="722" type="curve"/>
      <point x="158" y="653"/>
      <point x="158" y="722"/>
    </contour>
    <contour>
      <point x="116" y="697" type="curve"/>
      <point x="116" y="555"/>
      <point x="115" y="414"/>
      <point x="116" y="272" type="curve"/>
      <point x="116" y="100"/>
      <point x="176" y="-5"/>
      <point x="337" y="-5" type="curve"/>
      <point x="499" y="-5"/>
      <point x="561" y="101"/>
      <point x="561" y="275" type="curve"/>
      <point x="561" y="415"/>
      <point x="561" y="556"/>
      <point x="561" y="697" type="curve"/>
      <point x="482" y="697"/>
      <point x="561" y="697"/>
      <point x="481" y="697" type="curve"/>
      <point x="481" y="552"/>
      <point x="481" y="410"/>
      <point x="481" y="265" type="curve"/>
      <point x="481" y="150"/>
      <point x="445" y="71"/>
      <point x="343" y="71" type="curve"/>
      <point x="227" y="71"/>
      <point x="196" y="157"/>
      <point x="196" y="286" type="curve"/>
      <point x="196" y="423"/>
      <point x="196" y="560"/>
      <point x="196" y="697" type="curve"/>
      <point x="116" y="697"/>
      <point x="195" y="697"/>
    </contour>
    <contour>
      <point x="225" y="933" type="curve"/>
      <point x="225" y="854"/>
      <point x="266" y="800"/>
      <point x="341" y="800" type="curve"/>
      <point x="417" y="800"/>
      <point x="459" y="853"/>
      <point x="459" y="933" type="curve"/>
      <point x="459" y="1011"/>
      <point x="416" y="1066"/>
      <point x="339" y="1066" type="curve"/>
      <point x="265" y="1066"/>
      <point x="225" y="1011"/>
      <point x="225" y="933" type="curve"/>
      <point x="303" y="933"/>
      <point x="219" y="933"/>
      <point x="297" y="933" type="curve"/>
      <point x="297" y="969"/>
      <point x="303" y="1002"/>
      <point x="339" y="1002" type="curve"/>
      <point x="375" y="1002"/>
      <point x="383" y="970"/>
      <point x="383" y="933" type="curve"/>
      <point x="383" y="896"/>
      <point x="376" y="863"/>
      <point x="341" y="863" type="curve"/>
      <point x="305" y="863"/>
      <point x="297" y="896"/>
      <point x="297" y="933" type="curve"/>
      <point x="219" y="933"/>
      <point x="303" y="933"/>
    </contour>
  </outline>
</glyph>
<glyph name="uring" format="1">
  <advance width="547"/>
  <unicode hex="016F"/>
  <outline>
    <contour>
      <point x="405" y="533" type="curve"/>
      <point x="362" y="533"/>
      <point x="322" y="533"/>
      <point x="279" y="533" type="curve"/>
      <point x="279" y="464"/>
      <point x="279" y="533"/>
      <point x="279" y="464" type="curve"/>
      <point x="409" y="464"/>
      <point x="275" y="464"/>
      <point x="405" y="464" type="curve"/>
      <point x="405" y="533"/>
      <point x="405" y="464"/>
    </contour>
    <contour>
      <point x="139" y="533" type="curve"/>
      <point x="96" y="533"/>
      <point x="56" y="533"/>
      <point x="13" y="533" type="curve"/>
      <point x="13" y="464"/>
      <point x="13" y="533"/>
      <point x="13" y="464" type="curve"/>
      <point x="143" y="464"/>
      <point x="9" y="464"/>
      <point x="139" y="464" type="curve"/>
      <point x="139" y="533"/>
      <point x="139" y="464"/>
    </contour>
    <contour>
      <point x="405" y="0" type="curve"/>
      <point x="446" y="0"/>
      <point x="482" y="0"/>
      <point x="523" y="0" type="curve"/>
      <point x="523" y="69"/>
      <point x="523" y="0"/>
      <point x="523" y="69" type="curve"/>
      <point x="401" y="69"/>
      <point x="527" y="69"/>
      <point x="405" y="69" type="curve"/>
      <point x="405" y="0"/>
      <point x="405" y="69"/>
    </contour>
    <contour>
      <point x="448" y="0" type="curve"/>
      <point x="448" y="178"/>
      <point x="448" y="355"/>
      <point x="448" y="533" type="curve"/>
      <point x="361" y="533"/>
      <point x="448" y="533"/>
      <point x="361" y="533" type="curve"/>
      <point x="361" y="355"/>
      <point x="361" y="178"/>
      <point x="361" y="0" type="curve"/>
      <point x="448" y="0"/>
      <point x="361" y="0"/>
    </contour>
    <contour>
      <point x="377" y="201" type="curve"/>
      <point x="357" y="140"/>
      <point x="321" y="67"/>
      <point x="266" y="67" type="curve"/>
      <point x="198" y="67"/>
      <point x="183" y="127"/>
      <point x="183" y="204" type="curve"/>
      <point x="183" y="314"/>
      <point x="183" y="423"/>
      <point x="183" y="533" type="curve"/>
      <point x="95" y="533"/>
      <point x="183" y="533"/>
      <point x="95" y="533" type="curve"/>
      <point x="95" y="422"/>
      <point x="95" y="311"/>
      <point x="95" y="200" type="curve"/>
      <point x="95" y="80"/>
      <point x="135" y="-5"/>
      <point x="254" y="-5" type="curve"/>
      <point x="337" y="-5"/>
      <point x="384" y="78"/>
      <point x="411" y="172" type="curve"/>
      <point x="377" y="201"/>
      <point x="412" y="172"/>
    </contour>
    <contour>
      <point x="137" y="770" type="curve"/>
      <point x="137" y="692"/>
      <point x="178" y="637"/>
      <point x="253" y="637" type="curve"/>
      <point x="329" y="637"/>
      <point x="370" y="691"/>
      <point x="370" y="770" type="curve"/>
      <point x="370" y="849"/>
      <point x="328" y="903"/>
      <point x="251" y="903" type="curve"/>
      <point x="176" y="903"/>
      <point x="137" y="848"/>
      <point x="137" y="770" type="curve"/>
      <point x="215" y="770"/>
      <point x="131" y="770"/>
      <point x="209" y="770" type="curve"/>
      <point x="209" y="806"/>
      <point x="215" y="840"/>
      <point x="251" y="840" type="curve"/>
      <point x="287" y="840"/>
      <point x="295" y="807"/>
      <point x="295" y="770" type="curve"/>
      <point x="295" y="733"/>
      <point x="288" y="701"/>
      <point x="253" y="701" type="curve"/>
      <point x="217" y="701"/>
      <point x="209" y="733"/>
      <point x="209" y="770" type="curve"/>
      <point x="131" y="770"/>
      <point x="215" y="770"/>
    </contour>
  </outline>
</glyph>
<glyph name="Uogonek" format="1">
  <advance width="677"/>
  <unicode hex="0172"/>
  <outline>
    <contour>
      <point x="522" y="653" type="curve"/>
      <point x="650" y="653"/>
      <point x="517" y="653"/>
      <point x="646" y="653" type="curve"/>
      <point x="646" y="722"/>
      <point x="646" y="653"/>
      <point x="646" y="722" type="curve"/>
      <point x="603" y="722"/>
      <point x="564" y="722"/>
      <point x="522" y="722" type="curve"/>
      <point x="522" y="653"/>
      <point x="522" y="722"/>
    </contour>
    <contour>
      <point x="522" y="722" type="curve"/>
      <point x="479" y="722"/>
      <point x="440" y="722"/>
      <point x="398" y="722" type="curve"/>
      <point x="398" y="653"/>
      <point x="398" y="722"/>
      <point x="398" y="653" type="curve"/>
      <point x="526" y="653"/>
      <point x="394" y="653"/>
      <point x="522" y="653" type="curve"/>
      <point x="522" y="722"/>
      <point x="522" y="653"/>
    </contour>
    <contour>
      <point x="158" y="722" type="curve"/>
      <point x="116" y="722"/>
      <point x="77" y="722"/>
      <point x="35" y="722" type="curve"/>
      <point x="35" y="653"/>
      <point x="35" y="722"/>
      <point x="35" y="653" type="curve"/>
      <point x="162" y="653"/>
      <point x="30" y="653"/>
      <point x="158" y="653" type="curve"/>
      <point x="158" y="722"/>
      <point x="158" y="653"/>
    </contour>
    <contour>
      <point x="158" y="653" type="curve"/>
      <point x="286" y="653"/>
      <point x="154" y="653"/>
      <point x="282" y="653" type="curve"/>
      <point x="282" y="722"/>
      <point x="282" y="653"/>
      <point x="282" y="722" type="curve"/>
      <point x="240" y="722"/>
      <point x="201" y="722"/>
      <point x="158" y="722" type="curve"/>
      <point x="158" y="653"/>
      <point x="158" y="722"/>
    </contour>
    <contour>
      <point x="117" y="697" type="curve"/>
      <point x="117" y="555"/>
      <point x="116" y="414"/>
      <point x="117" y="272" type="curve"/>
      <point x="117" y="100"/>
      <point x="176" y="-5"/>
      <point x="337" y="-5" type="curve"/>
      <point x="500" y="-5"/>
      <point x="562" y="101"/>
      <point x="562" y="275" type="curve"/>
      <point x="562" y="415"/>
      <point x="562" y="556"/>
      <point x="562" y="697" type="curve"/>
      <point x="482" y="697"/>
      <point x="561" y="697"/>
      <point x="482" y="697" type="curve"/>
      <point x="482" y="552"/>
      <point x="482" y="410"/>
      <point x="482" y="265" type="curve"/>
      <point x="482" y="150"/>
      <point x="445" y="71"/>
      <point x="344" y="71" type="curve"/>
      <point x="228" y="71"/>
      <point x="196" y="157"/>
      <point x="196" y="286" type="curve"/>
      <point x="196" y="423"/>
      <point x="196" y="560"/>
      <point x="196" y="697" type="curve"/>
      <point x="117" y="697"/>
      <point x="196" y="697"/>
    </contour>
    <contour>
      <point x="348" y="54" type="curve"/>
      <point x="293" y="24"/>
      <point x="249" y="-8"/>
      <point x="249" y="-70" type="curve"/>
      <point x="249" y="-134"/>
      <point x="283" y="-182"/>
      <point x="346" y="-182" type="curve"/>
      <point x="377" y="-182"/>
      <point x="398" y="-169"/>
      <point x="423" y="-150" type="curve"/>
      <point x="386" y="-100"/>
      <point x="419" y="-146"/>
      <point x="382" y="-97" type="curve"/>
      <point x="372" y="-105"/>
      <point x="363" y="-113"/>
      <point x="351" y="-113" type="curve"/>
      <point x="329" y="-113"/>
      <point x="320" y="-93"/>
      <point x="320" y="-70" type="curve"/>
      <point x="320" y="-34"/>
      <point x="349" y="-13"/>
      <point x="380" y="6" type="curve"/>
      <point x="351" y="49"/>
      <point x="378" y="11"/>
    </contour>
  </outline>
</glyph>
<glyph name="florin" format="1">
  <advance width="361"/>
  <unicode hex="0192"/>
  <outline>
    <contour>
      <point x="323" y="558" type="curve"/>
      <point x="260" y="558"/>
      <point x="174" y="558"/>
      <point x="112" y="558" type="curve"/>
      <point x="112" y="489"/>
      <point x="112" y="558"/>
      <point x="112" y="489" type="curve"/>
      <point x="174" y="489"/>
      <point x="260" y="489"/>
      <point x="323" y="489" type="curve"/>
      <point x="323" y="558"/>
      <point x="323" y="489"/>
    </contour>
    <contour>
      <point x="358" y="821" type="curve"/>
      <point x="267" y="844"/>
      <point x="208" y="781"/>
      <point x="192" y="687" type="curve"/>
      <point x="162" y="486"/>
      <point x="133" y="286"/>
      <point x="103" y="85" type="curve"/>
      <point x="97" y="39"/>
      <point x="81" y="-3"/>
      <point x="42" y="8" type="curve"/>
      <point x="26" y="-61"/>
      <point x="42" y="8"/>
      <point x="26" y="-61" type="curve"/>
      <point x="120" y="-83"/>
      <point x="176" y="-21"/>
      <point x="191" y="74" type="curve"/>
      <point x="222" y="277"/>
      <point x="253" y="480"/>
      <point x="284" y="684" type="curve"/>
      <point x="290" y="725"/>
      <point x="307" y="761"/>
      <point x="342" y="752" type="curve"/>
      <point x="358" y="821"/>
      <point x="342" y="752"/>
    </contour>
  </outline>
</glyph>
<glyph name="circumflex" format="1">
  <advance width="480"/>
  <unicode hex="02C6"/>
  <outline>
    <contour>
      <point x="219" y="591" type="move" name="_top"/>
    </contour>
    <contour>
      <point x="156" y="591" type="line"/>
      <point x="256" y="757" type="line"/>
      <point x="148" y="757" type="line"/>
      <point x="73" y="591" type="line"/>
    </contour>
    <contour>
      <point x="365" y="591" type="line"/>
      <point x="290" y="757" type="line"/>
      <point x="182" y="757" type="line"/>
      <point x="282" y="591" type="line"/>
    </contour>
  </outline>
</glyph>
<glyph name="caron" format="1">
  <advance width="406"/>
  <unicode hex="02C7"/>
  <outline>
    <contour>
      <point x="172" y="591" type="move" name="_top"/>
    </contour>
    <contour>
      <point x="236" y="757" type="line"/>
      <point x="136" y="591" type="line"/>
      <point x="243" y="591" type="line"/>
      <point x="319" y="757" type="line"/>
    </contour>
    <contour>
      <point x="26" y="757" type="line"/>
      <point x="102" y="591" type="line"/>
      <point x="210" y="591" type="line"/>
      <point x="109" y="757" type="line"/>
    </contour>
  </outline>
</glyph>
<glyph name="breve" format="1">
  <advance width="315"/>
  <unicode hex="02D8"/>
  <outline>
    <contour>
      <point x="113" y="575" type="move" name="_top"/>
    </contour>
    <contour>
      <point x="168" y="716" type="curve"/>
      <point x="168" y="674"/>
      <point x="154" y="641"/>
      <point x="114" y="641" type="curve"/>
      <point x="74" y="641"/>
      <point x="61" y="674"/>
      <point x="61" y="717" type="curve"/>
      <point x="-18" y="717"/>
      <point x="61" y="717"/>
      <point x="-18" y="717" type="curve"/>
      <point x="-18" y="632"/>
      <point x="27" y="577"/>
      <point x="111" y="577" type="curve"/>
      <point x="196" y="577"/>
      <point x="246" y="630"/>
      <point x="246" y="716" type="curve"/>
      <point x="168" y="716"/>
      <point x="246" y="716"/>
    </contour>
  </outline>
</glyph>
<glyph name="dotaccent" format="1">
  <advance width="447"/>
  <unicode hex="02D9"/>
  <outline>
    <contour>
      <point x="217" y="626" type="move" name="_top"/>
    </contour>
    <contour>
      <point x="265" y="670" type="curve"/>
      <point x="265" y="700"/>
      <point x="245" y="716"/>
      <point x="217" y="716" type="curve"/>
      <point x="188" y="716"/>
      <point x="170" y="699"/>
      <point x="170" y="670" type="curve"/>
      <point x="265" y="670"/>
      <point x="170" y="670"/>
      <point x="265" y="670" type="curve"/>
      <point x="265" y="638"/>
      <point x="246" y="624"/>
      <point x="217" y="624" type="curve"/>
      <point x="188" y="624"/>
      <point x="170" y="639"/>
      <point x="170" y="670" type="curve"/>
      <point x="265" y="670"/>
      <point x="170" y="670"/>
    </contour>
  </outline>
</glyph>
<glyph name="hungarumlaut" format="1">
  <advance width="457"/>
  <unicode hex="02DD"/>
  <outline>
    <contour>
      <point x="190" y="656" type="move" name="_top"/>
    </contour>
    <contour>
      <point x="140" y="668" type="line"/>
      <point x="240" y="834" type="line"/>
      <point x="132" y="834" type="line"/>
      <point x="57" y="668" type="line"/>
    </contour>
    <contour>
      <point x="295" y="668" type="line"/>
      <point x="395" y="834" type="line"/>
      <point x="287" y="834" type="line"/>
      <point x="212" y="668" type="line"/>
    </contour>
  </outline>
</glyph>
<glyph name="dvCandrabindu" format="1">
  <advance width="0"/>
  <unicode hex="0901"/>
  <outline>
    <contour>
      <point x="-19" y="740" type="move" name="_abvm.e"/>
    </contour>
    <component base="dvAnusvara" xScale="0.700786537763" yScale="0.735364549727" xOffset="-33" yOffset="358"/>
    <component base="dvmEcandra"/>
  </outline>
</glyph>
<glyph name="dvAnusvara" format="1">
  <advance width="0"/>
  <unicode hex="0902"/>
  <outline>
    <contour>
      <point x="-64" y="759" type="move" name="_abvm.e"/>
    </contour>
    <contour>
      <point x="-66" y="913" type="curve"/>
      <point x="-66" y="939"/>
      <point x="-81" y="956"/>
      <point x="-106" y="956" type="curve"/>
      <point x="-132" y="956"/>
      <point x="-148" y="938"/>
      <point x="-148" y="913" type="curve"/>
      <point x="-109" y="913"/>
      <point x="-105" y="913"/>
      <point x="-66" y="913" type="curve"/>
      <point x="-66" y="887"/>
      <point x="-81" y="871"/>
      <point x="-106" y="871" type="curve"/>
      <point x="-132" y="871"/>
      <point x="-148" y="888"/>
      <point x="-148" y="913" type="curve"/>
      <point x="-109" y="913"/>
      <point x="-105" y="913"/>
    </contour>
  </outline>
</glyph>
<glyph name="dvA" format="1">
  <advance width="640"/>
  <unicode hex="0905"/>
  <outline>
    <contour>
      <point x="480" y="458" type="line"/>
      <point x="456" y="421"/>
      <point x="419" y="401"/>
      <point x="370" y="401" type="curve" smooth="yes"/>
      <point x="318" y="401"/>
      <point x="277" y="412"/>
      <point x="232" y="439" type="curve"/>
      <point x="208" y="389" type="line"/>
      <point x="258" y="360"/>
      <point x="309" y="340"/>
      <point x="370" y="340" type="curve" smooth="yes"/>
      <point x="438" y="340"/>
      <point x="494" y="371"/>
      <point x="525" y="423" type="curve"/>
    </contour>
    <component base="dvA_base"/>
    <component base="dvStem" xOffset="338"/>
  </outline>
</glyph>
